<?xml version="1.0" encoding="UTF-8" standalone="no"?>
<!-- Created with Inkscape (http://www.inkscape.org/) -->

<svg
   width="500"
   height="500"
   viewBox="0 0 132.29166 132.29167"
   version="1.1"
   id="svg1"
   xml:space="preserve"
   xmlns="http://www.w3.org/2000/svg"
   xmlns:svg="http://www.w3.org/2000/svg"><defs
     id="defs1" /><g
     id="layer1"><path
       style="fill:#66a6d5;stroke:none;stroke-width:0.79375;stroke-linecap:square;stroke-miterlimit:7.9"
       d="M 6.5403645,70.98471 1.6848956,78.3226 130.56387,78.412434 125.46426,71.072591 Z"
       id="path8" /><path
       style="fill:#66a6d5;stroke:none;stroke-width:0.79375;stroke-linecap:square;stroke-miterlimit:7.9"
       d="m 16.880208,51.731552 2.451172,-4.45508 h 24.138672 l 3.437501,2.996094 2.804686,-3.025389 h 32.884766 l 3.150391,3.117189 3.093749,-2.96875 h 24.050785 l 2.84179,4.57617 z"
       id="path6" /><path
       style="fill:#d9e9f2;stroke:none;stroke-width:0.79375;stroke-linecap:square;stroke-miterlimit:7.9"
       d="m 11.50162,51.432354 -1.195842,1.225738 v 8.131733 l 1.57755,3.28406 108.111152,0.0643 1.43854,-3.614484 0.4748,-7.566658 -0.98657,-1.285531 z"
       id="path7" /><path
       style="fill:#3b6996;stroke:none;stroke-width:0.79375;stroke-linecap:square;stroke-miterlimit:7.9"
       d="M 5.4124753,75.655045 H 127.17822 l -1.25593,-1.883902 H 6.6983122 Z"
       id="path9"
       transform="translate(-0.27994813,-3.1246691)" /><path
       style="fill:#375b87;stroke:none;stroke-width:0.79375;stroke-linecap:square;stroke-miterlimit:7.9"
       d="M 2.378753,80.514311 H 130.39102 l 0.55258,1.322766 -129.4827217,-0.1047 z"
       id="path10"
       transform="translate(-0.27994813,-3.1246691)" /><path
       style="fill:#909eb1;stroke:none;stroke-width:0.79375;stroke-linecap:square;stroke-miterlimit:7.9"
       d="M 10.739374,61.200241 H 121.29143 l -1.19613,2.422157 H 11.875694 Z"
       id="path11" /><path
       style="fill:#97bdcf;stroke:none;stroke-width:0.79375;stroke-linecap:square;stroke-miterlimit:7.9"
       d="M 10.292422,53.203782 H 121.92595 l -0.93037,-1.23697 H 11.465954 Z"
       id="path12" /><path
       style="fill:#38fdfa;stroke:none;stroke-width:0.79375;stroke-linecap:square;stroke-miterlimit:7.9"
       d="m 18.348569,48.678779 h 26.726953 l 1.839592,1.712725 1.564711,-1.69158 h 35.86148 l 1.353264,1.712722 1.818447,-1.712722 H 114.02852 L 113.18273,47.473528 88.612542,47.34666 85.715714,49.947464 82.966897,47.177501 H 49.304468 l -2.431645,2.685384 -3.192854,-2.769963 h -24.5279 z"
       id="path13" /><path
       style="fill:#375b87;stroke:none;stroke-width:0.79375;stroke-linecap:square;stroke-miterlimit:7.9"
       d="m 21.779083,63.946761 v 7.037949 h 88.699067 l 0.044,-7.037949 z"
       id="path14" /></g><g
     id="layer4"><path
       style="fill:none;stroke:#000000;stroke-width:0.79375;stroke-linecap:square;stroke-miterlimit:7.9"
       d="M 1.6848956,78.3226 6.5403645,70.98471 H 21.779083 V 63.946761 L 12.199338,63.894141 10.702474,60.6046 v -7.88086 l 0.966797,-0.992188 h 5.210937 l 2.451172,-4.45508 h 24.138672 l 3.437501,2.996094 2.804686,-3.025389 h 32.884766 l 3.150391,3.117189 3.093749,-2.96875 h 24.050785 l 2.84179,4.57617 h 5.01758 l 0.78711,1.023437 v 7.537109 l -1.91795,3.414429 h -9.09831 l -0.044,7.037949 14.98611,0.08788 5.09961,7.339844 z"
       id="path2" /><path
       style="fill:#000000;stroke:#000000;stroke-width:0.79375;stroke-linecap:square;stroke-miterlimit:7.9"
       d="M 21.779083,70.98471 H 110.47813"
       id="path3" /><path
       style="fill:#000000;stroke:#000000;stroke-width:0.79375;stroke-linecap:square;stroke-miterlimit:7.9"
       d="M 110.52215,63.946761 H 21.779083"
       id="path4" /><path
       style="fill:#000000;stroke:#000000;stroke-width:0.79375;stroke-linecap:square;stroke-miterlimit:7.9"
       d="m 16.880208,51.731552 98.853512,0.240234"
       id="path5" /></g></svg>
