<?xml version="1.0" encoding="UTF-8" standalone="no"?>
<!-- Created with Inkscape (http://www.inkscape.org/) -->

<svg
   width="500"
   height="500"
   viewBox="0 0 132.29166 132.29167"
   version="1.1"
   id="svg1"
   xml:space="preserve"
   xmlns="http://www.w3.org/2000/svg"
   xmlns:svg="http://www.w3.org/2000/svg"><defs
     id="defs1" /><g
     id="layer1"><path
       style="baseline-shift:baseline;display:inline;overflow:visible;opacity:1;vector-effect:none;fill:#66a6d5;stroke-linecap:square;stroke-miterlimit:7.9;enable-background:accumulate;stop-color:#000000;stop-opacity:1"
       d="m 1.2260304,81.845001 5.3825722,-8.133665 5.5550474,0.0254 -1.577924,-3.284842 V 62.31823 l 1.196127,-1.226029 H 16.9252 l 2.45206,-4.455576 h 24.520607 l 3.259447,2.840802 2.661383,-2.870705 h 33.222432 l 2.990318,2.960415 2.930512,-2.810899 h 24.430901 l 2.8408,4.575188 h 4.99383 l 0.9868,1.285836 v 7.774826 l -1.9138,3.408963 h 5.6517 l 5.6517,8.133664 z"
       id="path5" /><path
       style="fill:#d9e9f2;stroke:none;stroke-width:0.79375;stroke-linecap:square;stroke-miterlimit:7.9"
       d="m 11.781853,61.092201 -1.196127,1.226029 v 8.133664 l 1.577924,3.284842 108.13684,0.06432 1.9138,-3.408968 v -7.774826 l -0.9868,-1.285835 z"
       id="path7" /><path
       style="fill:#3b6996;stroke:none;stroke-width:0.79375;stroke-linecap:square;stroke-miterlimit:7.9"
       d="M 5.4124753,75.655045 H 127.17822 l -1.25593,-1.883902 H 6.6983122 Z"
       id="path9" /><path
       style="fill:#375b87;stroke:none;stroke-width:0.79375;stroke-linecap:square;stroke-miterlimit:7.9"
       d="M 1.9736098,80.514311 H 130.72175 l 0.59806,1.405448 H 1.4652558 Z"
       id="path10" /><path
       style="fill:#909eb1;stroke:none;stroke-width:0.79375;stroke-linecap:square;stroke-miterlimit:7.9"
       d="M 11.019322,71.468598 H 121.57138 l -1.19613,2.422157 H 12.155642 Z"
       id="path11" /><path
       style="fill:#97bdcf;stroke:none;stroke-width:0.79375;stroke-linecap:square;stroke-miterlimit:7.9"
       d="m 10.57237,62.546145 h 111.63366 l -0.93037,-1.23697 H 11.745904 Z"
       id="path12" /><path
       style="fill:#38fdfa;stroke:none;stroke-width:0.79375;stroke-linecap:square;stroke-miterlimit:7.9"
       d="M 18.628517,58.021169 H 45.35547 l 1.839592,1.712725 1.564711,-1.69158 h 35.86148 l 1.353264,1.712722 1.818447,-1.712722 H 114.30847 L 113.46268,56.815918 88.89249,56.68905 85.995662,59.289854 83.246845,56.519891 H 49.584416 l -2.431645,2.685384 -3.192854,-2.769963 h -24.5279 z"
       id="path13" /></g><g
     id="layer4"><path
       style="baseline-shift:baseline;display:inline;overflow:visible;opacity:1;vector-effect:none;stroke-linecap:square;stroke-miterlimit:7.9;enable-background:accumulate;stop-color:#000000;stop-opacity:1"
       d="m 49.644531,56.208984 -2.515625,2.716797 -3.082031,-2.685547 H 19.142578 l -2.451172,4.455078 h -5.076172 l -1.425781,1.460938 v 8.386719 l 1.341797,2.794922 -5.1347656,-0.02344 -5.90820315,8.927734 131.87499875,0.08984 -6.20312,-8.927734 h -5.18164 l 1.63281,-2.908203 v -8.013672 l -1.1875,-1.548828 h -4.96875 l -2.8418,-4.574219 H 88.802734 l -2.767578,2.654297 -2.830078,-2.804688 z m 0.347656,0.794922 h 32.884766 l 3.150391,3.117188 3.09375,-2.96875 h 24.050786 l 2.84179,4.576172 h 5.01758 l 0.78711,1.023437 v 7.537109 l -2.19531,3.908204 h 6.12109 l 5.09961,7.339843 -128.8789063,-0.08984 4.8554688,-7.337891 5.9765625,0.02734 -1.814453,-3.775391 v -7.880859 l 0.966797,-0.992188 h 5.210937 l 2.451172,-4.455078 H 43.75 l 3.4375,2.996094 z"
       id="path6" /><path
       style="fill:none;stroke:#000000;stroke-width:0.79375;stroke-linecap:square;stroke-miterlimit:7.9"
       d="m 16.9252,61.092196 99.30846,0.239225 v 0"
       id="path2" /><path
       style="fill:none;stroke:#000000;stroke-width:0.79375;stroke-linecap:square;stroke-miterlimit:7.9"
       d="m 12.16365,73.736736 108.13684,0.06432"
       id="path3" /></g></svg>
