<?xml version="1.0" encoding="UTF-8" standalone="no"?>
<!-- Created with Inkscape (http://www.inkscape.org/) -->

<svg
   width="500"
   height="500"
   viewBox="0 0 132.29166 132.29167"
   version="1.1"
   id="svg1"
   xml:space="preserve"
   xmlns="http://www.w3.org/2000/svg"
   xmlns:svg="http://www.w3.org/2000/svg"><defs
     id="defs1" /><g
     id="layer1"><path
       style="fill:#38fdfa;stroke:none;stroke-width:0.79375;stroke-linecap:square;stroke-miterlimit:7.9"
       d="m 10.331549,32.385142 6.96744,2.190409 0.239226,5.255485 -12.0136026,5.621798 -3.8350828,15.041297 7.1468599,-1.487683 2.8108985,4.059357 -8.0140517,9.36717 1.7717632,17.904529 6.6758845,-4.492953 3.984599,2.317499 -2.997794,13.1574 8.096286,11.96127 4.201397,-6.3021 5.330242,0.38874 2.945463,13.70314 12.215447,7.22161 0.328936,-6.90015 5.45733,-2.25769 7.819681,10.68291 14.495568,1.45778 -2.481964,-7.41599 3.722944,-3.48372 11.437967,6.26471 13.650804,-4.7546 -4.821891,-5.3452 1.540015,-4.83683 13.456426,0.84476 10.54835,-10.24184 -6.64598,-2.05584 -0.39622,-5.733937 11.72205,-4.724701 5.55451,-14.674985 -7.52065,0.986803 -2.624,-3.027696 0.29156,-5.36762 8.81396,-9.008332 -2.52682,-15.901017 -5.60685,3.588383 -5.05363,-2.885657 2.9006,-12.708853 -8.43269,-12.42477 -3.51363,6.152579 -6.04791,-0.388741 L 99.151468,10.563298 86.016496,3.5734299 85.769793,10.638056 80.521785,12.910698 71.887243,1.8465213 57.122549,1.1961272 59.911019,7.0795776 56.292736,11.714571 43.830586,5.8460716 30.13493,11.37816 l 4.978879,4.478001 -0.83729,5.509661 -14.331098,0.201846 z"
       id="path153" /><path
       style="fill:#d9e9f2;stroke:none;stroke-width:0.79375;stroke-linecap:square;stroke-miterlimit:7.9"
       d="m 14.632161,49.547414 9.832304,3.932923 -0.755924,9.636715 0.898651,15.329937 -1.295115,1.903026 -8.780354,2.505652 -1.310974,-0.618482 -0.40175,-1.279258 -0.05286,-30.3057 0.951514,-0.94094 z"
       id="path155" /><path
       style="fill:#d9e9f2;stroke:none;stroke-width:0.79375;stroke-linecap:square;stroke-miterlimit:7.9"
       d="m 109.62691,51.797381 -1.76593,1.622903 0.82321,9.44982 -0.89865,15.329937 1.29511,1.903026 8.78035,2.505652 1.31098,-0.618482 0.40175,-1.279258 -0.17137,-30.275797 -1.34027,-0.85123 z"
       id="path155-7" /><circle
       style="fill:#909eb1;stroke:none;stroke-width:0.79375;stroke-linecap:square;stroke-miterlimit:7.9"
       id="path154"
       cx="20.790567"
       cy="57.709282"
       r="1.1682469" /><circle
       style="fill:#909eb1;stroke:none;stroke-width:0.79375;stroke-linecap:square;stroke-miterlimit:7.9"
       id="circle154"
       cx="20.674273"
       cy="74.572212"
       r="1.1682469" /><circle
       style="fill:#909eb1;stroke:none;stroke-width:0.79375;stroke-linecap:square;stroke-miterlimit:7.9"
       id="path154-7"
       cx="111.61486"
       cy="57.821621"
       r="1.1682469" /><circle
       style="fill:#909eb1;stroke:none;stroke-width:0.79375;stroke-linecap:square;stroke-miterlimit:7.9"
       id="circle154-6"
       cx="111.49857"
       cy="74.684555"
       r="1.1682469" /><path
       style="fill:#d9e9f2;stroke:none;stroke-width:0.79375;stroke-linecap:square;stroke-miterlimit:7.9"
       d="m 56.356022,117.15244 3.659658,-7.00408 c 0,0 6.100249,0.56816 6.324523,0.56816 0.224274,0 6.982391,-0.59806 6.982391,-0.59806 l 3.55848,6.92258 -11.034274,1.07652 z"
       id="path156" /><path
       style="fill:#d9e9f2;stroke:none;stroke-width:0.79375;stroke-linecap:square;stroke-miterlimit:7.9"
       d="m 56.371878,15.181924 c 0.126871,-0.02115 9.599713,-1.099527 9.599713,-1.099527 l 10.97412,1.226395 -3.615751,6.95662 -6.808604,-0.697776 -6.597161,0.634342 z"
       id="path157" /><path
       style="fill:#3b6996;stroke:none;stroke-width:0.79375;stroke-linecap:square;stroke-miterlimit:7.9"
       d="m 16.841786,49.77472 3.404303,-7.886988 5.000731,-7.728402 6.269418,-6.639449 7.728402,-5.825377 8.574191,-4.165514 8.415607,-2.347066 3.689757,7.13635 9.028806,-0.697777 4.28181,0.613198 3.584033,-6.893186 8.500186,2.516225 6.449145,3.182283 5.159317,3.436021 3.679188,3.023698 5.70908,5.645644 4.55669,6.692313 3.214,6.576012 1.4907,3.753194 -6.67116,1.96646 -1.24754,2.051039 0.97265,8.098436 -0.0423,8.278167 -0.90923,7.76012 1.13125,1.903026 6.81918,2.008751 -2.42108,5.835947 -4.71528,8.20416 -5.74079,6.713455 -5.761945,4.91615 -6.100257,3.8272 -7.834127,3.61575 -6.269416,1.61757 -3.48888,-6.84032 -7.189213,0.6132 -6.057969,-0.60263 -3.679185,7.05177 -10.17062,-2.89682 -7.379515,-3.96464 -5.159317,-3.64747 -6.121402,-5.68794 -4.313526,-5.719649 -4.017501,-6.850896 -2.473935,-6.10026 7.051771,-2.304775 0.88808,-2.251916 -0.993803,-9.134528 0.211447,-8.933653 0.718921,-6.089685 -1.247539,-1.480132 z"
       id="path158" /><ellipse
       style="fill:#1c2c4e;stroke:none;stroke-width:0.793751;stroke-linecap:square;stroke-miterlimit:7.9"
       id="path159"
       cx="66.145836"
       cy="66.145836"
       rx="33.471985"
       ry="33.471981" /><circle
       style="fill:#38fdfa;stroke:none;stroke-width:0.79375;stroke-linecap:square;stroke-miterlimit:7.9"
       id="path160"
       cx="66.145836"
       cy="66.145836"
       r="29.334726" /><circle
       style="fill:#1c2c4e;stroke:none;stroke-width:0.79375;stroke-linecap:square;stroke-miterlimit:7.9"
       id="path161"
       cx="66.145836"
       cy="66.145836"
       r="20.493402" /><circle
       style="fill:#0c182d;stroke:none;stroke-width:0.79375;stroke-linecap:square;stroke-miterlimit:7.9"
       id="path162"
       cx="66.145836"
       cy="66.145836"
       r="11.133458" /><circle
       style="fill:#38fdfa;stroke:none;stroke-width:0.79375;stroke-linecap:square;stroke-miterlimit:7.9"
       id="path163"
       cx="66.145836"
       cy="66.145836"
       r="8.070159" /><circle
       style="fill:#fffeff;stroke:none;stroke-width:0.79375;stroke-linecap:square;stroke-miterlimit:7.9"
       id="path164"
       cx="66.145836"
       cy="66.145836"
       r="7.0465393" /></g><g
     id="layer4"><path
       style="fill:none;stroke:#000000;stroke-width:0.79375;stroke-linecap:square;stroke-miterlimit:7.9"
       d="m 17.553166,39.801133 -12.0210778,5.591894 -3.9173165,15.220717 7.176763,-1.61477 2.8408023,4.036928 -8.0439555,9.419502 1.7343845,17.941906 6.728215,-4.634992 4.096736,2.452061 -3.109931,13.067691 8.103762,12.08088 4.156542,-6.36938 5.352669,0.35884 2.930512,13.72556 12.320108,7.26647 0.328936,-6.93753 5.382572,-2.33245 7.894439,10.70534 14.473139,1.46525 -2.511867,-7.35618 3.678092,-3.49867 11.452918,6.27967 13.815272,-4.7247 -4.93403,-5.32277 1.554967,-4.96393 13.486333,0.86719 10.58573,-10.22688 -6.78802,-2.03342 -0.41865,-5.681603 11.81175,-4.784511 5.5919,-14.742265 -7.62531,1.016706 -2.57167,-2.960412 0.20932,-5.382575 8.85134,-9.000855 -2.45206,-16.117813 -5.6816,3.767799 -5.02374,-2.840803 2.90061,-12.738753 -8.4925,-12.619142 -3.46877,6.339474 -6.10025,-0.358838 L 99.129039,10.555822 85.911834,3.4388657 85.732415,10.615629 80.439553,12.948077 71.797534,1.8240939 57.025362,1.1363208 59.896067,6.997344 56.307688,11.781853 43.658641,5.8012168 30.082598,11.423015 l 4.993831,4.276154 -0.837288,5.711507 -14.413333,0.209323 -9.718534,10.675434 7.116957,2.182934 z"
       id="path1" /><path
       id="path135"
       style="baseline-shift:baseline;display:inline;overflow:visible;opacity:1;vector-effect:none;stroke-linecap:square;stroke-miterlimit:7.9;enable-background:accumulate;stop-color:#000000;stop-opacity:1"
       d="m 115.83014,82.71278 -0.76223,-0.221692 c -6.83333,20.469442 -26.151042,35.220072 -48.921561,35.220072 -22.770858,0 -42.089646,-14.75128 -48.923111,-35.221106 l -0.760677,0.221692 c 6.932686,20.796664 26.560103,35.794194 49.683788,35.794194 23.123183,0 42.750641,-14.99715 49.683791,-35.79316 z" /><path
       id="path147"
       style="baseline-shift:baseline;display:inline;overflow:visible;opacity:1;vector-effect:none;stroke-linecap:square;stroke-miterlimit:7.9;enable-background:accumulate;stop-color:#000000;stop-opacity:1"
       d="m 66.146349,13.787272 c -23.123143,0 -42.750153,14.996743 -49.683271,35.792647 l 0.76016,0.221692 c 6.83379,-20.469752 26.152661,-35.221623 48.923111,-35.221623 22.770892,0 42.089051,14.752297 48.922081,35.222656 l 0.76171,-0.222208 C 108.89718,28.784226 89.269767,13.787272 66.146349,13.787272 Z" /><path
       id="rect5"
       style="fill:none;stroke:#000000;stroke-width:0.79375;stroke-linecap:square;stroke-miterlimit:7.9"
       d="m 76.846642,15.335018 -3.558478,6.854573 c -4.571535,-0.715826 -9.011421,-0.718515 -13.343562,0 l -3.558478,-6.854573 m 20.460518,101.621632 -3.558478,-6.85458 c -4.571535,0.71583 -9.011421,0.71852 -13.343562,0 l -3.558478,6.85458" /><g
       id="g137"><path
         style="fill:none;stroke:#000000;stroke-width:0.79375;stroke-linecap:square;stroke-miterlimit:7.9"
         id="path4"
         d="m 22.265413,57.672283 c 0,0.776582 -0.629544,1.406125 -1.406126,1.406125 -0.776581,0 -1.406125,-0.629543 -1.406125,-1.406125 0,-0.776581 0.629544,-1.406125 1.406125,-1.406125 0.776582,0 1.406126,0.629544 1.406126,1.406125 z m 0,16.947098 c 0,-0.776582 -0.629544,-1.406125 -1.406126,-1.406125 -0.776581,0 -1.406125,0.629543 -1.406125,1.406125 0,0.776581 0.629544,1.406125 1.406125,1.406125 0.776582,0 1.406126,-0.629544 1.406126,-1.406125 z"
         transform="translate(-0.10330802)" /><path
         style="baseline-shift:baseline;display:inline;overflow:visible;opacity:1;vector-effect:none;stroke-linecap:square;stroke-miterlimit:7.9;enable-background:accumulate;stop-color:#000000;stop-opacity:1"
         d="m 14.853516,49.939453 h 2e-6 c -0.899485,-0.261986 -1.777344,0.397123 -1.777344,1.333984 v 29.746094 c 0,0.936861 0.877859,1.59597 1.777344,1.333985 l 7.748046,-2.257813 c 1.057216,-0.307927 1.749994,-1.462113 1.5625,-2.556641 -1.281014,-7.478135 -1.275428,-15.0753 0.01367,-22.783203 0.183065,-1.094599 -0.518821,-2.25258 -1.576172,-2.560547 z m 0.222656,-0.763672 7.748049,2.257813 c 1.467969,0.427564 2.38555,1.953611 2.134765,3.453125 -1.275162,7.624565 -1.277581,15.127894 -0.01172,22.517578 0.25658,1.497831 -0.654942,3.027475 -2.123047,3.455078 l -7.748047,2.255859 C 13.689053,83.51925 12.28125,82.46429 12.28125,81.019531 V 51.273437 c 0,-1.444758 1.407803,-2.501671 2.794922,-2.097656 z"
         id="path134" /></g><g
       id="g143"
       transform="matrix(-1,0,0,1,132.29187,0.00104179)"><path
         style="fill:none;stroke:#000000;stroke-width:0.79375;stroke-linecap:square;stroke-miterlimit:7.9"
         id="path142"
         d="m 22.265413,57.672283 c 0,0.776582 -0.629544,1.406125 -1.406126,1.406125 -0.776581,0 -1.406125,-0.629543 -1.406125,-1.406125 0,-0.776581 0.629544,-1.406125 1.406125,-1.406125 0.776582,0 1.406126,0.629544 1.406126,1.406125 z m 0,16.947098 c 0,-0.776582 -0.629544,-1.406125 -1.406126,-1.406125 -0.776581,0 -1.406125,0.629543 -1.406125,1.406125 0,0.776581 0.629544,1.406125 1.406125,1.406125 0.776582,0 1.406126,-0.629544 1.406126,-1.406125 z"
         transform="translate(-0.10330802)" /><path
         style="baseline-shift:baseline;display:inline;overflow:visible;opacity:1;vector-effect:none;stroke-linecap:square;stroke-miterlimit:7.9;enable-background:accumulate;stop-color:#000000;stop-opacity:1"
         d="m 14.853516,49.939453 h 2e-6 c -0.899485,-0.261986 -1.777344,0.397123 -1.777344,1.333984 v 29.746094 c 0,0.936861 0.877859,1.59597 1.777344,1.333985 l 7.748046,-2.257813 c 1.057216,-0.307927 1.749994,-1.462113 1.5625,-2.556641 -1.281014,-7.478135 -1.275428,-15.0753 0.01367,-22.783203 0.183065,-1.094599 -0.518821,-2.25258 -1.576172,-2.560547 z m 0.222656,-0.763672 7.748049,2.257813 c 1.467969,0.427564 2.38555,1.953611 2.134765,3.453125 -1.275162,7.624565 -1.277581,15.127894 -0.01172,22.517578 0.25658,1.497831 -0.654942,3.027475 -2.123047,3.455078 l -7.748047,2.255859 C 13.689053,83.51925 12.28125,82.46429 12.28125,81.019531 V 51.273437 c 0,-1.444758 1.407803,-2.501671 2.794922,-2.097656 z"
         id="path143" /></g><circle
       style="fill:none;stroke:#000000;stroke-width:0.79375;stroke-linecap:square;stroke-miterlimit:7.9"
       id="path150"
       cx="66.145935"
       cy="66.145836"
       r="33.811306" /><circle
       style="fill:none;stroke:#000000;stroke-width:0.79375;stroke-linecap:square;stroke-miterlimit:7.9"
       id="path151"
       cx="66.145836"
       cy="66.145836"
       r="29.856375" /><circle
       style="fill:none;stroke:#000000;stroke-width:0.793749;stroke-linecap:square;stroke-miterlimit:7.9"
       id="path152"
       cx="66.145836"
       cy="66.145836"
       r="20.697023" /></g></svg>
