<?xml version="1.0" encoding="UTF-8" standalone="no"?>
<!-- Created with Inkscape (http://www.inkscape.org/) -->

<svg
   width="500"
   height="500"
   viewBox="0 0 132.29166 132.29167"
   version="1.1"
   id="svg1"
   xml:space="preserve"
   xmlns="http://www.w3.org/2000/svg"
   xmlns:svg="http://www.w3.org/2000/svg"><defs
     id="defs1" /><g
     id="layer1"
     style="display:inline"><path
       style="baseline-shift:baseline;display:inline;overflow:visible;opacity:1;vector-effect:none;fill:#66a6d5;stroke-width:0.818238;stroke-linecap:square;stroke-miterlimit:7.9;enable-background:accumulate;stop-color:#000000;stop-opacity:1"
       d="m 48.861797,84.685799 h 34.568074 l 2.511867,3.229543 c -0.334653,1.668567 -1.0922,2.745081 -2.272642,3.229543 H 48.622572 C 47.413937,90.491265 46.65639,89.414751 46.34993,87.915342 Z m -2.478054,3.384745 -21.793484,10e-7 A 12.170833,12.170833 0 0 1 12.419426,75.899712 V 56.391952 A 12.170833,12.170833 0 0 1 24.590259,44.221119 v 0 h 83.111151 a 12.170833,12.170833 0 0 1 12.17083,12.170833 v 19.50776 a 12.170833,12.170833 0 0 1 -12.17083,12.170833 l -21.792458,-3e-6"
       id="path29"
       transform="matrix(1.222138,0,0,-1.222138,-14.694305,116.08506)" /><path
       style="fill:#38fdfa;stroke:none;stroke-width:0.649477;stroke-linecap:square;stroke-miterlimit:7.9"
       d="m 23.152537,56.987984 0.04485,3.154786 18.315696,-0.08971 5.584421,-9.195228 -3.207116,-6.63103 -3.334205,-0.02244 2.676335,7.027248 -3.737898,5.70403 z"
       id="path1"
       transform="matrix(1.222138,0,0,-1.222138,-14.694305,116.08506)" /><path
       style="fill:#38fdfa;stroke:none;stroke-width:0.649477;stroke-linecap:square;stroke-miterlimit:7.9"
       d="m 23.164064,71.913265 17.941311,0.06343 5.973389,9.46227 -2.822821,6.59716 -3.732048,0.03172 2.717099,-7.083489 -3.700328,-5.613926 -16.429464,0.04229 z"
       id="path22"
       transform="matrix(1.222138,0,0,-1.222138,-14.694305,116.08506)" /><path
       style="fill:#38fdfa;stroke:none;stroke-width:0.649477;stroke-linecap:square;stroke-miterlimit:7.9"
       d="m 88.244282,88.005056 -2.960415,-6.638504 6.100249,-9.569018 17.941904,0.0299 0.0299,3.558479 -16.656075,-0.08971 -3.58838,5.532088 2.601576,7.266472 z"
       id="path23"
       transform="matrix(1.222138,0,0,-1.222138,-14.694305,116.08506)" /><path
       style="display:inline;fill:#38fdfa;stroke:none;stroke-width:0.649477;stroke-linecap:square;stroke-miterlimit:7.9"
       d="m 88.573217,44.211851 -3.28935,6.832877 5.621798,9.284936 18.435305,-0.04485 0.0449,-3.334205 -16.64112,0.119613 -3.648187,-5.756362 2.556722,-7.027246 z"
       id="path24"
       transform="matrix(1.222138,0,0,-1.222138,-14.694305,116.08506)" /><path
       style="fill:#d9e9f2;stroke:none;stroke-width:0.649477;stroke-linecap:square;stroke-miterlimit:7.9"
       d="m 91.638293,44.331463 -2.556721,6.907634 3.812654,5.905878 16.297234,-0.119613 9.67368,-5.487233 -2.60158,-3.977122 -3.58838,-2.272641 -4.12664,-1.001757 z"
       id="path25"
       transform="matrix(1.222138,0,0,-1.222138,-14.694305,116.08506)" /><path
       style="fill:#d9e9f2;stroke:none;stroke-width:0.649477;stroke-linecap:square;stroke-miterlimit:7.9"
       d="m 92.804267,75.201271 -3.742618,5.783085 2.653665,7.020055 h 18.047036 l 4.69413,-1.913599 3.64747,-3.7109 0.70138,-1.611424 -9.4494,-5.412475 z"
       id="path26"
       transform="matrix(1.222138,0,0,-1.222138,-14.694305,116.08506)" /><path
       style="fill:#d9e9f2;stroke:none;stroke-width:0.649477;stroke-linecap:square;stroke-miterlimit:7.9"
       d="m 13.490345,80.942068 9.599712,-5.476489 16.556332,-0.04229 3.61575,5.66679 -2.68538,7.020055 -17.592426,-0.105725 -4.355816,-1.437841 -3.277435,-2.579659 z"
       id="path27"
       transform="matrix(1.222138,0,0,-1.222138,-14.694305,116.08506)" /><path
       style="fill:#d9e9f2;stroke:none;stroke-width:0.649477;stroke-linecap:square;stroke-miterlimit:7.9"
       d="m 13.441479,51.343758 9.77834,5.591894 16.282282,-0.0299 3.707992,-5.561991 -2.601576,-7.191714 -18.016665,0.194371 -4.126639,1.360593 -3.394011,2.870706 z"
       id="path28"
       transform="matrix(1.222138,0,0,-1.222138,-14.694305,116.08506)" /><circle
       style="fill:#97bdcf;stroke:none;stroke-width:0.649477;stroke-linecap:square;stroke-miterlimit:7.9"
       id="path31"
       cx="38.108109"
       cy="54.548149"
       r="0.999089"
       transform="matrix(1.222138,0,0,-1.222138,-14.694305,116.08506)" /><circle
       style="fill:#97bdcf;stroke:none;stroke-width:0.649477;stroke-linecap:square;stroke-miterlimit:7.9"
       id="circle31"
       cx="37.981239"
       cy="77.807365"
       r="0.999089"
       transform="matrix(1.222138,0,0,-1.222138,-14.694305,116.08506)" /><circle
       style="fill:#97bdcf;stroke:none;stroke-width:0.649477;stroke-linecap:square;stroke-miterlimit:7.9"
       id="circle32"
       cx="94.22625"
       cy="77.976524"
       r="0.999089"
       transform="matrix(1.222138,0,0,-1.222138,-14.694305,116.08506)" /><circle
       style="fill:#97bdcf;stroke:none;stroke-width:0.649477;stroke-linecap:square;stroke-miterlimit:7.9"
       id="circle33"
       cx="94.268539"
       cy="54.505863"
       r="0.999089"
       transform="matrix(1.222138,0,0,-1.222138,-14.694305,116.08506)" /><circle
       style="fill:#1c2c4e;stroke:none;stroke-width:0.649477;stroke-linecap:square;stroke-miterlimit:7.9"
       id="path39"
       cx="66.140747"
       cy="66.183037"
       r="11.291291"
       transform="matrix(1.222138,0,0,-1.222138,-14.694305,116.08506)" /><circle
       style="fill:#97bdcf;stroke:none;stroke-width:0.649477;stroke-linecap:square;stroke-miterlimit:7.9"
       id="circle34"
       cx="50.178127"
       cy="87.706116"
       r="0.999089"
       transform="matrix(1.222138,0,0,-1.222138,-14.694305,116.08506)" /><circle
       style="fill:#97bdcf;stroke:none;stroke-width:0.649477;stroke-linecap:square;stroke-miterlimit:7.9"
       id="circle35"
       cx="82.189476"
       cy="87.750969"
       r="0.999089"
       transform="matrix(1.222138,0,0,-1.222138,-14.694305,116.08506)" /><circle
       style="fill:#38fdfa;stroke:none;stroke-width:0.649477;stroke-linecap:square;stroke-miterlimit:7.9"
       id="path35"
       cx="66.140747"
       cy="66.140747"
       r="8.3310318"
       transform="matrix(1.222138,0,0,-1.222138,-14.694305,116.08506)" /><circle
       style="fill:#0c182d;stroke:none;stroke-width:0.649477;stroke-linecap:square;stroke-miterlimit:7.9"
       id="path36"
       cx="66.140747"
       cy="66.140747"
       r="6.4280009"
       transform="matrix(1.222138,0,0,-1.222138,-14.694305,116.08506)" /><circle
       style="fill:#38fdfa;stroke:none;stroke-width:0.649477;stroke-linecap:square;stroke-miterlimit:7.9"
       id="path37"
       cx="66.140747"
       cy="66.140747"
       r="5.2928624"
       transform="matrix(1.222138,0,0,-1.222138,-14.694305,116.08506)" /><circle
       style="fill:#fffeff;stroke:none;stroke-width:0.649477;stroke-linecap:square;stroke-miterlimit:7.9"
       id="path38"
       cx="66.140747"
       cy="66.140747"
       r="4.8399954"
       transform="matrix(1.222138,0,0,-1.222138,-14.694305,116.08506)" /><path
       style="fill:#3b6996;stroke:none;stroke-width:0.649477;stroke-linecap:square;stroke-miterlimit:7.9"
       d="m 12.411962,56.033562 c 1.050823,-0.921182 1.963532,-1.796327 3.932923,-3.023698 l -2.748817,-1.649289 z"
       id="path40"
       transform="matrix(1.222138,0,0,-1.222138,-14.694305,116.08506)" /><path
       style="fill:#97bdcf;stroke:none;stroke-width:0.649477;stroke-linecap:square;stroke-miterlimit:7.9"
       d="m 16.32374,53.031011 c 1.700905,-2.311477 3.871452,-4.335217 6.724028,-5.835949 h 18.64966 l -1.141815,-3.087132 -18.121043,0.148013 -3.467738,1.268683 -3.383158,2.558515 -2.220198,3.425447 z"
       id="path41"
       transform="matrix(1.222138,0,0,-1.222138,-14.694305,116.08506)" /><path
       style="fill:#3b6996;stroke:none;stroke-width:0.649477;stroke-linecap:square;stroke-miterlimit:7.9"
       d="M 45.101732,47.173917 H 87.078057 L 88.53303,44.234798 43.685033,44.213658 Z"
       id="path42"
       transform="matrix(1.222138,0,0,-1.222138,-14.694305,116.08506)" /><path
       style="fill:#375b87;stroke:none;stroke-width:0.649477;stroke-linecap:square;stroke-miterlimit:7.9"
       d="m 46.476142,88.596464 h 35.057979 l 0.888079,0.338317 0.930368,-0.761212 -0.04229,-0.84579 c 1.380661,-0.390155 1.87182,-1.573994 3.405807,-2.290445 l 1.499772,2.967077 -2.199053,-0.04229 -1.268685,2.537368 -1.480132,0.676632 H 48.590615 l -1.395553,-1.226394 z"
       id="path43"
       transform="matrix(1.222138,0,0,-1.222138,-14.694305,116.08506)" /><path
       style="fill:#909eb1;stroke:none;stroke-width:0.649477;stroke-linecap:square;stroke-miterlimit:7.9"
       d="M 90.584069,85.001858 H 108.98 c 2.44357,-1.352821 4.89693,-2.631324 7.14692,-5.455343 l 2.45279,1.395553 -1.73387,3.129423 -3.38316,2.706526 -2.91798,1.057238 -2.45278,0.126867 H 91.556728 Z"
       id="path44"
       transform="matrix(1.222138,0,0,-1.222138,-14.694305,116.08506)" /><path
       style="fill:#375b87;stroke:none;stroke-width:0.649477;stroke-linecap:square;stroke-miterlimit:7.9"
       d="m 116.14399,79.427341 c 0.9023,-0.762675 2.18577,-2.009083 3.53524,-2.798799 l -0.3806,3.340867 -0.67663,0.88808 z"
       id="path45"
       transform="matrix(1.222138,0,0,-1.222138,-14.694305,116.08506)" /><path
       style="fill:none;stroke:#000000;stroke-width:0.79375;stroke-linecap:square;stroke-miterlimit:7.9"
       d="m 9.2849371,60.748309 4.4929529,1.292442 7.565504,0.02048 0.04789,8.2104 -2.428328,4.977637 -3.4003,7.112059 L 9.0076646,67.79004 Z"
       id="path55" /><path
       style="fill:#909eb1;stroke:none;stroke-width:0.79375;stroke-linecap:square;stroke-miterlimit:7.9"
       d="m 9.2849371,60.748309 -0.2772725,7.041732 6.5549914,14.571286 5.828628,-12.089696 5.342157,13.666594 7.715023,-14.443236 7.087052,17.463455 7.475794,-16.715875 6.218754,16.493157 5.497631,-9.853449 5.418137,12.498327 5.711508,-12.738756 5.08354,9.658728 6.66841,-15.101107 7.439964,15.536257 7.062343,-17.211818 7.654393,13.997818 5.75137,-14.040106 5.5835,12.901639 6.27967,-14.054495 0.24626,-7.879972 -3.98417,1.42475 h -6.13015 -99.338363 z"
       id="path57" /><path
       style="fill:#38fdfa;stroke:none;stroke-width:0.79375;stroke-linecap:square;stroke-miterlimit:7.9"
       d="m 58.326152,62.049868 -0.01495,5.531318 7.918762,12.768657 7.989728,-13.63585 -0.05981,-4.664125 z"
       id="path58" /><path
       style="fill:#375b87;stroke:none;stroke-width:0.79375;stroke-linecap:square;stroke-miterlimit:7.9"
       d="m 64.057992,2.4527899 -1.051994,2.2406427 h 6.548798 L 68.32923,2.4527899 Z"
       id="path59" /><path
       style="fill:#1c2c4e;stroke:none;stroke-width:0.79375;stroke-linecap:square;stroke-miterlimit:7.9"
       d="m 65.225434,-5.9056322e-4 1.927442,0.003425273 -0.0053,2.44995519 H 65.22632 Z"
       id="path60" /></g><g
     id="layer4"><path
       style="baseline-shift:baseline;display:inline;overflow:visible;opacity:1;vector-effect:none;stroke-width:0.818238;stroke-linecap:square;stroke-miterlimit:7.9;enable-background:accumulate;stop-color:#000000;stop-opacity:1"
       d="m 24.589844,43.824219 c -6.936253,0 -12.566406,5.632107 -12.566406,12.568359 v 19.507813 c 0,6.936252 5.630153,12.566406 12.566406,12.566406 h 21.568359 c 0.391061,1.329192 1.116037,2.400375 2.275391,3.027344 l 0.08789,0.04687 h 35.226563 l 0.07227,-0.0293 c 1.175656,-0.482498 1.911074,-1.583433 2.31836,-3.044922 h 21.562503 c 6.93625,-2e-6 12.56836,-5.630155 12.56836,-12.566406 V 56.392578 c 0,-6.936251 -5.63211,-12.568358 -12.56836,-12.568359 z m 0,0.792968 h 83.111326 c 6.50728,2e-6 11.77344,5.268114 11.77344,11.775391 v 19.507813 c 0,6.507277 -5.26616,11.773436 -11.77344,11.773437 H 86.257812 L 83.623047,84.289062 H 48.667969 l -2.632813,3.384766 H 24.589844 c -6.507279,0 -11.773438,-5.266159 -11.773438,-11.773437 V 56.392578 c 0,-6.507278 5.266159,-11.775391 11.773438,-11.775391 z m 24.466797,40.464844 h 34.179687 l 2.257813,2.904297 c -0.32754,1.454189 -0.960664,2.342441 -1.939454,2.761719 H 48.757812 C 47.732689,90.17195 47.099664,89.272255 46.798828,87.984375 Z"
       id="path30"
       transform="matrix(1.222138,0,0,-1.222138,-14.694305,116.08506)" /><g
       id="g5"
       transform="matrix(1.222138,0,0,-1.222138,-14.694305,116.17295)"
       style="display:inline;stroke-width:0.818238"><path
         style="fill:none;stroke:#000000;stroke-width:0.649477;stroke-linecap:square;stroke-miterlimit:7.9"
         d="m 13.621565,51.49708 9.37398,5.498379 h 16.536459 l 3.765619,-5.634884 -2.67672,-6.943867 m -26.999338,36.52171 9.37398,-5.498379 h 16.536459 l 3.765619,5.634884 -2.67672,6.943867"
         id="path3" /><path
         style="fill:none;stroke:#000000;stroke-width:0.649477;stroke-linecap:square;stroke-miterlimit:7.9"
         d="m 21.508318,44.955397 4.75345,6.405178 -3.266223,5.634884 m -1.487227,30.484642 4.75345,-6.405178 -3.266223,-5.634884"
         id="path4" /><path
         style="fill:none;stroke:#000000;stroke-width:0.649477;stroke-linecap:square;stroke-miterlimit:7.9"
         d="m 26.261768,51.360575 16.512549,-0.01495 m -16.512549,29.729298 16.512549,0.01495"
         id="path5" /><path
         style="fill:none;stroke:#000000;stroke-width:0.64951;stroke-linecap:square;stroke-miterlimit:7.9"
         id="path6"
         d="m 39.202939,54.498493 c 0,0.619288 -0.502025,1.12132 -1.121304,1.12132 -0.61928,0 -1.121305,-0.502032 -1.121305,-1.12132 0,-0.619288 0.502025,-1.121319 1.121305,-1.121319 0.619279,0 1.121304,0.502031 1.121304,1.121319 z m 0,23.174636 c 0,-0.619288 -0.502025,-1.12132 -1.121304,-1.12132 -0.61928,0 -1.121305,0.502032 -1.121305,1.12132 0,0.619288 0.502025,1.121319 1.121305,1.121319 0.619279,0 1.121304,-0.502031 1.121304,-1.121319 z m 0,0 c 0,-0.619288 -0.502025,-1.12132 -1.121304,-1.12132 -0.61928,0 -1.121305,0.502032 -1.121305,1.12132 0,0.619288 0.502025,1.121319 1.121305,1.121319 0.619279,0 1.121304,-0.502031 1.121304,-1.121319 z m 0,-23.174636 c 0,0.619288 -0.502025,1.12132 -1.121304,1.12132 -0.61928,0 -1.121305,-0.502032 -1.121305,-1.12132 0,-0.619288 0.502025,-1.121319 1.121305,-1.121319 0.619279,0 1.121304,0.502031 1.121304,1.121319 z"
         transform="translate(0,0.131938)" /></g><g
       id="g10"
       transform="matrix(-1.222138,0,0,-1.222138,146.98433,116.17299)"
       style="display:inline;stroke-width:0.818238"><path
         style="fill:none;stroke:#000000;stroke-width:0.649477;stroke-linecap:square;stroke-miterlimit:7.9"
         d="m 13.686281,51.5681 9.331691,5.498379 h 16.536459 l 3.765619,-5.634884 -2.684649,-6.959726 m -26.94912,36.395529 9.331691,-5.498379 h 16.536459 l 3.765619,5.634884 -2.684649,6.959726"
         id="path7" /><path
         style="fill:none;stroke:#000000;stroke-width:0.649477;stroke-linecap:square;stroke-miterlimit:7.9"
         d="m 21.426084,44.884377 4.835684,6.476198 -3.266223,5.634884 m -1.569461,30.555662 4.835684,-6.476198 -3.266223,-5.634884"
         id="path8" /><path
         style="fill:none;stroke:#000000;stroke-width:0.649477;stroke-linecap:square;stroke-miterlimit:7.9"
         d="m 26.261768,51.360575 16.829694,-0.0053 m -16.829694,29.719648 16.829694,0.0053"
         id="path9" /><path
         style="fill:none;stroke:#000000;stroke-width:0.649477;stroke-linecap:square;stroke-miterlimit:7.9"
         id="path10"
         d="m 39.203069,54.498543 c 0,0.619315 -0.502054,1.121369 -1.12137,1.121369 -0.619315,0 -1.121369,-0.502054 -1.121369,-1.121369 0,-0.619315 0.502054,-1.121369 1.121369,-1.121369 0.619316,0 1.12137,0.502054 1.12137,1.121369 z m 0,23.438412 c 0,-0.619315 -0.502054,-1.121369 -1.12137,-1.121369 -0.619315,0 -1.121369,0.502054 -1.121369,1.121369 0,0.619315 0.502054,1.121369 1.121369,1.121369 0.619316,0 1.12137,-0.502054 1.12137,-1.121369 z" /></g><path
       style="display:inline;fill:none;stroke:#000000;stroke-width:0.649477;stroke-linecap:square;stroke-miterlimit:7.9"
       d="m 23.026623,75.402145 0.04368,-3.496965 h 17.976459 l 6.000287,9.512646 -2.918506,6.471884"
       id="path11"
       transform="matrix(1.222138,0,0,-1.222138,-14.694305,116.08506)" /><path
       style="display:inline;fill:none;stroke:#000000;stroke-width:0.649477;stroke-linecap:square;stroke-miterlimit:7.9"
       d="m 23.070303,56.81604 v 3.310238 h 18.403023 l 5.624182,-9.201162 -3.239961,-6.506352"
       id="path12"
       transform="matrix(1.222138,0,0,-1.222138,-14.694305,116.08506)" /><path
       style="display:inline;fill:none;stroke:#000000;stroke-width:0.649477;stroke-linecap:square;stroke-miterlimit:7.9"
       d="m 23.070303,59.238199 v 14.102334 h -0.04368"
       id="path13"
       transform="matrix(1.222138,0,0,-1.222138,-14.694305,116.08506)" /><path
       style="display:inline;fill:none;stroke:#000000;stroke-width:0.649477;stroke-linecap:square;stroke-miterlimit:7.9"
       d="M 47.097508,50.925116 85.26889,51.032584"
       id="path14"
       transform="matrix(1.222138,0,0,-1.222138,-14.694305,116.08506)" /><path
       style="display:inline;fill:none;stroke:#000000;stroke-width:0.649477;stroke-linecap:square;stroke-miterlimit:7.9"
       d="m 47.047049,81.417826 38.22862,-0.03406"
       id="path15"
       transform="matrix(1.222138,0,0,-1.222138,-14.694305,116.08506)" /><path
       style="display:inline;fill:none;stroke:#000000;stroke-width:0.649477;stroke-linecap:square;stroke-miterlimit:7.9"
       d="m 109.2961,56.923508 v 18.44458"
       id="path16"
       transform="matrix(1.222138,0,0,-1.222138,-14.694305,116.08506)" /><path
       style="display:inline;fill:none;stroke:#000000;stroke-width:0.649477;stroke-linecap:square;stroke-miterlimit:7.9"
       d="m 109.29609,56.923508 v 3.310238 H 90.893072 l -5.624182,-9.201162 3.319254,-6.638507"
       id="path17"
       transform="matrix(1.222138,0,0,-1.222138,-14.694305,116.08506)" /><path
       style="display:inline;fill:none;stroke:#000000;stroke-width:0.649477;stroke-linecap:square;stroke-miterlimit:7.9"
       d="m 109.29609,75.368088 -0.0437,-3.496965 H 91.275956 l -6.000287,9.512646 2.944406,6.544297"
       id="path18"
       transform="matrix(1.222138,0,0,-1.222138,-14.694305,116.08506)" /><path
       style="display:inline;fill:none;stroke:#000000;stroke-width:0.649477;stroke-linecap:square;stroke-miterlimit:7.9"
       id="path19"
       d="m 51.283822,87.720909 c 0,0.619279 -0.502025,1.121304 -1.121304,1.121304 -0.61928,0 -1.121305,-0.502025 -1.121305,-1.121304 0,-0.619279 0.502025,-1.121304 1.121305,-1.121304 0.619279,0 1.121304,0.502025 1.121304,1.121304 z m 29.843374,0 c 0,0.619279 0.502025,1.121304 1.121304,1.121304 0.61928,0 1.121305,-0.502025 1.121305,-1.121304 0,-0.619279 -0.502025,-1.121304 -1.121305,-1.121304 -0.619279,0 -1.121304,0.502025 -1.121304,1.121304 z"
       transform="matrix(1.222138,0,0,-1.222138,-14.767238,116.08506)" /><circle
       style="display:inline;fill:none;stroke:#000000;stroke-width:0.649477;stroke-linecap:square;stroke-miterlimit:7.9"
       id="path20"
       cx="66.145836"
       cy="66.145836"
       r="11.611302"
       transform="matrix(1.222138,0,0,-1.222138,-14.694305,116.08506)" /><circle
       style="display:inline;fill:none;stroke:#000000;stroke-width:0.649477;stroke-linecap:square;stroke-miterlimit:7.9"
       id="path21"
       cx="66.145836"
       cy="66.145836"
       r="8.0718002"
       transform="matrix(1.222138,0,0,-1.222138,-14.694305,116.08506)" /><path
       style="fill:none;stroke:#000000;stroke-width:0.79375;stroke-linecap:square;stroke-miterlimit:7.9"
       d="m 62.985272,4.5305719 1.07272,-2.077782 h 4.271238 l 1.219451,2.1328336"
       id="path2" /><path
       style="fill:none;stroke:#000000;stroke-width:0.79375;stroke-linecap:square;stroke-miterlimit:7.9"
       d="m 65.224535,0.39663171 0.0018,2.05615819"
       id="path32" /><path
       style="fill:none;stroke:#000000;stroke-width:0.79375;stroke-linecap:square;stroke-miterlimit:7.9"
       d="M 67.158162,0.40175008 67.14759,2.4527899"
       id="path33" /><path
       style="fill:none;stroke:#000000;stroke-width:0.79375;stroke-linecap:square;stroke-miterlimit:7.9"
       d="M 9.2849371,60.748309 9.0076596,67.790038 15.647108,82.549068 21.313899,70.07367 V 62.525817"
       id="path34" /><path
       style="fill:none;stroke:#000000;stroke-width:0.79375;stroke-linecap:square;stroke-miterlimit:7.9"
       d="m 21.313899,70.07367 5.419542,13.864555 7.715023,-14.443236 v -6.969172"
       id="path46" /><path
       style="fill:none;stroke:#000000;stroke-width:0.79375;stroke-linecap:square;stroke-miterlimit:7.9"
       d="M 34.448464,69.494989 41.535516,86.958444 49.01131,70.242569 V 62.525817"
       id="path47" /><path
       style="fill:none;stroke:#000000;stroke-width:0.79375;stroke-linecap:square;stroke-miterlimit:7.9"
       d="m 49.01131,70.242569 6.218754,16.493157 5.497631,-9.853449 0.037,-4.989001"
       id="path48" /><path
       style="fill:none;stroke:#000000;stroke-width:0.79375;stroke-linecap:square;stroke-miterlimit:7.9"
       d="m 60.727695,76.882277 5.418137,12.498327 5.711508,-12.738756 0.03763,-5.639266"
       id="path49" /><path
       style="fill:none;stroke:#000000;stroke-width:0.79375;stroke-linecap:square;stroke-miterlimit:7.9"
       d="m 71.85734,76.641848 5.08354,9.658728 6.66841,-15.101107 v -8.673652"
       id="path50" /><path
       style="fill:none;stroke:#000000;stroke-width:0.79375;stroke-linecap:square;stroke-miterlimit:7.9"
       d="m 83.60929,71.199469 7.439964,15.536257 7.062343,-17.211818 v -6.998091"
       id="path51" /><path
       style="fill:none;stroke:#000000;stroke-width:0.79375;stroke-linecap:square;stroke-miterlimit:7.9"
       d="m 98.111597,69.523908 7.654393,13.997818 5.75137,-14.040106 v -6.955803"
       id="path52" /><path
       style="fill:none;stroke:#000000;stroke-width:0.79375;stroke-linecap:square;stroke-miterlimit:7.9"
       d="m 123.41123,61.093926 -0.0307,7.234838 -6.27967,14.054495 -5.58349,-12.901639"
       id="path53" /><path
       style="fill:none;stroke:#000000;stroke-width:0.79375;stroke-linecap:square;stroke-miterlimit:7.9"
       d="m 58.3112,62.525817 v 5.055369 l 7.918762,12.768657 7.989729,-13.63585 v -4.188176"
       id="path54" /></g></svg>
