<?xml version="1.0" encoding="UTF-8" standalone="no"?>
<!-- Created with Inkscape (http://www.inkscape.org/) -->

<svg
   width="500"
   height="500"
   viewBox="0 0 132.29166 132.29167"
   version="1.1"
   id="svg1"
   xml:space="preserve"
   xmlns="http://www.w3.org/2000/svg"
   xmlns:svg="http://www.w3.org/2000/svg"><defs
     id="defs1" /><g
     id="layer1"><path
       style="baseline-shift:baseline;display:inline;overflow:visible;opacity:1;vector-effect:none;fill:#66a6d5;stroke-linecap:square;stroke-miterlimit:7.9;enable-background:accumulate;stop-color:#000000;stop-opacity:1"
       d="M 7.6253106,51.732499 C 9.3928854,49.556261 10.91205,47.304612 14.831977,45.781766 h 45.06409 c 2.402223,2.258862 4.804445,5.396939 7.206668,9.120471 l 11.751948,0.83729 c 0.672426,0.07515 0.937302,0.557856 1.166225,1.076513 l 37.199552,1.674579 c 0.30101,0.281188 0.61907,0.408973 0.86719,1.166223 l 3.10994,0.0299 c 0.26291,0.44026 0.34941,0.645309 0.44854,0.867193 l 2.48197,0.08971 c 1.39447,0.204046 1.7799,8.916769 0,10.226886 h -2.12313 c -0.25165,0.483494 -0.43402,1.105565 -0.89709,1.166225 l -2.66139,-0.08971 c -0.50707,0.751763 -0.88657,0.929504 -1.28583,1.196125 l -36.810817,1.255935 c -0.335417,0.388742 -0.642226,0.777483 -1.525064,1.166225 l -11.662237,0.687771 c -2.989569,4.390536 -5.726907,7.519922 -8.380161,10.228884 H 14.218962 C 11.168029,84.502478 8.9180246,82.065297 7.4458916,79.183618 6.1159158,71.128657 5.3996737,60.935709 7.6253106,51.732499 Z"
       id="path17" /><path
       style="fill:#d9e9f2;stroke:none;stroke-width:0.79375;stroke-linecap:square;stroke-miterlimit:7.9;stroke-dasharray:none"
       d="m 7.6613601,51.720109 7.4360259,5.182685 14.10117,-0.130456 4.613421,-5.277561 -2.443096,-5.645214 H 14.860192 l -3.972996,2.217762 z"
       id="path19" /><path
       style="fill:#38fdfa;stroke:none;stroke-width:0.79375;stroke-linecap:square;stroke-miterlimit:7.9;stroke-dasharray:none"
       d="m 15.132965,56.819775 14.17233,-0.07116 4.482962,-5.289423 -2.371937,-5.621493 2.609131,-0.0593 2.810748,6.09588 -6.119601,7.127674 -15.761529,0.07116 z"
       id="path20" /><path
       style="fill:#38fdfa;stroke:none;stroke-width:0.79375;stroke-linecap:square;stroke-miterlimit:7.9;stroke-dasharray:none"
       d="m 14.952358,72.472396 15.606472,-0.109019 6.507588,7.43844 -3.195092,6.725626 H 30.860727 L 33.67006,79.801817 29.460256,74.602455 15.019447,74.55214 Z"
       id="path21" /><path
       style="fill:#d9e9f2;stroke:none;stroke-width:0.79375;stroke-linecap:square;stroke-miterlimit:7.9;stroke-dasharray:none"
       d="m 7.6613601,79.459925 7.2344109,-4.743876 14.682296,-0.04744 4.269488,5.241983 -2.870043,6.712585 -16.745883,-0.166034 -4.032295,-3.320714 z"
       id="path22" /><ellipse
       style="fill:#97bdcf;stroke:none;stroke-width:0.79375;stroke-linecap:square;stroke-miterlimit:7.9;stroke-dasharray:none"
       id="path23"
       cx="28.629292"
       cy="77.538651"
       rx="0.90133643"
       ry="0.87761706" /><ellipse
       style="fill:#97bdcf;stroke:none;stroke-width:0.79375;stroke-linecap:square;stroke-miterlimit:7.9;stroke-dasharray:none"
       id="path24"
       cx="28.486977"
       cy="53.878574"
       rx="0.78273952"
       ry="0.91319615" /><path
       style="fill:#38fdfa;stroke:none;stroke-width:0.79375;stroke-linecap:square;stroke-miterlimit:7.9;stroke-dasharray:none"
       d="m 79.986311,60.748674 -0.01677,10.163913 8.134485,-3.304111 22.541754,-0.117404 0.0168,-3.622783 -22.592075,-0.100632 z"
       id="path25" /><circle
       style="fill:#1c2c4e;stroke:none;stroke-width:0.79375;stroke-linecap:square;stroke-miterlimit:7.9;stroke-dasharray:none"
       id="path26"
       cx="51.210144"
       cy="66.153351"
       r="9.9964056" /><circle
       style="fill:#38fdfa;stroke:none;stroke-width:0.79375;stroke-linecap:square;stroke-miterlimit:7.9;stroke-dasharray:none"
       id="path27"
       cx="51.376179"
       cy="66.319389"
       r="7.3513069" /><circle
       style="fill:#0c182d;stroke:none;stroke-width:0.79375;stroke-linecap:square;stroke-miterlimit:7.9;stroke-dasharray:none"
       id="path28"
       cx="51.376179"
       cy="66.319389"
       r="6.0177383" /><circle
       style="fill:#38fdfa;stroke:none;stroke-width:0.79375;stroke-linecap:square;stroke-miterlimit:7.9;stroke-dasharray:none"
       id="path29"
       cx="51.376179"
       cy="66.319389"
       r="5.3945994" /><circle
       style="fill:#fffeff;stroke:none;stroke-width:0.79375;stroke-linecap:square;stroke-miterlimit:7.9;stroke-dasharray:none"
       id="path30"
       cx="51.376179"
       cy="66.319389"
       r="5.0948896" /><path
       style="fill:#3b6996;stroke:none;stroke-width:0.79375;stroke-linecap:square;stroke-miterlimit:7.9;stroke-dasharray:none"
       d="M 6.9260592,55.479632 9.464033,53.131412 7.7562376,51.70825 Z"
       id="path33" /><path
       style="fill:#97bdcf;stroke:none;stroke-width:0.79375;stroke-linecap:square;stroke-miterlimit:7.9;stroke-dasharray:none"
       d="M 9.6300686,52.894219 15.678511,47.841992 H 32.329516 L 31.380742,45.707247 H 14.800894 l -3.984856,2.348219 -3.0835198,3.581625 z"
       id="path34" /><path
       style="fill:#3b6996;stroke:none;stroke-width:0.79375;stroke-linecap:square;stroke-miterlimit:7.9;stroke-dasharray:none"
       d="M 34.86749,47.794552 H 61.694109 L 59.867717,45.636089 H 33.823838 Z"
       id="path35" /><path
       style="fill:#375b87;stroke:none;stroke-width:0.79375;stroke-linecap:square;stroke-miterlimit:7.9;stroke-dasharray:none"
       d="m 55.951842,86.544215 10.465813,-13.21644 13.350618,-0.46962 0.184494,-0.335444 38.055973,-1.81139 0.11378,-0.525674 3.65278,0.02373 0.0949,-0.569264 2.91748,0.04744 -0.6167,1.257128 -2.34822,-0.02373 -0.47439,1.185968 -3.20211,-0.142314 -0.99622,1.328285 -37.002231,1.138529 -1.399445,1.280847 -11.527618,0.592985 -8.372943,10.199332 z"
       id="path36" /></g><g
     id="layer4"><path
       style="baseline-shift:baseline;display:inline;overflow:visible;opacity:1;vector-effect:none;stroke-linecap:square;stroke-miterlimit:7.9;enable-background:accumulate;stop-color:#000000;stop-opacity:1"
       d="m 14.757813,45.384766 -0.07031,0.02734 c -4.010753,1.558131 -5.6178201,3.911682 -7.3710938,6.070313 l -0.056641,0.07031 -0.019531,0.08594 C 4.9942876,60.925865 5.7196759,71.162587 7.0546875,79.248047 l 0.00977,0.06055 0.027344,0.05469 c 1.505422,2.946842 3.8111395,5.439199 6.9121095,7.451172 l 0.09766,0.06445 h 44.847656 l 0.117187,-0.11914 c 2.627655,-2.682825 5.347598,-5.807538 8.302735,-10.123047 l 11.550781,-0.679688 0.06445,-0.0293 c 0.84282,-0.371121 1.18091,-0.779863 1.492187,-1.136718 l 36.810543,-1.25586 0.0937,-0.0625 c 0.31946,-0.213329 0.75068,-0.551597 1.20312,-1.123047 l 2.54297,0.08398 0.0332,-0.0039 c 0.39812,-0.05215 0.65337,-0.34642 0.81445,-0.613281 0.11603,-0.192216 0.193,-0.371713 0.27539,-0.548828 h 2.00781 l 0.10547,-0.07813 c 0.61961,-0.456074 0.90162,-1.323442 1.10156,-2.367187 0.19995,-1.043746 0.27455,-2.28224 0.25,-3.488282 -0.0245,-1.206041 -0.14707,-2.373587 -0.36132,-3.28125 -0.10713,-0.453831 -0.23453,-0.841451 -0.40235,-1.152343 -0.16781,-0.310893 -0.39243,-0.595784 -0.76562,-0.650391 l -0.0215,-0.002 -2.27343,-0.08203 c -0.0824,-0.179871 -0.14803,-0.34276 -0.35157,-0.683594 l -0.11523,-0.189453 -3.1582,-0.03125 c -0.26454,-0.499669 -0.58011,-0.879947 -0.77344,-1.060547 l -0.10742,-0.09961 -37.136718,-1.671875 c -0.09716,-0.199377 -0.184362,-0.40379 -0.351498,-0.585888 -0.231859,-0.252617 -0.574335,-0.450693 -0.998047,-0.498047 l -0.0078,-0.002 -11.574219,-0.824219 C 64.943297,50.85996 62.567703,47.748651 60.167981,45.49214 l -0.115235,-0.107421 z m 0.167968,0.792968 h 44.794922 c 2.333499,2.217334 4.689151,5.281868 7.048828,8.939453 l 0.107422,0.166016 11.949219,0.851563 h -0.01563 c 0.248715,0.0278 0.376037,0.106952 0.501953,0.24414 0.125916,0.137188 0.235709,0.348449 0.345703,0.597656 l 0.09961,0.22461 37.265632,1.677734 c 0.29454,0.25071 0.48807,0.293715 0.6875,0.902344 l 0.0879,0.269531 3.15625,0.03125 c 0.13932,0.250299 0.25032,0.460615 0.32812,0.634766 l 0.10157,0.224609 2.6875,0.09766 c -0.0222,-0.0029 0.0675,0.03043 0.17968,0.238282 0.11323,0.209757 0.23084,0.54488 0.32813,0.957031 0.19458,0.824302 0.31816,1.953825 0.3418,3.115234 0.0236,1.16141 -0.0515,2.359482 -0.23633,3.324219 -0.17734,0.925757 -0.49746,1.570367 -0.76172,1.800781 h -2.16016 l -0.11133,0.212891 c -0.13988,0.268752 -0.24668,0.538536 -0.35546,0.71875 -0.107,0.177259 -0.17241,0.222774 -0.23633,0.232422 l -2.82032,-0.0957 -0.12304,0.18164 c -0.44511,0.659905 -0.72271,0.773067 -1.11133,1.025391 l -36.843755,1.257812 -0.113281,0.132813 c -0.334495,0.387674 -0.574755,0.683544 -1.351562,1.035156 l -11.751954,0.69336 -0.111328,0.160156 c -2.935872,4.311676 -5.619845,7.384354 -8.228515,10.05664 H 14.361328 C 11.420141,84.159609 9.2535022,81.81509 7.828125,79.044922 6.5145396,71.055136 5.8226197,60.980054 7.9980469,51.908203 9.7422437,49.752386 11.18534,47.646942 14.925781,46.177734 Z"
       id="path18" /><path
       style="fill:none;stroke:#000000;stroke-width:0.79375;stroke-linecap:square;stroke-miterlimit:7.9;stroke-dasharray:none"
       d="M 7.6701656,79.460222 14.802074,74.638336 H 29.54434 l 4.246253,5.143346 -2.812402,6.498941"
       id="path2" /><path
       style="fill:none;stroke:#000000;stroke-width:0.79375;stroke-linecap:square;stroke-miterlimit:7.9;stroke-dasharray:none"
       d="m 7.8047299,51.792306 7.1169561,5.053637 14.383429,-0.08971 4.545285,-5.292862 -2.483622,-5.498402"
       id="path3" /><path
       style="fill:none;stroke:#000000;stroke-width:0.79375;stroke-linecap:square;stroke-miterlimit:7.9;stroke-dasharray:none"
       d="m 14.981493,74.638336 v -17.8522"
       id="path4" /><path
       style="fill:none;stroke:#000000;stroke-width:0.79375;stroke-linecap:square;stroke-miterlimit:7.9;stroke-dasharray:none"
       d="m 15.011396,74.48882 3.468769,5.053636 -4.246252,6.728217"
       id="path6" /><path
       style="fill:none;stroke:#000000;stroke-width:0.79375;stroke-linecap:square;stroke-miterlimit:7.9;stroke-dasharray:none"
       d="M 15.025597,56.784167 18.15123,51.882016 14.682461,46.020992"
       id="path7" /><path
       style="fill:none;stroke:#000000;stroke-width:0.79375;stroke-linecap:square;stroke-miterlimit:7.9;stroke-dasharray:none"
       d="m 15.011396,72.455404 15.51975,-0.119613 6.488991,7.415988 -3.13802,6.539416"
       id="path8" /><path
       style="fill:none;stroke:#000000;stroke-width:0.79375;stroke-linecap:square;stroke-miterlimit:7.9;stroke-dasharray:none"
       d="m 15.004452,59.088683 15.736017,-0.119612 6.070346,-7.176765 -2.958602,-5.81692"
       id="path9" /><path
       style="fill:none;stroke:#000000;stroke-width:0.79375;stroke-linecap:square;stroke-miterlimit:7.9;stroke-dasharray:none"
       d="m 80.020908,56.86837 0.0075,17.549429"
       id="path10" /><path
       style="fill:none;stroke:#000000;stroke-width:0.79375;stroke-linecap:square;stroke-miterlimit:7.9;stroke-dasharray:none"
       d="M 118.12615,59.658485 V 72.204042"
       id="path11" /><path
       style="fill:none;stroke:#000000;stroke-width:0.79375;stroke-linecap:square;stroke-miterlimit:7.9;stroke-dasharray:none"
       d="M 121.79925,60.56418 V 70.929359"
       id="path12" /><path
       style="fill:none;stroke:#000000;stroke-width:0.79375;stroke-linecap:square;stroke-miterlimit:7.9;stroke-dasharray:none"
       d="m 80.003083,60.715127 7.983537,3.05253 22.64238,0.134178 0.0671,3.522147 -22.642382,0.134178 -8.050625,3.287339 z"
       id="path13" /><circle
       style="fill:none;stroke:#000000;stroke-width:0.79375;stroke-linecap:square;stroke-miterlimit:7.9;stroke-dasharray:none"
       id="path14"
       cx="28.451395"
       cy="53.949734"
       r="0.93691552" /><circle
       style="fill:none;stroke:#000000;stroke-width:0.79375;stroke-linecap:square;stroke-miterlimit:7.9;stroke-dasharray:none"
       id="path14-1"
       cx="28.546324"
       cy="77.493477"
       r="0.93691552" /><circle
       style="fill:none;stroke:#000000;stroke-width:0.79375;stroke-linecap:square;stroke-miterlimit:7.9;stroke-dasharray:none"
       id="path15"
       cx="51.281303"
       cy="66.145836"
       r="10.20947" /><circle
       style="fill:none;stroke:#000000;stroke-width:0.79375;stroke-linecap:square;stroke-miterlimit:7.9;stroke-dasharray:none"
       id="path16"
       cx="51.281303"
       cy="66.145836"
       r="7.4021468" /></g></svg>
