<?xml version="1.0" encoding="UTF-8" standalone="no"?>
<!-- Created with Inkscape (http://www.inkscape.org/) -->

<svg
   width="1920.0001"
   height="1920.011"
   viewBox="0 0 508 508.00292"
   version="1.1"
   id="svg1"
   xml:space="preserve"
   xmlns="http://www.w3.org/2000/svg"
   xmlns:svg="http://www.w3.org/2000/svg"><defs
     id="defs1" /><g
     id="layer1"
     style="display:inline"
     transform="translate(3.0606488e-5,0.00272319)"><rect
       style="fill:#909eb1;stroke:none;stroke-width:0.793749;stroke-linecap:square;stroke-miterlimit:7.9"
       id="rect51"
       width="507.99997"
       height="507.99997"
       x="7.7935119e-06"
       y="3.2070434e-06" /><rect
       style="fill:#38fdfa;stroke:#000000;stroke-width:0.793746;stroke-linecap:square;stroke-miterlimit:7.9"
       id="rect52"
       width="17.271999"
       height="88.391991"
       x="245.36395"
       y="209.80396" /><path
       style="fill:#3b6996;stroke:none;stroke-width:0.79375;stroke-linecap:square;stroke-miterlimit:7.9"
       d="M -5.2011978e-6,438.55074 45.978911,438.64052 l -0.224518,15.08684 9.070059,8.66591 14.368407,-0.045 0.02231,45.6515 H -5.2011978e-6 Z"
       id="path55" /><path
       style="fill:#66a6d5;stroke:none;stroke-width:0.79375;stroke-linecap:square;stroke-miterlimit:7.9"
       d="M 7.7935122e-6,346.45595 37.405291,346.53193 l 24.46093,23.78898 v 22.86517 l -16.133362,15.51619 v 29.98198 L -5.2011978e-6,438.55074 Z"
       id="path56" /><path
       style="fill:#66a6d5;stroke:none;stroke-width:0.79375;stroke-linecap:square;stroke-miterlimit:7.9"
       d="m 69.215124,507.99986 -0.02231,-45.6515 30.104828,-0.0816 15.516148,-16.13339 h 22.86517 l 23.78898,23.77367 0.26638,38.09259 z"
       id="path57" /><path
       style="fill:#375b87;stroke:none;stroke-width:0.79375;stroke-linecap:square;stroke-miterlimit:7.9"
       d="m 61.866221,370.3209 v 22.86518 l -16.133362,15.51615 v 45.18489 l 9.091586,8.50615 44.473239,-0.12638 15.516166,-16.13339 22.86515,1.3e-4 z"
       id="path65" /><path
       style="fill:#909eb1;stroke:none;stroke-width:0.79375;stroke-linecap:square;stroke-miterlimit:7.9"
       d="m 161.73437,507.99986 -0.26639,-38.09248 h 16.28606 v -35.2565 h 10.21423 v -21.87493 h 131.65898 v 21.7027 h 10.5612 l 0.0405,34.55139 16.30287,0.0405 -0.20287,38.92918 z"
       id="path78" /><path
       style="display:inline;fill:#3b6996;stroke:none;stroke-width:0.79375;stroke-linecap:square;stroke-miterlimit:7.9"
       d="m 507.99997,438.55107 -45.97892,0.0898 0.22452,15.08684 -9.07006,8.66591 -14.36841,-0.045 -0.0223,45.6515 h 69.21518 z"
       id="path55-6" /><path
       style="display:inline;fill:#66a6d5;stroke:none;stroke-width:0.79375;stroke-linecap:square;stroke-miterlimit:7.9"
       d="m 507.99995,346.45628 -37.40528,0.076 -24.46093,23.78898 v 22.86517 l 16.13336,15.51619 v 29.98198 l 45.73287,-0.13351 z"
       id="path56-5" /><path
       style="display:inline;fill:#66a6d5;stroke:none;stroke-width:0.79375;stroke-linecap:square;stroke-miterlimit:7.9"
       d="m 438.78484,508.00019 0.0223,-45.6515 -30.10483,-0.0816 -15.51616,-16.13339 h -22.86517 l -23.78898,23.77367 -0.26638,38.09259 z"
       id="path57-0" /><path
       style="display:inline;fill:#375b87;stroke:none;stroke-width:0.79375;stroke-linecap:square;stroke-miterlimit:7.9"
       d="m 446.13374,370.32123 v 22.86518 l 16.13336,15.51615 v 45.18489 l -9.09158,8.50615 -44.47324,-0.12638 -15.51618,-16.13339 -22.86515,1.3e-4 z"
       id="path65-8" /><path
       style="display:inline;fill:#909eb1;stroke:none;stroke-width:0.79375;stroke-linecap:square;stroke-miterlimit:7.9"
       d="m 507.99995,161.37552 -36.56855,0.0928 v 16.28605 h -35.25648 v 10.21422 h -21.87491 v 131.659 h 21.70267 v 10.56122 l 34.55139,0.0406 0.0406,16.30284 37.40528,-0.0759 z"
       id="path80-0" /><circle
       style="display:inline;fill:#909eb1;stroke:none;stroke-width:0.79375;stroke-linecap:square;stroke-miterlimit:7.9"
       id="circle72-4"
       cx="-301.38678"
       cy="333.10205"
       r="3.3331709"
       transform="scale(-1,1)" /><ellipse
       style="display:inline;fill:#909eb1;stroke:none;stroke-width:0.79375;stroke-linecap:square;stroke-miterlimit:7.9"
       id="circle73-8"
       cx="-321.37219"
       cy="443.57416"
       rx="3.6507666"
       ry="3.6503074"
       transform="scale(-1,1)" /><ellipse
       style="display:inline;fill:#909eb1;stroke:none;stroke-width:0.79375;stroke-linecap:square;stroke-miterlimit:7.9"
       id="circle78-5"
       cx="-445.34235"
       cy="321.63858"
       rx="3.6538191"
       ry="3.6506023"
       transform="scale(-1,1)" /><path
       style="display:inline;fill:#3b6996;stroke:none;stroke-width:0.79375;stroke-linecap:square;stroke-miterlimit:7.9"
       d="m 414.30001,203.0733 -15.3296,-0.32025 -6.22299,-7.11204 -22.63503,0.39366 -15.46499,14.84638 -16.91247,0.39363 -6e-4,85.84208 h 16.91314 l 15.3035,15.24003 h 22.7965 l 6.22298,-7.11204 h 15.32956 z"
       id="path85-0" /><ellipse
       style="display:inline;fill:#97bdcf;stroke:none;stroke-width:0.79375;stroke-linecap:square;stroke-miterlimit:7.9"
       id="circle90-9"
       cy="316.61249"
       cx="-329.41901"
       rx="3.6503026"
       ry="3.6507728"
       transform="scale(-1,1)" /><path
       style="baseline-shift:baseline;display:inline;overflow:visible;vector-effect:none;stroke-width:1;stroke-linecap:square;stroke-miterlimit:7.9;enable-background:accumulate;stop-color:#000000"
       d="m 471.82744,161.07032 v 0.3975 16.68 h -35.25749 v 10.21499 h -21.87 V 319.2303 h 21.6975 v 10.56 l 34.55249,0.045 0.045,16.69499 v 0.39751 h -0.795 v -0.39751 l -0.045,-15.90749 -34.5525,-0.0376 v -10.55999 h -21.69749 v -132.4499 h 21.86999 v -10.21499 h 35.2575 v -15.8925 -0.3975 z"
       id="path13-3" /><path
       style="baseline-shift:baseline;display:inline;overflow:visible;vector-effect:none;stroke-width:1;stroke-linecap:square;stroke-miterlimit:7.9;enable-background:accumulate;stop-color:#000000"
       d="m 507.99994,346.9278 h -37.9275 l -23.54249,23.5575 v 22.53001 l 16.13249,15.51748 v 45.51751 l -6.66,6.7725 -0.27748,0.28492 -0.5625,-0.55499 0.27752,-0.28493 6.4275,-6.54002 v -44.85749 l -16.1325,-15.51748 V 370.1553 l 24.00746,-24.0225 h 38.2575"
       id="path15-8" /><path
       style="baseline-shift:baseline;display:inline;overflow:visible;vector-effect:none;stroke-width:1;stroke-linecap:square;stroke-miterlimit:7.9;enable-background:accumulate;stop-color:#000000"
       d="m 346.13494,507.99785 v -38.2575 l 24.0225,-24 23.1975,-4e-5 15.51751,16.1325 h 44.84999 l 6.5475,-6.435 0.28501,-0.27763 0.555,0.57001 -0.28501,0.27763 -6.7725,6.66002 h -45.5175 l -15.5175,-16.14002 h -22.53 l -23.5575,23.5425 v 37.92753"
       id="path17-9" /><path
       style="baseline-shift:baseline;display:inline;overflow:visible;vector-effect:none;stroke-width:1;stroke-linecap:square;stroke-miterlimit:7.9;enable-background:accumulate;stop-color:#000000"
       d="m 507.99994,439.0803 h -45.735 -0.3975 v -0.795 h 0.3975 45.735 m -47.4525,16.87499 0.5625,0.56249 -0.285,0.27763 -4.82251,4.82999 -0.27747,0.27763 -0.56251,-0.56252 0.27752,-0.27763 4.83,-4.8225 z m -22.26,52.83752 v -45.72753 -0.39747 h 0.795 v 0.39747 45.72753"
       id="path24-4" /><path
       style="baseline-shift:baseline;display:inline;overflow:visible;vector-effect:none;stroke-width:1;stroke-linecap:square;stroke-miterlimit:7.9;enable-background:accumulate;stop-color:#000000"
       d="m 446.13245,369.7578 0.56249,0.5625 -0.27751,0.28501 -75.81751,75.81 -0.27752,0.27763 -0.56246,-0.55515 0.27752,-0.28493 75.8175,-75.80998 z"
       id="path30-0" /><path
       style="baseline-shift:baseline;display:inline;overflow:visible;vector-effect:none;stroke-width:1;stroke-linecap:square;stroke-miterlimit:7.9;enable-background:accumulate;stop-color:#000000"
       d="m 414.30245,319.06531 0.5625,0.56249 -0.28501,0.28501 -94.2675,93.1425 -0.285,0.28493 -0.555,-0.57001 0.27751,-0.27763 94.26751,-93.14998 z"
       id="path31-6" /><path
       style="baseline-shift:baseline;display:inline;overflow:visible;vector-effect:none;stroke-width:1;stroke-linecap:square;stroke-miterlimit:7.9;enable-background:accumulate;stop-color:#000000"
       d="m 354.81244,296.72281 15.3,15.23999 h 22.455 l 6.225,-7.11749 h 15.51001 0.3975 v 0.795 h -0.3975 -15.15001 l -6.225,7.10999 h -23.1375 l -15.3075,-15.24 h -16.7475 -0.3975 v -0.78749 h 0.3975 z"
       id="path35-1" /><path
       style="baseline-shift:baseline;display:inline;overflow:visible;vector-effect:none;stroke-width:1;stroke-linecap:square;stroke-miterlimit:7.9;enable-background:accumulate;stop-color:#000000"
       d="m 414.69995,253.40281 v 0.795 h -0.3975 -76.56751 -0.3975 v -0.795 h 0.3975 76.56751 z"
       id="path40-8" /><path
       style="baseline-shift:baseline;display:inline;overflow:visible;vector-effect:none;stroke-width:1;stroke-linecap:square;stroke-miterlimit:7.9;enable-background:accumulate;stop-color:#000000"
       d="m 301.38995,329.0478 c 2.23554,0 4.05,1.82196 4.05,4.0575 0,2.23555 -1.81446,4.05 -4.05,4.05 -2.23555,0 -4.0575,-1.81445 -4.0575,-4.05 0,-2.23554 1.82195,-4.0575 4.0575,-4.0575 z m 0,0.795 c -1.80658,0 -3.2625,1.45593 -3.2625,3.2625 0,1.80658 1.45592,3.2625 3.2625,3.2625 1.80657,0 3.2625,-1.45592 3.2625,-3.2625 0,-1.80657 -1.45593,-3.2625 -3.2625,-3.2625 z"
       id="circle42-9" /><g
       id="circle44-6"
       style="stroke-width:0.260417"
       transform="matrix(-3.8399997,0,0,3.8399997,507.99994,3.3320704e-4)"><path
         style="baseline-shift:baseline;display:inline;overflow:visible;vector-effect:none;fill:#97bdcf;stroke-linecap:square;stroke-miterlimit:7.9;enable-background:accumulate;stop-color:#000000;stop-opacity:1"
         d="m 17.268607,83.762276 a 0.9529829,0.9529829 0 0 1 -0.952983,0.952983 0.9529829,0.9529829 0 0 1 -0.952983,-0.952983 0.9529829,0.9529829 0 0 1 0.952983,-0.952983 0.9529829,0.9529829 0 0 1 0.952983,0.952983 z"
         id="path1-3" /><path
         style="baseline-shift:baseline;display:inline;overflow:visible;vector-effect:none;stroke-linecap:square;stroke-miterlimit:7.9;enable-background:accumulate;stop-color:#000000;stop-opacity:1"
         d="m 16.316406,82.705078 c -0.582174,0 -1.05664,0.474467 -1.05664,1.056641 0,0.582174 0.474466,1.05664 1.05664,1.05664 0.582174,0 1.054688,-0.474466 1.054688,-1.05664 0,-0.582174 -0.472514,-1.056641 -1.054688,-1.056641 z m 0,0.207031 c 0.470462,0 0.84961,0.379148 0.84961,0.84961 0,0.470462 -0.379148,0.849609 -0.84961,0.849609 -0.470462,0 -0.849609,-0.379147 -0.849609,-0.849609 0,-0.470462 0.379147,-0.84961 0.849609,-0.84961 z"
         id="path4-7" /></g><g
       id="circle48-8"
       style="stroke-width:0.260417"
       transform="matrix(0,3.8399997,3.8399997,0,507.99994,3.3320704e-4)"><path
         style="baseline-shift:baseline;display:inline;overflow:visible;vector-effect:none;fill:#97bdcf;stroke-linecap:square;stroke-miterlimit:7.9;enable-background:accumulate;stop-color:#000000;stop-opacity:1"
         d="m 116.46463,-48.603245 a 0.9529829,0.9529829 0 0 1 -0.95299,0.952983 0.9529829,0.9529829 0 0 1 -0.95298,-0.952983 0.9529829,0.9529829 0 0 1 0.95298,-0.952983 0.9529829,0.9529829 0 0 1 0.95299,0.952983 z"
         id="path16-2" /><path
         style="baseline-shift:baseline;display:inline;overflow:visible;vector-effect:none;stroke-linecap:square;stroke-miterlimit:7.9;enable-background:accumulate;stop-color:#000000;stop-opacity:1"
         d="m 115.51172,-49.660156 c -0.58218,0 -1.05664,0.474467 -1.05664,1.05664 0,0.582174 0.47446,1.056641 1.05664,1.056641 0.58217,0 1.05664,-0.474467 1.05664,-1.056641 0,-0.582173 -0.47447,-1.05664 -1.05664,-1.05664 z m 0,0.207031 c 0.47046,0 0.84961,0.379147 0.84961,0.849609 0,0.470462 -0.37915,0.84961 -0.84961,0.84961 -0.47046,0 -0.84961,-0.379148 -0.84961,-0.84961 0,-0.470462 0.37915,-0.849609 0.84961,-0.849609 z"
         id="path19-9" /></g><path
       style="display:inline;fill:#66a6d5;stroke:none;stroke-width:0.79375;stroke-linecap:square;stroke-miterlimit:7.9"
       d="M 109.0295,305.24442 H 93.699951 v 14.38283 l 94.268319,93.1487 h 131.65898 l 94.67276,-93.14836 v -14.38284 l -15.32957,-3.3e-4 -6.22299,7.11204 h -22.79652 l -15.30347,-15.24003 h -16.91317 l 4e-5,27.65127 h -27.60037 v 46.58401 l 10.541,14.66473 v 9.87427 H 187.35673 v -9.90602 l 10.50926,-14.63298 V 324.7677 h -27.60037 v -27.65127 h -16.91314 l -15.3035,15.24003 h -22.7965 z"
       id="path84" /><path
       style="baseline-shift:baseline;display:inline;overflow:visible;vector-effect:none;stroke-width:1;stroke-linecap:square;stroke-miterlimit:7.9;enable-background:accumulate;stop-color:#000000"
       d="m 325.35244,316.62031 c 0,-2.23555 1.82196,-4.05751 4.05751,-4.05751 2.23554,0 4.05749,1.82196 4.05749,4.05751 0,2.23554 -1.82195,4.0575 -4.05749,4.0575 -2.23555,0 -4.05751,-1.82196 -4.05751,-4.0575 z m 0.795,0 c 0,1.80657 1.45593,3.26249 3.26251,3.26249 1.80657,0 3.26249,-1.45592 3.26249,-3.26249 0,-1.80658 -1.45592,-3.2625 -3.26249,-3.2625 -1.80658,0 -3.26251,1.45592 -3.26251,3.2625 z"
       id="circle88-5" /><path
       style="fill:#909eb1;stroke:none;stroke-width:0.79375;stroke-linecap:square;stroke-miterlimit:7.9"
       d="M 7.7935122e-6,161.37519 36.568561,161.46803 v 16.28605 H 71.82504 v 10.21422 h 21.874911 v 131.659 H 71.997284 v 10.56122 l -34.551394,0.0406 -0.0406,16.30284 L 9.168872e-6,346.45606 Z"
       id="path80" /><path
       style="fill:#97bdcf;stroke:none;stroke-width:0.79375;stroke-linecap:square;stroke-miterlimit:7.9"
       d="m 197.86599,324.7677 h 112.26797 v 46.58401 H 197.86599 Z"
       id="path82" /><circle
       style="fill:#909eb1;stroke:none;stroke-width:0.79375;stroke-linecap:square;stroke-miterlimit:7.9"
       id="circle72"
       cx="206.6132"
       cy="333.10172"
       r="3.3331709" /><ellipse
       style="fill:#909eb1;stroke:none;stroke-width:0.79375;stroke-linecap:square;stroke-miterlimit:7.9"
       id="circle73"
       cx="186.62776"
       cy="443.57382"
       rx="3.6507666"
       ry="3.6503074" /><ellipse
       style="fill:#909eb1;stroke:none;stroke-width:0.79375;stroke-linecap:square;stroke-miterlimit:7.9"
       id="circle78"
       cx="62.657627"
       cy="321.63824"
       rx="3.6538191"
       ry="3.6506023" /><path
       style="fill:#3b6996;stroke:none;stroke-width:0.79375;stroke-linecap:square;stroke-miterlimit:7.9"
       d="m 93.699951,203.07297 15.507539,0.0795 6.04496,-7.51148 h 22.79651 l 15.30351,15.24004 h 16.91312 l 3e-5,86.23538 h -16.91314 l -15.3035,15.24003 h -22.7965 L 109.0295,305.2444 H 93.699951 Z"
       id="path85" /><ellipse
       style="fill:#97bdcf;stroke:none;stroke-width:0.79375;stroke-linecap:square;stroke-miterlimit:7.9"
       id="circle90"
       cy="316.61215"
       cx="178.58096"
       rx="3.6503026"
       ry="3.6507728" /></g><path
     style="display:inline;fill:#66a6d5;stroke:none;stroke-width:0.793751;stroke-linecap:square;stroke-miterlimit:7.9"
     d="M 109.02953,202.75578 H 93.699947 V 188.37295 L 187.96829,95.224257 h 131.65896 l 94.39046,93.433323 0.28224,14.14156 -15.32958,-0.0434 -6.22299,-7.11204 h -22.79655 l -15.30347,15.24004 h -16.91313 l 4e-5,-27.65127 h -27.60038 v -46.58402 l 10.54099,-14.66473 V 112.1095 H 187.35666 v 9.90601 l 10.50927,14.63298 v 46.58401 h -27.60038 v 27.65127 h -16.91313 l -15.30351,-15.24003 h -22.7965 z"
     id="path84-1" /><g
     id="layer4"
     transform="matrix(3.8399997,0,0,3.8399997,4.114147e-5,0.00272471)"
     style="stroke-width:0.260417"><path
       style="baseline-shift:baseline;display:inline;overflow:visible;opacity:1;vector-effect:none;stroke-linecap:square;stroke-miterlimit:7.9;enable-background:accumulate;stop-color:#000000;stop-opacity:1"
       d="m 9.4199219,41.945312 v 0.103516 4.34375 h 9.1816401 v 2.660156 h 5.695313 v 34.080078 h -5.650391 v 2.75 l -8.9980465,0.01172 -0.011719,4.347656 v 0.103516 H 9.84375 v -0.103516 l 0.011719,-4.142578 8.998047,-0.0098 v -2.75 h 5.65039 V 48.847656 H 18.808594 V 46.1875 H 9.6269531 v -4.138672 -0.103516 z"
       id="path13" /><path
       style="baseline-shift:baseline;display:inline;overflow:visible;opacity:1;vector-effect:none;stroke-linecap:square;stroke-miterlimit:7.9;enable-background:accumulate;stop-color:#000000;stop-opacity:1"
       d="m 0,90.345703 h 9.8769531 l 6.1308589,6.134766 v 5.867191 l -4.201171,4.04101 v 11.85352 l 1.734375,1.76367 0.07226,0.0742 0.146485,-0.14453 -0.07227,-0.0742 -1.673828,-1.70313 v -11.68164 l 4.201172,-4.04101 V 96.394531 L 9.9628906,90.138672 H 0"
       id="path15" /><path
       style="baseline-shift:baseline;display:inline;overflow:visible;opacity:1;vector-effect:none;stroke-linecap:square;stroke-miterlimit:7.9;enable-background:accumulate;stop-color:#000000;stop-opacity:1"
       d="m 42.152345,132.29103 v -9.96289 l -6.25586,-6.25 -6.041016,-1e-5 -4.041016,4.20117 H 14.134766 l -1.705078,-1.67578 -0.07422,-0.0723 -0.144531,0.14844 0.07422,0.0723 1.763672,1.73438 h 11.853516 l 4.041015,-4.20313 h 5.867188 l 6.134765,6.13086 v 9.87696"
       id="path17" /><path
       style="baseline-shift:baseline;display:inline;overflow:visible;opacity:1;vector-effect:none;stroke-linecap:square;stroke-miterlimit:7.9;enable-background:accumulate;stop-color:#000000;stop-opacity:1"
       d="m 48.847656,107.39063 v 5.69726 H 46.1875 v 9.17969 h -4.138672 -0.103516 v 0.20703 h 0.103516 4.34375 v -9.18164 h 2.660156 v -5.69531 h 34.080078 v 5.65039 h 2.75 l 0.01172,8.99804 4.347656,0.0117 h 0.103516 v -0.20703 h -0.103516 l -4.142578,-0.01 -0.0098,-8.99805 h -2.75 v -5.65234 z"
       id="path18" /><path
       style="baseline-shift:baseline;display:inline;overflow:visible;opacity:1;vector-effect:none;stroke-linecap:square;stroke-miterlimit:7.9;enable-background:accumulate;stop-color:#000000;stop-opacity:1"
       d="m 0,114.34375 h 11.910156 0.103516 v -0.20703 H 11.910156 0 m 12.357422,4.39453 -0.146484,0.14648 0.07422,0.0723 1.25586,1.25781 0.07226,0.0723 0.146485,-0.14649 -0.07227,-0.0723 -1.257812,-1.25586 z m 5.796875,13.75977 v -11.90821 -0.10351 h -0.207031 v 0.10351 11.90821"
       id="path24" /><path
       style="baseline-shift:baseline;display:inline;overflow:visible;opacity:1;vector-effect:none;stroke-linecap:square;stroke-miterlimit:7.9;enable-background:accumulate;stop-color:#000000;stop-opacity:1"
       d="M 51.423828,84.470703 V 96.808594 H 80.867187 V 84.470703 Z m 0.207031,0.207031 H 80.660156 V 96.603516 H 51.630859 Z"
       id="rect25-2" /><path
       style="baseline-shift:baseline;display:inline;overflow:visible;opacity:1;vector-effect:none;stroke-linecap:square;stroke-miterlimit:7.9;enable-background:accumulate;stop-color:#000000;stop-opacity:1"
       d="M 44.255859,47.630859 V 84.677734 H 88.054687 V 47.630859 Z m 0.207032,0.207032 H 87.847656 V 84.470703 H 44.462891 Z"
       id="rect26" /><path
       style="baseline-shift:baseline;display:inline;overflow:visible;opacity:1;vector-effect:none;stroke-linecap:square;stroke-miterlimit:7.9;enable-background:accumulate;stop-color:#000000;stop-opacity:1"
       d="m 16.111328,96.291016 -0.146484,0.146484 0.07227,0.07422 19.744141,19.74219 0.07227,0.0723 L 36,116.18164 35.92773,116.10744 16.18359,96.365254 Z"
       id="path30" /><path
       style="baseline-shift:baseline;display:inline;overflow:visible;opacity:1;vector-effect:none;stroke-linecap:square;stroke-miterlimit:7.9;enable-background:accumulate;stop-color:#000000;stop-opacity:1"
       d="m 24.400391,83.089844 -0.146485,0.146484 0.07422,0.07422 24.548828,24.255862 0.07422,0.0742 0.144531,-0.14844 -0.07227,-0.0723 -24.548828,-24.25781 z"
       id="path31" /><path
       style="baseline-shift:baseline;display:inline;overflow:visible;opacity:1;vector-effect:none;stroke-linecap:square;stroke-miterlimit:7.9;enable-background:accumulate;stop-color:#000000;stop-opacity:1"
       d="m 39.892578,77.271484 -3.984375,3.96875 h -5.847656 l -1.621094,-1.853515 h -4.039062 -0.103516 v 0.207031 h 0.103516 3.945312 l 1.621094,1.851562 h 6.02539 l 3.986329,-3.96875 h 4.361328 0.103515 v -0.205078 h -0.103515 z"
       id="path35" /><path
       style="baseline-shift:baseline;display:inline;overflow:visible;opacity:1;vector-effect:none;stroke-linecap:square;stroke-miterlimit:7.9;enable-background:accumulate;stop-color:#000000;stop-opacity:1"
       d="m 51.503906,96.5625 -0.06055,0.08398 -2.755859,3.8379 v 2.71484 h 34.925781 v -2.70703 l -2.765625,-3.84571 -0.06055,-0.08398 -0.167968,0.119141 0.06055,0.08398 2.726563,3.792969 v 2.43555 H 48.894531 v -2.44336 l 2.716797,-3.785159 0.06055,-0.08398 z"
       id="path39" /><path
       style="baseline-shift:baseline;display:inline;overflow:visible;opacity:1;vector-effect:none;stroke-linecap:square;stroke-miterlimit:7.9;enable-background:accumulate;stop-color:#000000;stop-opacity:1"
       d="m 24.296875,65.990234 v 0.207032 h 0.103516 19.939453 0.103515 V 65.990234 H 44.339844 24.400391 Z"
       id="path40" /><path
       style="baseline-shift:baseline;display:inline;overflow:visible;opacity:1;vector-effect:none;stroke-linecap:square;stroke-miterlimit:7.9;enable-background:accumulate;stop-color:#000000;stop-opacity:1"
       d="m 53.804687,85.689453 c -0.582173,0 -1.054687,0.474467 -1.054687,1.056641 0,0.582174 0.472514,1.054687 1.054687,1.054687 0.582174,0 1.056641,-0.472513 1.056641,-1.054687 0,-0.582174 -0.474467,-1.056641 -1.056641,-1.056641 z m 0,0.207031 c 0.470463,0 0.84961,0.379148 0.84961,0.84961 0,0.470462 -0.379147,0.849609 -0.84961,0.849609 -0.470462,0 -0.849609,-0.379147 -0.849609,-0.849609 0,-0.470462 0.379147,-0.84961 0.849609,-0.84961 z"
       id="circle42" /><g
       id="circle44"
       style="opacity:1"><path
         style="baseline-shift:baseline;display:inline;overflow:visible;vector-effect:none;fill:#97bdcf;stroke-linecap:square;stroke-miterlimit:7.9;enable-background:accumulate;stop-color:#000000;stop-opacity:1"
         d="m 17.268607,83.762276 a 0.9529829,0.9529829 0 0 1 -0.952983,0.952983 0.9529829,0.9529829 0 0 1 -0.952983,-0.952983 0.9529829,0.9529829 0 0 1 0.952983,-0.952983 0.9529829,0.9529829 0 0 1 0.952983,0.952983 z"
         id="path1" /><path
         style="baseline-shift:baseline;display:inline;overflow:visible;vector-effect:none;stroke-linecap:square;stroke-miterlimit:7.9;enable-background:accumulate;stop-color:#000000;stop-opacity:1"
         d="m 16.316406,82.705078 c -0.582174,0 -1.05664,0.474467 -1.05664,1.056641 0,0.582174 0.474466,1.05664 1.05664,1.05664 0.582174,0 1.054688,-0.474466 1.054688,-1.05664 0,-0.582174 -0.472514,-1.056641 -1.054688,-1.056641 z m 0,0.207031 c 0.470462,0 0.84961,0.379148 0.84961,0.84961 0,0.470462 -0.379148,0.849609 -0.84961,0.849609 -0.470462,0 -0.849609,-0.379147 -0.849609,-0.849609 0,-0.470462 0.379147,-0.84961 0.849609,-0.84961 z"
         id="path4" /></g><g
       id="circle48"
       style="opacity:1"
       transform="rotate(90)"><path
         style="baseline-shift:baseline;display:inline;overflow:visible;vector-effect:none;fill:#97bdcf;stroke-linecap:square;stroke-miterlimit:7.9;enable-background:accumulate;stop-color:#000000;stop-opacity:1"
         d="m 116.46463,-48.603245 a 0.9529829,0.9529829 0 0 1 -0.95299,0.952983 0.9529829,0.9529829 0 0 1 -0.95298,-0.952983 0.9529829,0.9529829 0 0 1 0.95298,-0.952983 0.9529829,0.9529829 0 0 1 0.95299,0.952983 z"
         id="path16" /><path
         style="baseline-shift:baseline;display:inline;overflow:visible;vector-effect:none;stroke-linecap:square;stroke-miterlimit:7.9;enable-background:accumulate;stop-color:#000000;stop-opacity:1"
         d="m 115.51172,-49.660156 c -0.58218,0 -1.05664,0.474467 -1.05664,1.05664 0,0.582174 0.47446,1.056641 1.05664,1.056641 0.58217,0 1.05664,-0.474467 1.05664,-1.056641 0,-0.582173 -0.47447,-1.05664 -1.05664,-1.05664 z m 0,0.207031 c 0.47046,0 0.84961,0.379147 0.84961,0.849609 0,0.470462 -0.37915,0.84961 -0.84961,0.84961 -0.47046,0 -0.84961,-0.379148 -0.84961,-0.84961 0,-0.470462 0.37915,-0.849609 0.84961,-0.849609 z"
         id="path19" /></g><path
       style="baseline-shift:baseline;display:inline;overflow:visible;opacity:1;vector-effect:none;stroke-linecap:square;stroke-miterlimit:7.9;enable-background:accumulate;stop-color:#000000;stop-opacity:1"
       d="m 82.453125,-47.564453 c -0.582174,0 -1.056641,0.474467 -1.056641,1.056641 0,0.582173 0.474467,1.05664 1.056641,1.05664 0.582174,0 1.056641,-0.474467 1.056641,-1.05664 0,-0.582174 -0.474467,-1.056641 -1.056641,-1.056641 z m 0,0.207031 c 0.470462,0 0.849609,0.379147 0.849609,0.84961 0,0.470462 -0.379147,0.849609 -0.849609,0.849609 -0.470462,0 -0.849609,-0.379147 -0.849609,-0.849609 0,-0.470463 0.379147,-0.84961 0.849609,-0.84961 z"
       id="circle88"
       transform="rotate(90)" /><path
       style="display:inline;fill:#3b6996;stroke:none;stroke-width:0.206706;stroke-linecap:square;stroke-miterlimit:7.9"
       d="M -1.0713925e-5,18.085086 11.973669,18.061686 l -0.0585,-3.92886 2.362,-2.25675 3.74177,0.0117 0.006,-11.8884055598 H 1.5928608e-4 Z"
       id="path55-7" /><path
       style="display:inline;fill:#66a6d5;stroke:none;stroke-width:0.206706;stroke-linecap:square;stroke-miterlimit:7.9"
       d="M -7.1392458e-7,42.068108 9.7409593,42.048318 16.110989,35.853271 v -5.954465 l -4.2014,-4.04068 v -7.80781 l -11.909599713925,0.0348 z"
       id="path56-6" /><path
       style="display:inline;fill:#66a6d5;stroke:none;stroke-width:0.206706;stroke-linecap:square;stroke-miterlimit:7.9"
       d="m 18.024769,-6.195598e-4 -0.006,11.8884155598 7.8398,0.0212 4.04066,4.2014 h 5.95447 l 6.19505,-6.1910596 0.0694,-9.9199459598 z"
       id="path57-3" /><path
       style="display:inline;fill:#375b87;stroke:none;stroke-width:0.206706;stroke-linecap:square;stroke-miterlimit:7.9"
       d="m 16.110989,35.853277 v -5.954471 l -4.2014,-4.04067 v -11.7669 l 2.3676,-2.21514 11.58158,0.0329 4.04067,4.20141 5.95446,-4e-5 z"
       id="path65-6" /><path
       style="display:inline;fill:#909eb1;stroke:none;stroke-width:0.206706;stroke-linecap:square;stroke-miterlimit:7.9"
       d="M 42.118319,-6.195598e-4 42.048919,9.9192964 h 4.24116 v 9.1813796 h 2.65996 v 5.6966 h 34.28619 v -5.65175 h 2.75032 l -0.09204,-9.1006 4.34808,0.09234 -0.0528,-10.1378055598 z"
       id="path78-1" /><path
       style="display:inline;fill:#3b6996;stroke:none;stroke-width:0.206706;stroke-linecap:square;stroke-miterlimit:7.9"
       d="m 132.29166,18.085006 -11.97368,-0.0234 0.0585,-3.92886 -2.362,-2.25675 -3.74177,0.0117 -0.006,-11.8884055598 h 18.02479 z"
       id="path55-6-5" /><path
       style="display:inline;fill:#66a6d5;stroke:none;stroke-width:0.206706;stroke-linecap:square;stroke-miterlimit:7.9"
       d="m 132.29165,42.068023 -9.74096,-0.01979 -6.37003,-6.195047 v -5.95447 l 4.20139,-4.04068 v -7.80781 l 11.90961,0.0348 z"
       id="path56-5-4" /><path
       style="display:inline;fill:#66a6d5;stroke:none;stroke-width:0.206706;stroke-linecap:square;stroke-miterlimit:7.9"
       d="m 114.26688,-6.995598e-4 0.006,11.8884055598 -7.8398,0.0212 -4.04067,4.2014 h -5.954471 l -6.19504,-6.1910596 -0.0694,-9.9199359598 z"
       id="path57-0-2" /><path
       style="display:inline;fill:#375b87;stroke:none;stroke-width:0.206706;stroke-linecap:square;stroke-miterlimit:7.9"
       d="m 116.18066,35.853191 v -5.954475 l 4.20139,-4.04066 v -11.7669 l -2.3676,-2.21515 -11.58157,0.0329 -4.04067,4.2014 -5.954471,-3e-5 z"
       id="path65-8-0" /><circle
       style="display:inline;fill:#909eb1;stroke:none;stroke-width:0.206706;stroke-linecap:square;stroke-miterlimit:7.9"
       id="circle72-4-9"
       cx="-78.486137"
       cy="-45.545685"
       r="0.86801332"
       transform="scale(-1)" /><ellipse
       style="display:inline;fill:#909eb1;stroke:none;stroke-width:0.206706;stroke-linecap:square;stroke-miterlimit:7.9"
       id="circle73-8-7"
       cx="-83.690681"
       cy="-16.776911"
       rx="0.95072055"
       ry="0.95060092"
       transform="scale(-1)" /><ellipse
       style="display:inline;fill:#909eb1;stroke:none;stroke-width:0.206706;stroke-linecap:square;stroke-miterlimit:7.9"
       id="circle78-5-3"
       cx="-115.97459"
       cy="-48.530968"
       rx="0.95151544"
       ry="0.95067775"
       transform="scale(-1)" /><ellipse
       style="display:inline;fill:#97bdcf;stroke:none;stroke-width:0.206706;stroke-linecap:square;stroke-miterlimit:7.9"
       id="circle90-9-7"
       cy="-49.839844"
       cx="-85.786201"
       rx="0.95059967"
       ry="0.95072216"
       transform="scale(-1)" /><path
       style="baseline-shift:baseline;display:inline;overflow:visible;vector-effect:none;stroke-width:0.260417;stroke-linecap:square;stroke-miterlimit:7.9;enable-background:accumulate;stop-color:#000000"
       d="m 132.29165,41.945231 h -9.87696 l -6.13085,-6.134766 v -5.867189 l 4.20117,-4.04101 v -11.85352 l -1.73438,-1.76367 -0.0723,-0.0742 -0.14648,0.14453 0.0723,0.0742 1.67383,1.70313 v 11.68164 l -4.20118,4.04101 v 6.041016 l 6.25195,6.25586 h 9.96289"
       id="path15-8-2" /><path
       style="baseline-shift:baseline;display:inline;overflow:visible;vector-effect:none;stroke-width:0.260417;stroke-linecap:square;stroke-miterlimit:7.9;enable-background:accumulate;stop-color:#000000"
       d="M 90.139309,-8.9559796e-5 V 9.9627964 l 6.25585,6.2499996 6.041021,10e-6 4.04102,-4.20117 h 11.67968 l 1.70508,1.67578 0.0742,0.0723 0.14453,-0.14844 -0.0742,-0.0723 -1.76367,-1.73438 H 106.3893 l -4.04101,4.20313 H 96.481099 L 90.346339,9.8768664 V -8.9559796e-5"
       id="path17-9-6" /><path
       style="baseline-shift:baseline;display:inline;overflow:visible;vector-effect:none;stroke-width:0.260417;stroke-linecap:square;stroke-miterlimit:7.9;enable-background:accumulate;stop-color:#000000"
       d="m 132.29165,17.947186 h -11.91016 -0.10351 v 0.20703 h 0.10351 11.91016 m -12.35742,-4.39453 0.14648,-0.14648 -0.0742,-0.0723 -1.25586,-1.25781 -0.0723,-0.0723 -0.14649,0.14649 0.0723,0.0723 1.25781,1.25586 z M 114.13735,-7.9559796e-5 V 11.908126 v 0.10351 h 0.20703 V 11.908126 -7.9559796e-5"
       id="path24-4-0" /><path
       style="baseline-shift:baseline;display:inline;overflow:visible;vector-effect:none;stroke-width:0.260417;stroke-linecap:square;stroke-miterlimit:7.9;enable-background:accumulate;stop-color:#000000"
       d="m 116.18032,35.999918 0.14648,-0.146484 -0.0723,-0.07422 -19.744151,-19.742188 -0.0723,-0.0723 -0.14647,0.14457 0.0723,0.0742 19.744141,19.742184 z"
       id="path30-0-1" /><path
       style="baseline-shift:baseline;display:inline;overflow:visible;vector-effect:none;stroke-width:0.260417;stroke-linecap:square;stroke-miterlimit:7.9;enable-background:accumulate;stop-color:#000000"
       d="m 107.89126,49.201088 0.14648,-0.146482 -0.0742,-0.07422 -24.548821,-24.25586 -0.0742,-0.0742 -0.14454,0.14844 0.0723,0.0723 24.548831,24.257807 z"
       id="path31-6-6" /><path
       style="baseline-shift:baseline;display:inline;overflow:visible;vector-effect:none;stroke-width:0.260417;stroke-linecap:square;stroke-miterlimit:7.9;enable-background:accumulate;stop-color:#000000"
       d="m 92.399069,55.019453 3.98437,-3.968753 h 5.847661 l 1.62109,1.853513 h 4.03907 0.10351 v -0.207031 l -0.10414,0.114388 -3.94469,-0.114388 -1.62109,-1.85156 h -6.025391 l -3.98633,3.968751 h -4.36132 -0.10352 v 0.20508 h 0.10352 z"
       id="path35-1-5" /><path
       style="baseline-shift:baseline;display:inline;overflow:visible;vector-effect:none;stroke-width:0.260417;stroke-linecap:square;stroke-miterlimit:7.9;enable-background:accumulate;stop-color:#000000"
       d="m 78.486959,46.601481 c 0.58218,0 1.05469,-0.474469 1.05469,-1.056641 0,-0.582174 -0.47251,-1.054687 -1.05469,-1.054687 -0.58217,0 -1.05664,0.472513 -1.05664,1.054687 0,0.582172 0.47447,1.056641 1.05664,1.056641 z m 0,-0.207031 c -0.47046,0 -0.8496,-0.379149 -0.8496,-0.84961 0,-0.470463 0.37914,-0.849609 0.8496,-0.849609 0.47047,0 0.84961,0.379146 0.84961,0.849609 0,0.470461 -0.37914,0.84961 -0.84961,0.84961 z"
       id="circle42-9-7" /><g
       id="circle44-6-5"
       style="display:inline;stroke-width:0.260417"
       transform="rotate(180,66.145825,66.145467)"><path
         style="baseline-shift:baseline;display:inline;overflow:visible;vector-effect:none;fill:#97bdcf;stroke-linecap:square;stroke-miterlimit:7.9;enable-background:accumulate;stop-color:#000000;stop-opacity:1"
         d="m 17.268607,83.762276 a 0.9529829,0.9529829 0 0 1 -0.952983,0.952983 0.9529829,0.9529829 0 0 1 -0.952983,-0.952983 0.9529829,0.9529829 0 0 1 0.952983,-0.952983 0.9529829,0.9529829 0 0 1 0.952983,0.952983 z"
         id="path1-3-4" /><path
         style="baseline-shift:baseline;display:inline;overflow:visible;vector-effect:none;stroke-linecap:square;stroke-miterlimit:7.9;enable-background:accumulate;stop-color:#000000;stop-opacity:1"
         d="m 16.316406,82.705078 c -0.582174,0 -1.05664,0.474467 -1.05664,1.056641 0,0.582174 0.474466,1.05664 1.05664,1.05664 0.582174,0 1.054688,-0.474466 1.054688,-1.05664 0,-0.582174 -0.472514,-1.056641 -1.054688,-1.056641 z m 0,0.207031 c 0.470462,0 0.84961,0.379148 0.84961,0.84961 0,0.470462 -0.379148,0.849609 -0.84961,0.849609 -0.470462,0 -0.849609,-0.379147 -0.849609,-0.849609 0,-0.470462 0.379147,-0.84961 0.849609,-0.84961 z"
         id="path4-7-1" /></g><g
       id="circle48-8-2"
       style="display:inline;stroke-width:0.260417"
       transform="rotate(-90,132.29129,-3.5692294e-4)"><path
         style="baseline-shift:baseline;display:inline;overflow:visible;vector-effect:none;fill:#97bdcf;stroke-linecap:square;stroke-miterlimit:7.9;enable-background:accumulate;stop-color:#000000;stop-opacity:1"
         d="m 116.46463,-48.603245 a 0.9529829,0.9529829 0 0 1 -0.95299,0.952983 0.9529829,0.9529829 0 0 1 -0.95298,-0.952983 0.9529829,0.9529829 0 0 1 0.95298,-0.952983 0.9529829,0.9529829 0 0 1 0.95299,0.952983 z"
         id="path16-2-0" /><path
         style="baseline-shift:baseline;display:inline;overflow:visible;vector-effect:none;stroke-linecap:square;stroke-miterlimit:7.9;enable-background:accumulate;stop-color:#000000;stop-opacity:1"
         d="m 115.51172,-49.660156 c -0.58218,0 -1.05664,0.474467 -1.05664,1.05664 0,0.582174 0.47446,1.056641 1.05664,1.056641 0.58217,0 1.05664,-0.474467 1.05664,-1.056641 0,-0.582173 -0.47447,-1.05664 -1.05664,-1.05664 z m 0,0.207031 c 0.47046,0 0.84961,0.379147 0.84961,0.849609 0,0.470462 -0.37915,0.84961 -0.84961,0.84961 -0.47046,0 -0.84961,-0.379148 -0.84961,-0.84961 0,-0.470462 0.37915,-0.849609 0.84961,-0.849609 z"
         id="path19-9-0" /></g><path
       style="baseline-shift:baseline;display:inline;overflow:visible;vector-effect:none;stroke-width:0.260417;stroke-linecap:square;stroke-miterlimit:7.9;enable-background:accumulate;stop-color:#000000"
       d="m 84.727199,49.837807 c 0,0.582174 0.47447,1.056643 1.05664,1.056643 0.58217,0 1.05664,-0.474469 1.05664,-1.056643 0,-0.582172 -0.47447,-1.056641 -1.05664,-1.056641 -0.58217,0 -1.05664,0.474469 -1.05664,1.056641 z m 0.20703,0 c 0,-0.470461 0.37915,-0.849607 0.84961,-0.849607 0.47046,0 0.84961,0.379146 0.84961,0.849607 0,0.470463 -0.37915,0.849609 -0.84961,0.849609 -0.47046,0 -0.84961,-0.379146 -0.84961,-0.849609 z"
       id="circle88-5-1" /><path
       style="display:inline;fill:#97bdcf;stroke:none;stroke-width:0.206706;stroke-linecap:square;stroke-miterlimit:7.9"
       d="m 51.527599,47.716091 h 29.23645 V 35.584837 h -29.23645 z"
       id="path82-4" /><circle
       style="display:inline;fill:#909eb1;stroke:none;stroke-width:0.206706;stroke-linecap:square;stroke-miterlimit:7.9"
       id="circle72-6"
       cx="53.805519"
       cy="-45.545776"
       r="0.86801332"
       transform="scale(1,-1)" /><ellipse
       style="display:inline;fill:#909eb1;stroke:none;stroke-width:0.206706;stroke-linecap:square;stroke-miterlimit:7.9"
       id="circle73-0"
       cx="48.600975"
       cy="-16.776995"
       rx="0.95072055"
       ry="0.95060092"
       transform="scale(1,-1)" /><ellipse
       style="display:inline;fill:#909eb1;stroke:none;stroke-width:0.206706;stroke-linecap:square;stroke-miterlimit:7.9"
       id="circle78-7"
       cx="16.317083"
       cy="-48.531052"
       rx="0.95151544"
       ry="0.95067775"
       transform="scale(1,-1)" /><ellipse
       style="display:inline;fill:#97bdcf;stroke:none;stroke-width:0.206706;stroke-linecap:square;stroke-miterlimit:7.9"
       id="circle90-7"
       cy="-49.839928"
       cx="46.505455"
       rx="0.95059967"
       ry="0.95072216"
       transform="scale(1,-1)" /><path
       style="baseline-shift:baseline;display:inline;overflow:visible;vector-effect:none;stroke-width:0.260417;stroke-linecap:square;stroke-miterlimit:7.9;enable-background:accumulate;stop-color:#000000"
       d="M -7.1392458e-7,41.945314 H 9.8769493 l 6.1308597,-6.134766 v -5.867192 l -4.20117,-4.04101 v -11.85352 l 1.73437,-1.76367 0.0723,-0.0742 0.14649,0.14453 -0.0723,0.0742 -1.67383,1.70313 v 11.68164 l 4.20117,4.04101 v 6.04102 L 9.9628993,42.152345 H 9.2860755e-6"
       id="path15-7" /><path
       style="baseline-shift:baseline;display:inline;overflow:visible;vector-effect:none;stroke-width:0.260417;stroke-linecap:square;stroke-miterlimit:7.9;enable-background:accumulate;stop-color:#000000"
       d="M 42.152339,-9.5597964e-6 V 9.9628764 l -6.25586,6.2499996 -6.04101,10e-6 -4.04102,-4.20117 h -11.67969 l -1.70507,1.67578 -0.0742,0.0723 -0.14454,-0.14844 0.0742,-0.0723 1.76368,-1.73438 h 11.85351 l 4.04102,4.20313 h 5.86719 l 6.13476,-6.1308596 V -9.5597964e-6"
       id="path17-7" /><path
       style="baseline-shift:baseline;display:inline;overflow:visible;vector-effect:none;stroke-width:0.260417;stroke-linecap:square;stroke-miterlimit:7.9;enable-background:accumulate;stop-color:#000000"
       d="m 48.847649,24.900386 v -5.69726 h -2.66015 v -9.17969 h -4.13867 -0.10352 V 9.8164064 h 0.10352 4.34375 v 9.1816396 h 2.66015 v 5.69531 h 34.08008 v -5.65039 h 2.75 l 0.0117,-8.99804 4.34766,-0.0117 h 0.10351 v 0.20703 h -0.10351 l -4.14258,0.01 -0.01,8.99805 h -2.75 v 5.65234 z"
       id="path18-3" /><path
       style="baseline-shift:baseline;display:inline;overflow:visible;vector-effect:none;stroke-width:0.260417;stroke-linecap:square;stroke-miterlimit:7.9;enable-background:accumulate;stop-color:#000000"
       d="M -7.1392458e-7,17.947266 H 11.910149 h 0.10352 v 0.20703 H 11.910149 -7.1392458e-7 M 12.357419,13.759766 l -0.14648,-0.14648 0.0742,-0.0723 1.25586,-1.25781 0.0723,-0.0723 0.14648,0.14649 -0.0723,0.0723 -1.25781,1.25586 z M 18.154289,4.4020362e-7 V 11.908206 v 0.10351 h -0.20703 V 11.908206 4.4020362e-7"
       id="path24-3" /><path
       style="baseline-shift:baseline;display:inline;overflow:visible;vector-effect:none;stroke-width:0.260417;stroke-linecap:square;stroke-miterlimit:7.9;enable-background:accumulate;stop-color:#000000"
       d="M 51.423829,47.820314 V 35.482423 h 29.44335 v 12.337891 z m 0.20703,-0.207031 h 29.02929 V 35.687501 h -29.02929 z"
       id="rect25-2-5" /><path
       style="baseline-shift:baseline;display:inline;overflow:visible;vector-effect:none;stroke-width:0.260417;stroke-linecap:square;stroke-miterlimit:7.9;enable-background:accumulate;stop-color:#000000"
       d="m 16.111329,36.000001 -0.14649,-0.146484 0.0723,-0.07422 19.74414,-19.742191 0.0723,-0.0723 0.14648,0.14457 -0.0723,0.0742 -19.74414,19.742187 z"
       id="path30-9" /><path
       style="baseline-shift:baseline;display:inline;overflow:visible;vector-effect:none;stroke-width:0.260417;stroke-linecap:square;stroke-miterlimit:7.9;enable-background:accumulate;stop-color:#000000"
       d="m 24.400389,49.201173 -0.14649,-0.146484 0.0742,-0.07422 24.54883,-24.255863 0.0742,-0.0742 0.14453,0.14844 -0.0723,0.0723 -24.54883,24.257811 z"
       id="path31-9" /><path
       style="baseline-shift:baseline;display:inline;overflow:visible;vector-effect:none;stroke-width:0.260417;stroke-linecap:square;stroke-miterlimit:7.9;enable-background:accumulate;stop-color:#000000"
       d="m 39.892579,55.019533 -3.98438,-3.96875 h -5.84766 l -1.62109,1.853515 h -4.03906 -0.10352 v -0.207031 h 0.10352 3.94531 l 1.62109,-1.851562 h 6.02539 l 3.98633,3.968748 h 4.36133 0.10352 v 0.20508 h -0.10352 z"
       id="path35-8" /><path
       style="baseline-shift:baseline;display:inline;overflow:visible;vector-effect:none;stroke-width:0.260417;stroke-linecap:square;stroke-miterlimit:7.9;enable-background:accumulate;stop-color:#000000"
       d="m 51.503899,35.728517 -0.0606,-0.08398 -2.75586,-3.8379 v -2.714841 h 34.92579 v 2.707031 l -2.76563,3.84571 -0.0606,0.08398 -0.16797,-0.119141 0.0606,-0.08398 2.72657,-3.792969 v -2.435551 h -34.51172 v 2.443361 l 2.7168,3.785159 0.0606,0.08398 z"
       id="path39-1" /><path
       style="baseline-shift:baseline;display:inline;overflow:visible;vector-effect:none;stroke-width:0.260417;stroke-linecap:square;stroke-miterlimit:7.9;enable-background:accumulate;stop-color:#000000"
       d="m 53.804679,46.601564 c -0.58217,0 -1.05468,-0.474467 -1.05468,-1.056641 0,-0.582174 0.47251,-1.054687 1.05468,-1.054687 0.58218,0 1.05665,0.472513 1.05665,1.054687 0,0.582174 -0.47447,1.056641 -1.05665,1.056641 z m 0,-0.207031 c 0.47047,0 0.84961,-0.379148 0.84961,-0.84961 0,-0.470462 -0.37914,-0.849609 -0.84961,-0.849609 -0.47046,0 -0.8496,0.379147 -0.8496,0.849609 0,0.470462 0.37914,0.84961 0.8496,0.84961 z"
       id="circle42-8" /><g
       id="circle44-2"
       style="stroke-width:0.260417"
       transform="matrix(1,0,0,-1,-7.1392456e-7,132.29101)"><path
         style="baseline-shift:baseline;display:inline;overflow:visible;vector-effect:none;fill:#97bdcf;stroke-linecap:square;stroke-miterlimit:7.9;enable-background:accumulate;stop-color:#000000;stop-opacity:1"
         d="m 17.268607,83.762276 a 0.9529829,0.9529829 0 0 1 -0.952983,0.952983 0.9529829,0.9529829 0 0 1 -0.952983,-0.952983 0.9529829,0.9529829 0 0 1 0.952983,-0.952983 0.9529829,0.9529829 0 0 1 0.952983,0.952983 z"
         id="path1-6" /><path
         style="baseline-shift:baseline;display:inline;overflow:visible;vector-effect:none;stroke-linecap:square;stroke-miterlimit:7.9;enable-background:accumulate;stop-color:#000000;stop-opacity:1"
         d="m 16.316406,82.705078 c -0.582174,0 -1.05664,0.474467 -1.05664,1.056641 0,0.582174 0.474466,1.05664 1.05664,1.05664 0.582174,0 1.054688,-0.474466 1.054688,-1.05664 0,-0.582174 -0.472514,-1.056641 -1.054688,-1.056641 z m 0,0.207031 c 0.470462,0 0.84961,0.379148 0.84961,0.84961 0,0.470462 -0.379148,0.849609 -0.84961,0.849609 -0.470462,0 -0.849609,-0.379147 -0.849609,-0.849609 0,-0.470462 0.379147,-0.84961 0.849609,-0.84961 z"
         id="path4-6" /></g><g
       id="circle48-0"
       style="stroke-width:0.260417"
       transform="matrix(0,-1,-1,0,-7.1392456e-7,132.29101)"><path
         style="baseline-shift:baseline;display:inline;overflow:visible;vector-effect:none;fill:#97bdcf;stroke-linecap:square;stroke-miterlimit:7.9;enable-background:accumulate;stop-color:#000000;stop-opacity:1"
         d="m 116.46463,-48.603245 a 0.9529829,0.9529829 0 0 1 -0.95299,0.952983 0.9529829,0.9529829 0 0 1 -0.95298,-0.952983 0.9529829,0.9529829 0 0 1 0.95298,-0.952983 0.9529829,0.9529829 0 0 1 0.95299,0.952983 z"
         id="path16-3" /><path
         style="baseline-shift:baseline;display:inline;overflow:visible;vector-effect:none;stroke-linecap:square;stroke-miterlimit:7.9;enable-background:accumulate;stop-color:#000000;stop-opacity:1"
         d="m 115.51172,-49.660156 c -0.58218,0 -1.05664,0.474467 -1.05664,1.05664 0,0.582174 0.47446,1.056641 1.05664,1.056641 0.58217,0 1.05664,-0.474467 1.05664,-1.056641 0,-0.582173 -0.47447,-1.05664 -1.05664,-1.05664 z m 0,0.207031 c 0.47046,0 0.84961,0.379147 0.84961,0.849609 0,0.470462 -0.37915,0.84961 -0.84961,0.84961 -0.47046,0 -0.84961,-0.379148 -0.84961,-0.84961 0,-0.470462 0.37915,-0.849609 0.84961,-0.849609 z"
         id="path19-8" /></g><path
       style="baseline-shift:baseline;display:inline;overflow:visible;vector-effect:none;stroke-width:0.260417;stroke-linecap:square;stroke-miterlimit:7.9;enable-background:accumulate;stop-color:#000000"
       d="m 47.564449,49.837892 c 0,0.582174 -0.47447,1.056641 -1.05664,1.056641 -0.58217,0 -1.05664,-0.474467 -1.05664,-1.056641 0,-0.582174 0.47447,-1.056641 1.05664,-1.056641 0.58217,0 1.05664,0.474467 1.05664,1.056641 z m -0.20703,0 c 0,-0.470462 -0.37915,-0.849609 -0.84961,-0.849609 -0.47046,0 -0.84961,0.379147 -0.84961,0.849609 0,0.470462 0.37915,0.849609 0.84961,0.849609 0.47046,0 0.84961,-0.379147 0.84961,-0.849609 z"
       id="circle88-0" /></g></svg>
