<?xml version="1.0" encoding="UTF-8" standalone="no"?>
<!-- Created with Inkscape (http://www.inkscape.org/) -->

<svg
   width="500"
   height="500"
   viewBox="0 0 132.29166 132.29167"
   version="1.1"
   id="svg1"
   xml:space="preserve"
   xmlns="http://www.w3.org/2000/svg"
   xmlns:svg="http://www.w3.org/2000/svg"><defs
     id="defs1" /><g
     id="layer1"><path
       style="baseline-shift:baseline;display:inline;overflow:visible;opacity:1;vector-effect:none;fill:#66a6d5;stroke-linecap:square;stroke-miterlimit:7.9;enable-background:accumulate;stop-color:#000000;stop-opacity:1"
       d="M 0.55423061,8.903475 C 0.7572365,4.0918994 3.2436913,1.2563653 8.0135951,0.39687321 H 32.980711 l 5.074534,4.92709129 h 57.609644 l 4.969251,-4.92709129 h 24.37683 c 5.11557,0.82096189 6.82269,4.01608489 7.28069,8.32284029 V 81.672822 c -0.31127,8.500351 -2.97474,12.771198 -7.9904,12.812543 H 99.550867 V 28.106498 H 33.359722 V 94.506421 H 8.3225408 C 3.0983553,94.447571 0.50891855,90.173166 0.55423061,81.683204 Z"
       id="path14" /><path
       style="fill:#38fdfa;stroke:none;stroke-width:0.79375;stroke-linecap:square;stroke-miterlimit:7.9"
       d="m 20.841131,94.506422 h 4.129648 V 63.632291 l -4.2926,-1.432925 z"
       id="path16" /><path
       style="fill:#38fdfa;stroke:none;stroke-width:0.79375;stroke-linecap:square;stroke-miterlimit:7.9"
       d="m 20.687109,33.151378 4.21752,-1.318696 v -8.715539 l 3.182058,-2.80633 H 55.137401 L 52.89932,16.615812 H 25.565364 l -4.878255,4.881584 z"
       id="path17" /><path
       style="fill:#38fdfa;stroke:none;stroke-width:0.79375;stroke-linecap:square;stroke-miterlimit:7.9"
       d="m 80.518285,16.697667 26.158405,0.02201 5.22374,4.935835 v 11.649985 l -4.51339,-1.472816 v -8.598958 l -3.24296,-2.82352 H 78.24209 Z"
       id="path18" /><path
       style="fill:#38fdfa;stroke:none;stroke-width:0.79375;stroke-linecap:square;stroke-miterlimit:7.9"
       d="m 107.32089,63.632291 4.57555,-1.408613 0.0296,32.261688 h -4.60517 z"
       id="path19" /><path
       style="fill:#d9e9f2;stroke:none;stroke-width:0.79375;stroke-linecap:square;stroke-miterlimit:7.9"
       d="m 14.883539,35.751822 10.02109,-3.91914 2.290299,1.570963 v 28.541927 l -2.224149,1.686719 -10.08724,-3.852995 z"
       id="path20" /><path
       style="fill:#d9e9f2;stroke:none;stroke-width:0.79375;stroke-linecap:square;stroke-miterlimit:7.9"
       d="m 107.38704,31.832682 -2.2903,1.570963 v 28.541927 l 2.22415,1.686719 10.08724,-3.852995 V 35.751822 Z"
       id="path21" /><path
       style="fill:#d9e9f2;stroke:none;stroke-width:0.79375;stroke-linecap:square;stroke-miterlimit:7.9"
       d="m 52.89932,16.615812 2.285989,-2.666013 23.228229,0.05846 2.104747,2.689399 -4.419971,6.30255 H 57.190666 Z"
       id="path22" /><rect
       style="fill:#38fdfa;stroke:none;stroke-width:0.793749;stroke-linecap:square;stroke-miterlimit:7.9"
       id="rect28"
       width="3.1103494"
       height="66.79744"
       x="36.482288"
       y="27.708981" /><rect
       style="fill:#38fdfa;stroke:none;stroke-width:0.793749;stroke-linecap:square;stroke-miterlimit:7.9"
       id="rect29"
       width="3.1103494"
       height="66.79744"
       x="43.179554"
       y="27.708981" /><rect
       style="fill:#38fdfa;stroke:none;stroke-width:0.793749;stroke-linecap:square;stroke-miterlimit:7.9"
       id="rect30"
       width="3.1103494"
       height="66.79744"
       x="51.013893"
       y="27.708981" /><rect
       style="fill:#38fdfa;stroke:none;stroke-width:0.793749;stroke-linecap:square;stroke-miterlimit:7.9"
       id="rect31"
       width="3.1103494"
       height="66.79744"
       x="58.286964"
       y="27.708981" /><rect
       style="fill:#38fdfa;stroke:none;stroke-width:0.793749;stroke-linecap:square;stroke-miterlimit:7.9"
       id="rect32"
       width="3.1103494"
       height="66.79744"
       x="64.928612"
       y="27.708981" /><rect
       style="fill:#38fdfa;stroke:none;stroke-width:0.793749;stroke-linecap:square;stroke-miterlimit:7.9"
       id="rect33"
       width="3.1103494"
       height="66.79744"
       x="71.523491"
       y="27.708981" /><rect
       style="fill:#38fdfa;stroke:none;stroke-width:0.793749;stroke-linecap:square;stroke-miterlimit:7.9"
       id="rect34"
       width="3.1103494"
       height="66.79744"
       x="79.007034"
       y="27.708981" /><rect
       style="fill:#38fdfa;stroke:none;stroke-width:0.793749;stroke-linecap:square;stroke-miterlimit:7.9"
       id="rect35"
       width="3.1103494"
       height="66.79744"
       x="86.677673"
       y="27.708981" /><rect
       style="fill:#38fdfa;stroke:none;stroke-width:0.793749;stroke-linecap:square;stroke-miterlimit:7.9"
       id="rect36"
       width="3.1103494"
       height="66.79744"
       x="93.412865"
       y="27.708981" /><path
       style="fill:#97bdcf;stroke:none;stroke-width:0.79375;stroke-linecap:square;stroke-miterlimit:7.9"
       d="m 14.883539,39.952083 12.311389,-4.77855 v -1.769888 l -2.290299,-1.570963 -10.02109,3.91914 z"
       id="path36" /><path
       style="fill:#97bdcf;stroke:none;stroke-width:0.79375;stroke-linecap:square;stroke-miterlimit:7.9"
       d="m 52.89932,16.615812 h 2.403184 l 1.138785,0.949951 1.102331,-0.804292 h 18.538319 l 1.097963,0.790937 1.070647,-0.717504 h 2.183596 l -2.020607,-2.82664 -23.228229,-0.05846 z"
       id="path37" /><circle
       style="fill:#909eb1;stroke:none;stroke-width:0.793747;stroke-linecap:square;stroke-miterlimit:7.9"
       id="path23"
       cx="56.516766"
       cy="16.408211"
       r="1.082073" /><circle
       style="fill:#909eb1;stroke:none;stroke-width:0.793747;stroke-linecap:square;stroke-miterlimit:7.9"
       id="circle23"
       cx="77.255379"
       cy="16.394855"
       r="1.082073" /><circle
       style="fill:#909eb1;stroke:none;stroke-width:0.793747;stroke-linecap:square;stroke-miterlimit:7.9"
       id="circle24"
       cx="115.00314"
       cy="37.736198"
       r="1.082073" /><circle
       style="fill:#909eb1;stroke:none;stroke-width:0.793747;stroke-linecap:square;stroke-miterlimit:7.9"
       id="circle25"
       cx="114.92766"
       cy="57.996014"
       r="1.082073" /><circle
       style="fill:#909eb1;stroke:none;stroke-width:0.793747;stroke-linecap:square;stroke-miterlimit:7.9"
       id="circle26"
       cx="17.432598"
       cy="58.047539"
       r="1.082073" /><circle
       style="fill:#909eb1;stroke:none;stroke-width:0.793747;stroke-linecap:square;stroke-miterlimit:7.9"
       id="circle27"
       cx="17.613106"
       cy="37.784809"
       r="1.082073" /><circle
       style="fill:#38fdfa;stroke:#000000;stroke-width:0.79375;stroke-linecap:square;stroke-miterlimit:7.9"
       id="path27"
       cx="17.133112"
       cy="13.061816"
       r="3.1571212" /><circle
       style="fill:#38fdfa;stroke:#000000;stroke-width:0.79375;stroke-linecap:square;stroke-miterlimit:7.9"
       id="circle28"
       cx="115.8513"
       cy="12.746462"
       r="3.1571212" /></g><g
     id="layer4"><path
       style="baseline-shift:baseline;display:inline;overflow:visible;opacity:1;vector-effect:none;stroke-linecap:square;stroke-miterlimit:7.9;enable-background:accumulate;stop-color:#000000;stop-opacity:1"
       d="M 7.9785156,0 7.9433594,0.00585938 C 5.4952899,0.44697862 3.586503,1.4088402 2.2734375,2.90625 0.96037203,4.4036598 0.26244432,6.4160299 0.15820312,8.8867188 v 0.00781 72.7890632 c -0.0226446,4.284595 0.6094909,7.542004 1.96484378,9.779297 1.3555852,2.237675 3.4757384,3.408817 6.1953125,3.439453 h 0.00195 25.4355466 V 28.503906 h 65.398438 v 66.378906 h 25.148436 0.002 c 2.61988,-0.0216 4.70117,-1.192025 6.09179,-3.421875 1.39063,-2.229849 2.13396,-5.484322 2.29102,-9.773437 l 0.002,-0.0078 V 8.6992188 l -0.004,-0.021484 C 132.45215,6.4830588 131.8992,4.5306016 130.71093,3.0078129 129.52265,1.4850242 127.70471,0.42801036 125.07421,0.00585978 L 125.04297,0 H 100.4707 L 95.501953,4.9277344 H 38.216797 L 33.142578,0 Z m 0.087891,0.79296875 H 32.820312 l 5.074219,4.92773435 h 57.933594 l 4.968755,-4.92773435 h 24.1621 c 2.47699,0.40014405 4.07029,1.34899405 5.12696,2.70312505 1.0569,1.3544316 1.58334,3.1483656 1.80859,5.2558593 V 81.658203 c -0.15421,4.211236 -0.89707,7.341814 -2.16992,9.382813 -1.27247,2.040397 -3.02914,3.026563 -5.42383,3.046875 H 99.947266 V 27.708984 H 32.962891 V 94.109375 H 8.3261719 8.3222656 C 5.8199013,94.080076 4.035882,93.086349 2.8027344,91.050781 1.5688829,89.014052 0.92873308,85.889825 0.95117188,81.685547 v -0.002 V 8.9199219 C 1.0499366,6.5790351 1.6957513,4.7678117 2.8691406,3.4296875 4.0391227,2.095449 5.7548044,1.2128337 8.0664066,0.79296875 Z"
       id="path15" /><path
       style="fill:none;stroke:#000000;stroke-width:0.79375;stroke-linecap:square;stroke-miterlimit:7.9"
       d="m 55.185309,13.949799 -2.285989,2.666013 4.291346,6.384401 h 18.907648 l 4.419971,-6.30255 -2.104747,-2.689399 z"
       id="path2" /><g
       id="g4"
       transform="translate(-7.235e-4)"><path
         style="fill:none;stroke:#000000;stroke-width:0.79375;stroke-linecap:square;stroke-miterlimit:7.9"
         d="m 105.09746,33.403645 v 28.541927 l 2.22415,1.686719 10.08724,-3.852995 V 35.751822 l -10.02109,-3.91914 z m -77.901808,0 v 28.541927 l -2.22415,1.686719 -10.08724,-3.852995 V 35.751822 l 10.02109,-3.91914 z"
         id="path3" /><path
         style="fill:none;stroke:#000000;stroke-width:0.79375;stroke-linecap:square;stroke-miterlimit:7.9"
         id="path4"
         d="m 116.08593,37.736198 c 0,0.639299 -0.51825,1.157553 -1.15755,1.157553 -0.6393,0 -1.15755,-0.518254 -1.15755,-1.157553 0,-0.639298 0.51825,-1.157552 1.15755,-1.157552 0.6393,0 1.15755,0.518254 1.15755,1.157552 z m -99.878753,0 c 0,0.639299 0.518254,1.157553 1.157552,1.157553 0.639299,0 1.157552,-0.518254 1.157552,-1.157553 0,-0.639298 -0.518253,-1.157552 -1.157552,-1.157552 -0.639298,0 -1.157552,0.518254 -1.157552,1.157552 z" /><path
         style="fill:none;stroke:#000000;stroke-width:0.79375;stroke-linecap:square;stroke-miterlimit:7.9"
         id="circle4"
         d="m 116.08593,57.920536 c 0,0.639298 -0.51825,1.157552 -1.15755,1.157552 -0.6393,0 -1.15755,-0.518254 -1.15755,-1.157552 0,-0.639298 0.51825,-1.157552 1.15755,-1.157552 0.6393,0 1.15755,0.518254 1.15755,1.157552 z m -99.878753,0 c 0,0.639298 0.518254,1.157552 1.157552,1.157552 0.639299,0 1.157552,-0.518254 1.157552,-1.157552 0,-0.639298 -0.518253,-1.157552 -1.157552,-1.157552 -0.639298,0 -1.157552,0.518254 -1.157552,1.157552 z" /></g><path
       style="fill:none;stroke:#000000;stroke-width:0.79375;stroke-linecap:square;stroke-miterlimit:7.9"
       d="M 20.678179,62.199365 V 94.506421"
       id="path5" /><path
       style="fill:none;stroke:#000000;stroke-width:0.79375;stroke-linecap:square;stroke-miterlimit:7.9"
       d="M 24.970779,63.632291 V 94.506422"
       id="path6" /><path
       style="fill:none;stroke:#000000;stroke-width:0.79375;stroke-linecap:square;stroke-miterlimit:7.9"
       d="m 24.904629,31.832682 v -8.715539 l 3.182058,-2.80633 h 27.050715"
       id="path7" /><path
       style="fill:none;stroke:#000000;stroke-width:0.79375;stroke-linecap:square;stroke-miterlimit:7.9"
       d="M 52.89932,16.615812 H 25.565364 l -4.878255,4.881584 v 11.653983"
       id="path8" /><path
       style="fill:none;stroke:#000000;stroke-width:0.79375;stroke-linecap:square;stroke-miterlimit:7.9"
       d="M 107.32089,63.632291 V 94.485366"
       id="path9" /><path
       style="fill:none;stroke:#000000;stroke-width:0.79375;stroke-linecap:square;stroke-miterlimit:7.9"
       d="M 111.89644,62.223678 V 94.485366"
       id="path10" /><path
       style="fill:none;stroke:#000000;stroke-width:0.79375;stroke-linecap:square;stroke-miterlimit:7.9"
       d="m 107.38704,31.832682 v -8.598958 l -3.24296,-2.82352 H 78.242089"
       id="path11" /><path
       style="fill:none;stroke:#000000;stroke-width:0.79375;stroke-linecap:square;stroke-miterlimit:7.9"
       d="M 111.90043,33.305497 V 21.655513 l -5.22374,-4.935836 -26.158405,-0.02201"
       id="path12" /><circle
       style="fill:none;stroke:#000000;stroke-width:0.793747;stroke-linecap:square;stroke-miterlimit:7.9"
       id="path13"
       cx="56.441288"
       cy="16.408211"
       r="1.1575521" /><circle
       style="fill:none;stroke:#000000;stroke-width:0.793747;stroke-linecap:square;stroke-miterlimit:7.9"
       id="circle13"
       cx="77.179901"
       cy="16.394855"
       r="1.1575521" /></g></svg>
