<?xml version="1.0" encoding="UTF-8" standalone="no"?>
<!-- Created with Inkscape (http://www.inkscape.org/) -->

<svg
   width="500"
   height="500"
   viewBox="0 0 132.29166 132.29167"
   version="1.1"
   id="svg1"
   xml:space="preserve"
   xmlns="http://www.w3.org/2000/svg"
   xmlns:svg="http://www.w3.org/2000/svg"><defs
     id="defs1" /><g
     id="layer2"
     style="display:none"><g
       id="layer1"><path
         style="fill:#d9e9f2;stroke:none;stroke-width:0.79375;stroke-linecap:square;stroke-miterlimit:7.9"
         d="M 0.42320207,32.70953 0.5681604,23.294577 2.2427385,14.323623 5.1732499,8.701825 9.6288237,4.6349927 15.669266,1.9736098 23.533802,0.77748267 30.232114,0.41864451 31.547855,0.5681604 31.099307,24.042156 21.619999,32.624368 Z"
         id="path7" /><path
         style="fill:#d9e9f2;stroke:none;stroke-width:0.79375;stroke-linecap:square;stroke-miterlimit:7.9"
         d="m 100.89333,0.4485477 0.50835,23.8328343 9.21018,8.582212 21.41068,-0.05981 -0.44855,-9.718533 -1.10642,-7.535601 -3.13983,-6.6086023 -4.60509,-4.3957673 -6.6086,-2.6912863 -9.47931,-1.37554622 z"
         id="path8" /><path
         style="fill:#d9e9f2;stroke:none;stroke-width:0.79375;stroke-linecap:square;stroke-miterlimit:7.9"
         d="m 101.21987,108.1342 9.40941,-8.479037 21.25047,-0.04229 -0.16916,10.107187 -1.22639,6.44915 -2.24135,5.8148 -3.44659,4.18666 -4.50383,2.72767 -7.40066,2.32592 -6.36457,0.71892 -5.49763,-0.0423 z"
         id="path9" /><path
         style="fill:#d9e9f2;stroke:none;stroke-width:0.79375;stroke-linecap:square;stroke-miterlimit:7.9"
         d="M 0.4651843,99.634018 H 21.863662 l 9.219106,8.711632 0.296026,23.59753 -10.741527,-0.54976 -8.331028,-2.11448 -5.6667905,-3.72147 -3.7637637,-5.83595 -1.9453162,-7.82355 -0.42289481,-7.44295 z"
         id="path10" /><path
         style="fill:#3b6996;stroke:none;stroke-width:0.79375;stroke-linecap:square;stroke-miterlimit:7.9"
         d="M 3.8483428,32.647479 3.8694883,99.549441 17.063807,99.697454 16.936938,32.5629 Z"
         id="path11" /><path
         style="fill:#3b6996;stroke:none;stroke-width:0.79375;stroke-linecap:square;stroke-miterlimit:7.9"
         d="M 31.336506,3.8060534 101.05072,4.1232245 101.21987,17.000372 30.9559,16.958082 Z"
         id="path12" /><path
         style="fill:#3b6996;stroke:none;stroke-width:0.79375;stroke-linecap:square;stroke-miterlimit:7.9"
         d="m 115.24685,32.654271 0.17942,66.953219 13.00788,-0.05981 V 32.684175 Z"
         id="path13" /><path
         style="fill:#3b6996;stroke:none;stroke-width:0.79375;stroke-linecap:square;stroke-miterlimit:7.9"
         d="m 31.294218,128.49659 69.756502,-0.10572 0.14801,-13.06745 -70.179396,-0.12687 z"
         id="path14" /><path
         style="fill:#66a6d5;stroke:none;stroke-width:0.79375;stroke-linecap:square;stroke-miterlimit:7.9"
         d="m 16.820538,32.654271 4.904122,0.04485 9.269986,-8.432696 0.269129,-7.475795 70.033245,0.149516 0.10466,7.371134 9.15037,8.328035 4.79946,0.134564 V 99.60749 h -4.76955 l -9.26999,8.37289 -0.0448,7.25152 -70.197716,0.11961 -0.239226,-7.55055 -9.135422,-8.253276 -4.664895,0.104661 z"
         id="path15" /><circle
         style="fill:#909eb1;stroke:none;stroke-width:0.79375;stroke-linecap:square;stroke-miterlimit:7.9"
         id="path16"
         cx="22.502142"
         cy="24.415947"
         r="2.7660441" /><circle
         style="fill:#909eb1;stroke:none;stroke-width:0.79375;stroke-linecap:square;stroke-miterlimit:7.9"
         id="path16-7"
         cx="22.453871"
         cy="107.84375"
         r="2.7660441" /><circle
         style="fill:#909eb1;stroke:none;stroke-width:0.79375;stroke-linecap:square;stroke-miterlimit:7.9"
         id="circle16"
         cx="109.69707"
         cy="107.88604"
         r="2.7660441" /><circle
         style="fill:#909eb1;stroke:none;stroke-width:0.79375;stroke-linecap:square;stroke-miterlimit:7.9"
         id="circle17"
         cx="109.69707"
         cy="24.279734"
         r="2.7660441" /><path
         style="fill:#97bdcf;stroke:none;stroke-width:0.79375;stroke-linecap:square;stroke-miterlimit:7.9"
         d="M 5.2650405,32.837784 C 3.688933,10.237904 13.767152,4.2019708 31.378794,5.8359484 V 0.42289481 C 9.6385615,-0.98208113 -1.7686265,8.6283582 0.38874133,32.699126 Z"
         id="path18" /><path
         style="fill:#375b87;stroke:none;stroke-width:0.79375;stroke-linecap:square;stroke-miterlimit:7.9"
         d="M 31.251927,5.9205275 H 100.94499 V 3.7637638 L 31.251927,3.8906323 Z"
         id="path19" /><path
         style="fill:#375b87;stroke:none;stroke-width:0.79375;stroke-linecap:square;stroke-miterlimit:7.9"
         d="m 31.336506,126.53013 h 69.819934 l -0.0423,1.98761 -69.904512,-0.12687 z"
         id="path20" /><path
         style="fill:#909eb1;stroke:none;stroke-width:0.79375;stroke-linecap:square;stroke-miterlimit:7.9"
         d="m 101.19873,126.61471 c 11.33715,-1.09028 24.82391,2.78456 25.54285,-26.980692 l 5.24389,-0.126868 c 1.15108,35.00138 -16.27538,30.82563 -30.99819,32.35145 z"
         id="path21" /></g><g
       id="layer4"><path
         id="path4"
         style="display:inline;fill:none;stroke:#000000;stroke-width:0.843401;stroke-linecap:square;stroke-miterlimit:7.9"
         d="M 103.12154,-2.6593153e-4 H 29.174521 L 28.770391,21.689329 l -9.795762,8.896902 -18.97489493153,0.0269 v 71.065399 l 18.97489493153,0.0269 9.795762,8.8969 0.40413,21.68959 h 73.942629 l 0.40413,-21.68959 9.79576,-8.8969 18.97489,-0.0269 V 30.623569 l -18.96995,-0.02636 -9.79576,-8.89745 z"
         transform="matrix(0.94112902,0,0,0.94112902,3.8940694,3.8940694)" /><path
         style="fill:none;stroke:#000000;stroke-width:0.79375;stroke-linecap:square;stroke-miterlimit:7.9"
         d="m 100.88028,0.41864451 0.44532,23.89780749 9.2191,8.373318 21.32832,0.0299 C 132.29166,10.854991 127.90604,0 100.88028,0.41864451 Z"
         id="path1" /><circle
         style="fill:none;stroke:#000000;stroke-width:0.79375;stroke-linecap:square;stroke-miterlimit:7.9"
         id="path2"
         cx="109.7412"
         cy="24.401031"
         r="2.9179742" /><path
         style="fill:none;stroke:#000000;stroke-width:0.79375;stroke-linecap:square;stroke-miterlimit:7.9"
         d="m 31.415943,0.40850483 -0.44532,23.89780717 -9.2191,8.373318 -21.32832093,0.0299 C 0.00456207,10.844851 4.3901826,-0.01013967 31.415943,0.40850483 Z"
         id="path1-7" /><circle
         style="fill:none;stroke:#000000;stroke-width:0.79375;stroke-linecap:square;stroke-miterlimit:7.9"
         id="path2-9"
         cx="-22.555014"
         cy="24.390892"
         r="2.9179742"
         transform="scale(-1,1)" /><path
         style="fill:none;stroke:#000000;stroke-width:0.79375;stroke-linecap:square;stroke-miterlimit:7.9"
         d="m 31.415943,131.88317 -0.44532,-23.89781 -9.2191,-8.373318 -21.32832093,-0.0299 C 0.00456207,121.44682 4.3901826,132.30181 31.415943,131.88317 Z"
         id="path1-7-2" /><circle
         style="fill:none;stroke:#000000;stroke-width:0.79375;stroke-linecap:square;stroke-miterlimit:7.9"
         id="path2-9-3"
         cx="-22.555014"
         cy="-107.90078"
         r="2.9179742"
         transform="scale(-1)" /><path
         style="fill:none;stroke:#000000;stroke-width:0.79375;stroke-linecap:square;stroke-miterlimit:7.9"
         d="m 100.87573,131.88317 0.44532,-23.89782 9.2191,-8.373318 21.32832,-0.0299 c 0.41864,21.864688 -3.96698,32.719678 -30.99274,32.301038 z"
         id="path1-7-2-3" /><circle
         style="fill:none;stroke:#000000;stroke-width:0.79375;stroke-linecap:square;stroke-miterlimit:7.9"
         id="path2-9-3-8"
         cx="109.73666"
         cy="-107.90077"
         r="2.9179742"
         transform="scale(1,-1)" /><path
         id="path6"
         style="fill:none;stroke:#000000;stroke-width:0.79375;stroke-linecap:square;stroke-miterlimit:7.9"
         d="M 101.18814,16.943152 H 31.108178 l -0.137459,7.363374 -9.219075,8.373133 -4.808492,0.0067 V 99.60527 l 4.808492,0.0067 9.219075,8.37313 0.137459,7.36337 h 70.075312 l 0.13746,-7.36337 9.21907,-8.37313 4.80849,-0.0067 V 32.696712 l -4.80384,-0.0067 -9.21907,-8.373649 z" /></g></g><g
     id="g40"
     style="display:none"><g
       id="g33"
       style="display:inline"><path
         style="fill:#d9e9f2;stroke:none;stroke-width:0.79375;stroke-linecap:square;stroke-miterlimit:7.9"
         d="m 100.89333,0.4485477 0.50835,23.8328343 9.21018,8.582212 21.41068,-0.05981 -0.44855,-9.718533 -1.10642,-7.535601 -3.13983,-6.6086023 -4.60509,-4.3957673 -6.6086,-2.6912863 -9.47931,-1.37554622 z"
         id="path5" /><path
         style="fill:#3b6996;stroke:none;stroke-width:0.79375;stroke-linecap:square;stroke-miterlimit:7.9"
         d="M 0,3.823593 100.97624,4.1232245 101.21987,17.000372 0.01756978,16.958082 Z"
         id="path24" /><path
         style="fill:#3b6996;stroke:none;stroke-width:0.79375;stroke-linecap:square;stroke-miterlimit:7.9"
         d="m 115.24685,32.65427 0.17942,99.68193 13.00788,-0.0445 V 32.698832 Z"
         id="path25" /><circle
         style="fill:#909eb1;stroke:none;stroke-width:0.79375;stroke-linecap:square;stroke-miterlimit:7.9"
         id="circle30"
         cx="109.69707"
         cy="24.279734"
         r="2.7660441" /><path
         style="fill:#66a6d5;stroke:none;stroke-width:0.79375;stroke-linecap:square;stroke-miterlimit:7.9"
         d="m 0,16.933334 101.21987,0.06704 0.10573,7.31608 9.2191,8.373318 4.81363,0.118563 V 132.29167 H 0 Z"
         id="path54" /></g><g
       id="g39"><path
         style="fill:none;stroke:#000000;stroke-width:0.79375;stroke-linecap:square;stroke-miterlimit:7.9"
         d="m 100.88028,0.41864451 0.44532,23.89780749 9.2191,8.373318 21.32832,0.0299 C 132.29166,10.854991 127.90604,0 100.88028,0.41864451 Z"
         id="path35" /><circle
         style="fill:none;stroke:#000000;stroke-width:0.79375;stroke-linecap:square;stroke-miterlimit:7.9"
         id="circle35"
         cx="109.7412"
         cy="24.401031"
         r="2.9179742" /><path
         id="path44"
         style="fill:none;stroke:#000000;stroke-width:0.79375;stroke-linecap:square;stroke-miterlimit:7.9"
         d="M 128.32292,128.13894 V 32.714799 l -12.94304,-0.01912 v 0 95.443271" /><path
         id="path53"
         style="fill:none;stroke:#000000;stroke-width:0.79375;stroke-linecap:square;stroke-miterlimit:7.9"
         d="m 128.32292,131.89479 v 0 -3.75585" /><path
         id="path51"
         style="fill:none;stroke:#000000;stroke-width:0.79375;stroke-linecap:square;stroke-miterlimit:7.9"
         d="m 115.37988,128.13895 v 3.75584 0" /><path
         id="path47"
         style="fill:none;stroke:#000000;stroke-width:0.79375;stroke-linecap:square;stroke-miterlimit:7.9"
         d="M 8.3519451,4.1115022 H 0.41444499 v 0 h -0.0217041" /><path
         id="path50"
         style="fill:none;stroke:#000000;stroke-width:0.79375;stroke-linecap:square;stroke-miterlimit:7.9"
         d="M 8.351945,16.943544 H 101.22018 L 100.96386,4.1115022 H 8.3519451" /><path
         id="path49"
         style="fill:none;stroke:#000000;stroke-width:0.79375;stroke-linecap:square;stroke-miterlimit:7.9"
         d="M 0.41444499,16.943544 H 8.351945" /></g></g><g
     id="g66"
     style="display:none"><g
       id="g58"
       style="display:inline"><path
         style="fill:#3b6996;stroke:none;stroke-width:0.79375;stroke-linecap:square;stroke-miterlimit:7.9"
         d="M 0,3.823593 132.29166,4.1232245 V 16.933334 H 0 Z"
         id="path56" /><rect
         style="fill:#66a6d5;stroke:none;stroke-width:0.793751;stroke-linecap:square;stroke-miterlimit:7.9"
         id="rect71"
         width="132.29166"
         height="115.35835"
         x="0"
         y="16.933321" /></g><g
       id="g65"><path
         style="fill:#66a6d5;stroke:#000000;stroke-width:0.79375;stroke-linecap:square;stroke-miterlimit:7.9"
         d="M 0.39687499,4.1115022 131.89484,4.1103422"
         id="path70" /><path
         style="fill:none;stroke:#000000;stroke-width:0.79375;stroke-linecap:square;stroke-miterlimit:7.9"
         d="M 0.39894205,16.958084 H 131.90719"
         id="path71" /></g></g><g
     id="g23"
     style="display:inline"><g
       id="layer3"><path
         style="display:inline;fill:#66a6d5;stroke:none;stroke-width:0.79375;stroke-linecap:square;stroke-miterlimit:7.9"
         d="m 0,0 h 115.09375 l 0.26458,5.8208335 1.5875,6.3500005 3.43959,3.175 5.29166,1.5875 6.61428,0.02442 V 132.29166 L 0,132.29167 Z"
         id="path29" /><path
         style="display:inline;fill:#3b6996;stroke:none;stroke-width:0.79375;stroke-linecap:square;stroke-miterlimit:7.9"
         d="m 115.1387,0.00195463 0.48422,7.67096217 2.11666,5.2916672 3.70417,2.910416 5.02708,1.058334 5.82053,0.02442 7.9e-4,-12.8464266 L 129.91042,3.7041666 128.32292,2.38125 127.98656,5e-8 Z"
         id="path30" /></g><g
       id="g22"
       style="display:inline"><path
         style="baseline-shift:baseline;display:inline;overflow:visible;opacity:1;vector-effect:none;stroke-linecap:square;stroke-miterlimit:7.9;enable-background:accumulate;stop-color:#000000;stop-opacity:1"
         d="m 114.74219,0 v 0 c -0.0316,7.1123907 0.9274,11.591608 3.69336,14.242188 2.76595,2.650579 7.17189,3.33973 13.85611,3.112771 v 0 l -6e-4,-0.794409 v 0 c -6.61691,0.224674 -10.7995,-0.488062 -13.30664,-2.890625 -2.50715,-2.402564 -3.48051,-6.6273184 -3.44922,-13.66601575 v 0 z"
         id="path27" /><path
         style="baseline-shift:baseline;display:inline;overflow:visible;opacity:1;vector-effect:none;stroke-linecap:square;stroke-miterlimit:7.9;enable-background:accumulate;stop-color:#000000;stop-opacity:1"
         d="m 128.38304,-0.00976558 -0.79296,0.01953126 v 0 c 0.039,1.66634742 0.3331,2.84886322 1.125,3.59765622 0.79191,0.7487929 1.97616,0.9629286 3.5918,0.9003906 v 0 l -0.0293,-0.7929687 v 0 C 130.74826,3.7740398 129.8158,3.5548434 129.26,3.0292969 128.70419,2.5037504 128.42003,1.570108 128.38304,-0.00976558 Z"
         id="path28" /></g></g><g
     id="g93"
     style="display:none"><g
       id="g86"><path
         style="fill:#d9e9f2;stroke:none;stroke-width:0.79375;stroke-linecap:square;stroke-miterlimit:7.9"
         d="m 100.89333,0.4485477 0.50835,23.8328343 9.21018,8.582212 21.41068,-0.05981 -0.44855,-9.718533 -1.10642,-7.535601 -3.13983,-6.6086023 -4.60509,-4.3957673 -6.6086,-2.6912863 -9.47931,-1.37554622 z"
         id="path73" /><path
         style="fill:#d9e9f2;stroke:none;stroke-width:0.79375;stroke-linecap:square;stroke-miterlimit:7.9"
         d="m 101.21987,108.1342 9.40941,-8.479037 21.25047,-0.04229 -0.16916,10.107187 -1.22639,6.44915 -2.24135,5.8148 -3.44659,4.18666 -4.50383,2.72767 -7.40066,2.32592 -6.36457,0.71892 -5.49763,-0.0423 z"
         id="path74" /><path
         style="fill:#3b6996;stroke:none;stroke-width:0.79375;stroke-linecap:square;stroke-miterlimit:7.9"
         d="M 0,3.8060534 100.9762,4.1232245 101.21987,17.000372 8.4822e-7,16.958082 Z"
         id="path77" /><path
         style="fill:#3b6996;stroke:none;stroke-width:0.79375;stroke-linecap:square;stroke-miterlimit:7.9"
         d="m 115.24685,32.654271 0.17942,66.953219 13.00788,-0.05981 V 32.684175 Z"
         id="path78" /><path
         style="fill:#3b6996;stroke:none;stroke-width:0.79375;stroke-linecap:square;stroke-miterlimit:7.9"
         d="m 0,128.49659 100.9853,-0.10572 0.21343,-13.06745 L 2.396004e-7,115.19655 Z"
         id="path79" /><circle
         style="fill:#909eb1;stroke:none;stroke-width:0.79375;stroke-linecap:square;stroke-miterlimit:7.9"
         id="circle82"
         cx="109.69707"
         cy="107.88604"
         r="2.7660441" /><circle
         style="fill:#909eb1;stroke:none;stroke-width:0.79375;stroke-linecap:square;stroke-miterlimit:7.9"
         id="circle83"
         cx="109.69707"
         cy="24.279734"
         r="2.7660441" /><path
         style="fill:#375b87;stroke:none;stroke-width:0.79375;stroke-linecap:square;stroke-miterlimit:7.9"
         d="M -2.0152279e-6,5.9205275 H 100.94498 V 3.7637638 L -2.0152279e-6,3.8906323 Z"
         id="path84" /><path
         style="fill:#375b87;stroke:none;stroke-width:0.79375;stroke-linecap:square;stroke-miterlimit:7.9"
         d="m 0,126.53013 h 101.15644 l -0.0611,1.98761 L 0,128.39087 Z"
         id="path85" /><path
         style="fill:#909eb1;stroke:none;stroke-width:0.79375;stroke-linecap:square;stroke-miterlimit:7.9"
         d="m 101.19873,126.61471 c 11.33715,-1.09028 24.82391,2.78456 25.54285,-26.980692 l 5.24389,-0.126868 c 1.15108,35.00138 -16.27538,30.82563 -30.99819,32.35145 z"
         id="path86" /><path
         style="fill:#66a6d5;stroke:none;stroke-width:0.79375;stroke-linecap:square;stroke-miterlimit:7.9"
         d="m 0,16.933334 h 101.2186 l 0.107,7.383118 9.27023,8.491881 h 4.7625 v 66.675002 l -4.81818,0.128696 -9.2191,8.373319 -0.25022,7.37299 H 0 Z"
         id="path99" /></g><g
       id="g92"><path
         style="fill:none;stroke:#000000;stroke-width:0.79375;stroke-linecap:square;stroke-miterlimit:7.9"
         d="m 100.88028,0.41864451 0.44532,23.89780749 9.2191,8.373318 21.32832,0.0299 C 132.29166,10.854991 127.90604,0 100.88028,0.41864451 Z"
         id="path88" /><circle
         style="fill:none;stroke:#000000;stroke-width:0.79375;stroke-linecap:square;stroke-miterlimit:7.9"
         id="circle88"
         cx="109.7412"
         cy="24.401031"
         r="2.9179742" /><path
         style="fill:none;stroke:#000000;stroke-width:0.79375;stroke-linecap:square;stroke-miterlimit:7.9"
         d="m 100.87573,131.88317 0.44532,-23.89782 9.2191,-8.373318 21.32832,-0.0299 c 0.41864,21.864688 -3.96698,32.719678 -30.99274,32.301038 z"
         id="path91" /><circle
         style="fill:none;stroke:#000000;stroke-width:0.79375;stroke-linecap:square;stroke-miterlimit:7.9"
         id="circle91"
         cx="109.73666"
         cy="-107.90077"
         r="2.9179742"
         transform="scale(1,-1)" /><path
         style="fill:none;stroke:#000000;stroke-width:0.79375;stroke-linecap:square;stroke-miterlimit:7.9"
         d="M 101.18349,115.34847 H 0.39480794"
         id="path97" /><path
         style="fill:none;stroke:#000000;stroke-width:0.79375;stroke-linecap:square;stroke-miterlimit:7.9"
         d="M 100.94061,128.39783 H 0.39894205"
         id="path98" /><path
         style="display:inline;fill:none;stroke:#000000;stroke-width:0.79375;stroke-linecap:square;stroke-miterlimit:7.9"
         d="M 100.94474,3.8938192 H 0.40048668"
         id="path93" /><path
         style="display:inline;fill:none;stroke:#000000;stroke-width:0.79375;stroke-linecap:square;stroke-miterlimit:7.9"
         d="M 101.18814,16.943152 H 0.39464016"
         id="path94" /><path
         style="display:inline;fill:none;stroke:#000000;stroke-width:0.793748;stroke-linecap:square;stroke-miterlimit:7.9"
         d="M 115.35833,32.678366 V 99.583394"
         id="path95" /><path
         style="display:inline;fill:none;stroke:#000000;stroke-width:0.793751;stroke-linecap:square;stroke-miterlimit:7.9"
         d="M 128.39785,32.7148 V 99.218752"
         id="path96" /></g></g></svg>
