<?xml version="1.0" encoding="UTF-8" standalone="no"?>
<!-- Created with Inkscape (http://www.inkscape.org/) -->

<svg
   width="80"
   height="80"
   viewBox="0 0 21.166665 21.166667"
   version="1.1"
   id="svg1"
   xmlns="http://www.w3.org/2000/svg"
   xmlns:svg="http://www.w3.org/2000/svg">
  <defs
     id="defs1" />
  <g
     id="layer4">
    <path
       style="fill:#3b6996;stroke:#000000;stroke-width:0.46388;stroke-linecap:square;stroke-miterlimit:7.9"
       id="rect1"
       width="11.906249"
       height="11.906249"
       x="0.39687499"
       y="0.39687499"
       d="m 1.6338878,0.39687499 9.4322232,0 a 1.2370128,1.2370128 45 0 1 1.237013,1.23701281 v 9.4322232 a 1.2370128,1.2370128 135 0 1 -1.237013,1.237013 H 1.6338878 A 1.2370128,1.2370128 45 0 1 0.39687499,11.066111 l 0,-9.4322232 A 1.2370128,1.2370128 135 0 1 1.6338878,0.39687499 Z"
       transform="matrix(1.7111112,0,0,1.7111112,-0.28222225,-0.28222225)" />
    <path
       style="fill:#fffeff;stroke:none;stroke-width:0.505751;stroke-linecap:square;stroke-miterlimit:7.9"
       id="path1"
       width="11.906249"
       height="11.906249"
       x="0.39687499"
       y="0.39687499"
       d="m 1.8851561,0.39687499 8.9296869,0 a 1.4882811,1.4882811 45 0 1 1.488281,1.48828111 v 8.9296869 a 1.4882811,1.4882811 135 0 1 -1.488281,1.488281 H 1.8851561 A 1.4882811,1.4882811 45 0 1 0.39687499,10.814843 l 0,-8.9296869 A 1.4882811,1.4882811 135 0 1 1.8851561,0.39687499 Z"
       transform="matrix(1.5694445,0,1.1669003e-7,1.5694445,0.61736044,0.61736118)" />
  </g>
</svg>
