<?xml version="1.0" encoding="UTF-8" standalone="no"?>
<!-- Created with Inkscape (http://www.inkscape.org/) -->

<svg
   width="500"
   height="500"
   viewBox="0 0 132.29166 132.29167"
   version="1.1"
   id="svg1"
   xml:space="preserve"
   xmlns="http://www.w3.org/2000/svg"
   xmlns:svg="http://www.w3.org/2000/svg"><defs
     id="defs1" /><g
     id="layer1"><path
       style="display:inline;fill:#3b6996;stroke:none;stroke-width:0.79375;stroke-linecap:square;stroke-miterlimit:7.9"
       id="rect1-5"
       width="132.29167"
       height="132.29167"
       x="0"
       y="0"
       d="M 7.408333,0 H 124.88334 a 7.408333,7.408333 45 0 1 7.40833,7.408333 V 124.88334 a 7.408333,7.408333 135 0 1 -7.40833,7.40833 H 7.408333 A 7.408333,7.408333 45 0 1 0,124.88334 V 7.408333 A 7.408333,7.408333 135 0 1 7.408333,0 Z" /><path
       style="fill:#375b87;stroke-width:0.79375;stroke-linecap:square;stroke-miterlimit:7.9"
       d="M 0.453334,5.6776937 C 1.5649222,4.3546451 3.5177245,3.9394791 5.9214288,3.840427 H 126.75195 c 2.67611,0.093384 4.48957,0.5974256 5.14284,1.8372667 l -0.1376,-1.3278821 -1.63702,-2.7595579 -2.94665,-1.12253202 H 5.2916666 L 2.6037581,1.1879446 0.63142425,4.0691786 Z"
       id="path1" /><path
       style="fill:#375b87;stroke-width:0.79375;stroke-linecap:square;stroke-miterlimit:7.9"
       d="m 0.45215879,126.17556 c 0.65427101,0.77874 1.77862001,1.45129 3.08315661,1.89307 0.9118347,0.30879 1.9117021,0.50484 2.9006073,0.54559 H 126.11173 c 2.85801,-0.19265 5.12979,-1.19882 5.78306,-2.43866 l -0.1376,1.83574 -1.63702,2.75956 -2.94665,1.12253 H 5.2916666 l -2.6879085,-0.72022 -1.97233385,-2.88124 z"
       id="path2" /></g><g
     id="layer4"><path
       style="display:inline;fill:none;stroke:#000000;stroke-width:0.798547;stroke-linecap:square;stroke-miterlimit:7.9"
       id="rect1"
       width="132.29167"
       height="132.29167"
       x="0"
       y="0"
       d="M 5.2916664,0 H 127.00001 a 5.2916664,5.2916664 45 0 1 5.29166,5.2916664 V 127.00001 a 5.2916664,5.2916664 135 0 1 -5.29166,5.29166 H 5.2916664 A 5.2916664,5.2916664 45 0 1 0,127.00001 V 5.2916664 A 5.2916664,5.2916664 135 0 1 5.2916664,0 Z"
       transform="matrix(0.99398964,0,0,0.99399385,0.39755982,0.39768986)" /><path
       style="display:inline;fill:#0e151a;fill-opacity:0.628955;stroke:none;stroke-width:0.79375;stroke-linecap:square;stroke-miterlimit:7.9"
       id="path3"
       width="132.29167"
       height="132.29167"
       x="0"
       y="0"
       d="M 5.5562497,0 H 126.73542 a 5.5562497,5.5562497 45 0 1 5.55625,5.5562497 V 126.73542 a 5.5562497,5.5562497 135 0 1 -5.55625,5.55625 H 5.5562497 A 5.5562497,5.5562497 45 0 1 0,126.73542 V 5.5562497 A 5.5562497,5.5562497 135 0 1 5.5562497,0 Z" /></g></svg>
