<?xml version="1.0" encoding="UTF-8" standalone="no"?>
<!-- Created with Inkscape (http://www.inkscape.org/) -->

<svg
   width="500"
   height="500"
   viewBox="0 0 132.29166 132.29167"
   version="1.1"
   id="svg1"
   xml:space="preserve"
   xmlns="http://www.w3.org/2000/svg"
   xmlns:svg="http://www.w3.org/2000/svg"><defs
     id="defs1" /><g
     id="layer1"><path
       style="baseline-shift:baseline;display:inline;overflow:visible;opacity:1;vector-effect:none;fill:#66a6d5;stroke-linecap:square;stroke-miterlimit:7.9;enable-background:accumulate;stop-color:#000000;stop-opacity:1"
       d="m 25.417702,66.241567 c 10.329432,-8.298446 21.141032,-8.03842 31.905689,-8.611616 3.035377,-0.526614 6.030883,-1.252583 8.986518,-2.177907 H 95.849111 C 95.9794,55.14776 96.049882,54.82354 96.060558,54.479385 h 1.585854 l 0.613198,0.718921 0.845791,-0.613196 6.787459,3.383159 c 0.76751,0.645068 1.37954,0.590449 2.34707,2.135618 v 11.904488 c -0.63434,1.177057 -1.46604,1.987606 -2.49508,2.431645 l -6.660594,3.277436 -0.676632,-0.592053 -0.782355,0.676633 -1.543566,-0.105725 c -0.04008,-0.486622 -0.159898,-0.803793 -0.35946,-0.951513 H 65.738999 C 62.839437,75.91258 59.979746,75.339524 57.159926,75.025628 45.24653,75.130546 34.083171,73.528483 25.417702,66.241567 Z"
       id="path9" /><path
       style="fill:#3b6996;stroke:none;stroke-width:0.79375;stroke-linecap:square;stroke-miterlimit:7.9"
       d="m 27.062377,67.491477 2.571673,-1.30079 0.613016,-1.510109 1.450305,-0.613016 1.151271,0.284081 c 7.934725,-4.437419 16.235072,-3.919037 24.386042,-4.634995 3.240627,-0.449645 6.225832,-1.218568 9.150374,-2.063319 H 95.929399 L 95.779882,55.470398 H 66.265445 l -9.036825,2.421411 -7.210734,0.171648 -7.220932,0.740066 -5.656217,1.289831 -4.577837,1.564711 -7.2315,4.577837 z"
       id="path20" /><ellipse
       style="fill:#38fdfa;stroke:none;stroke-width:0.79375;stroke-linecap:square;stroke-miterlimit:7.9"
       id="path11"
       cx="31.787081"
       cy="66.145836"
       rx="1.9712223"
       ry="2.0236933" /><path
       style="fill:#d9e9f2;stroke:none;stroke-width:0.79375;stroke-linecap:square;stroke-miterlimit:7.9"
       d="m 57.323391,57.629951 3.266864,-0.560295 0.05286,5.571638 -4.852718,1.448416 0.09515,3.721473 4.662416,1.765586 v 5.952244 l -3.319724,-0.486328 -0.06343,-4.176085 -3.499456,-1.638718 -0.04229,-6.766317 3.658039,-1.765586 z"
       id="path12" /><circle
       style="fill:#38fdfa;stroke:none;stroke-width:0.79375;stroke-linecap:square;stroke-miterlimit:7.9"
       id="path13"
       cx="75.834465"
       cy="66.115929"
       r="8.0738583" /><circle
       style="fill:#1c2c4e;stroke:none;stroke-width:0.79375;stroke-linecap:square;stroke-miterlimit:7.9"
       id="path14"
       cx="75.592445"
       cy="66.145836"
       r="6.1599998" /><circle
       style="fill:#38fdfa;stroke:none;stroke-width:0.79375;stroke-linecap:square;stroke-miterlimit:7.9"
       id="path15"
       cx="75.592445"
       cy="66.145836"
       r="4.2612033" /><circle
       style="fill:#fffeff;stroke:none;stroke-width:0.79375;stroke-linecap:square;stroke-miterlimit:7.9"
       id="path16"
       cx="75.592445"
       cy="66.145836"
       r="3.966655" /><path
       style="fill:#d9e9f2;stroke:none;stroke-width:0.79375;stroke-linecap:square;stroke-miterlimit:7.9"
       d="m 98.246894,55.089133 0.04485,4.537805 0.732629,1.188652 6.100247,2.511869 0.80738,-0.949428 -0.0822,-4.448096 -6.683356,-3.319253 z"
       id="path17" /><path
       style="fill:#d9e9f2;stroke:none;stroke-width:0.79375;stroke-linecap:square;stroke-miterlimit:7.9"
       d="m 98.333617,77.220595 -0.07401,-4.672989 0.930371,-1.152387 5.867672,-2.389357 0.95151,0.951513 -0.0634,4.440396 -6.882613,3.298579 z"
       id="path18" /><path
       style="fill:#97bdcf;stroke:none;stroke-width:0.79375;stroke-linecap:square;stroke-miterlimit:7.9"
       d="m 105.82735,58.131781 0.10466,4.350911 -0.89709,1.016709 0.19437,5.517137 0.91205,1.046612 -0.16447,4.261202 2.3474,-2.407206 -0.10466,-12.065933 z"
       id="path19" /><path
       style="fill:#375b87;stroke:none;stroke-width:0.79375;stroke-linecap:square;stroke-miterlimit:7.9"
       d="m 60.537394,75.084976 h 35.227137 l 2.473934,-0.824645 0.04229,2.939118 -0.655487,0.613199 -1.543566,-0.126871 -0.253738,-0.888079 H 65.802432 l -5.180459,-1.226394 z"
       id="path21" /><path
       style="fill:#909eb1;stroke:none;stroke-width:0.79375;stroke-linecap:square;stroke-miterlimit:7.9"
       d="m 98.25961,74.302619 7.64382,-2.801678 0.0211,2.928546 c 0,0 -6.692306,3.446595 -6.75574,3.404304 -0.06343,-0.04229 -0.940941,-0.877507 -0.940941,-0.877507 z"
       id="path22" /><path
       style="fill:#909eb1;stroke:none;stroke-width:0.79375;stroke-linecap:square;stroke-miterlimit:7.9"
       d="m 105.79745,71.588211 2.4072,-0.945687 -0.0673,1.708219 -2.29507,2.052106 z"
       id="path23" /><path
       style="fill:#3b6996;stroke:none;stroke-width:0.79375;stroke-linecap:square;stroke-miterlimit:7.9"
       d="m 95.849111,57.598275 2.537367,-0.940943 -0.105722,-1.607 -0.687205,-0.602625 -1.681006,0.12687 z"
       id="path24" /><path
       style="fill:#97bdcf;stroke:none;stroke-width:0.79375;stroke-linecap:square;stroke-miterlimit:7.9"
       d="m 98.280756,55.177202 0.877506,-0.496903 1.606998,0.761212 -2.569083,1.247539 z"
       id="path25" /><path
       style="fill:#97bdcf;stroke:none;stroke-width:0.79375;stroke-linecap:square;stroke-miterlimit:7.9"
       d="m 57.331871,59.67927 3.394012,-0.568161 -0.05233,-2.138076 -3.506147,0.702725 z"
       id="path26" /></g><g
     id="layer4"><path
       style="baseline-shift:baseline;display:inline;overflow:visible;opacity:1;vector-effect:none;stroke-linecap:square;stroke-miterlimit:7.9;enable-background:accumulate;stop-color:#000000;stop-opacity:1"
       d="m 95.675781,54.082031 -0.01172,0.384766 c -0.0066,0.211342 -0.06939,0.398008 -0.126953,0.58789 H 66.25 l -0.05859,0.01953 c -2.936579,0.919358 -5.912268,1.638591 -8.927734,2.162109 C 46.53195,57.80575 35.595319,57.5561 25.169926,65.931639 l -0.376953,0.302734 0.36914,0.310547 c 8.759884,7.36631 20.020403,8.97536 31.953125,8.875 6.17e-4,6.9e-5 0.0013,-6.9e-5 0.002,0 2.795759,0.311329 5.632866,0.880757 8.511719,1.707031 l 0.05469,0.01563 h 29.826172 c 0.0518,0.06302 0.144081,0.201062 0.175781,0.585938 l 0.0293,0.339843 2.046875,0.140625 0.644531,-0.55664 0.615234,0.537109 6.88086,-3.384766 c 1.11893,-0.482827 2.02053,-1.369813 2.6875,-2.607421 l 0.0469,-0.08789 V 59.990234 l -0.0605,-0.09766 c -0.50486,-0.80627 -0.95037,-1.233271 -1.35742,-1.519531 -0.40705,-0.286261 -0.73056,-0.423431 -1.07031,-0.708985 l -0.0371,-0.0293 -7.044928,-3.511719 -0.742187,0.539062 -0.494141,-0.580078 z m 0.697266,0.794922 h 1.089844 l 0.732421,0.857422 0.949219,-0.6875 6.570309,3.277344 c 0.39002,0.309613 0.73926,0.481508 1.04883,0.699218 0.31509,0.221586 0.65346,0.564243 1.08008,1.222657 v 11.638672 c -0.59508,1.073615 -1.33833,1.795484 -2.25586,2.191406 l -0.01,0.0039 -6.431646,3.164063 -0.738281,-0.644532 -0.917969,0.794922 -1.160156,-0.07813 C 96.258908,76.974958 96.215289,76.61567 95.958744,76.42577 L 95.853276,76.34764 H 65.769531 c -2.892572,-0.825744 -5.748817,-1.403149 -8.566406,-1.716797 l -0.02344,-0.002 H 57.15625 C 45.469688,74.731827 34.597891,73.156277 26.097656,66.248047 36.187757,58.384057 46.709711,58.591631 57.34375,58.025391 h 0.02344 l 0.02344,-0.0039 c 3.025517,-0.524903 6.010548,-1.253159 8.957031,-2.171875 h 29.763672 l 0.103516,-0.242187 c 0.09827,-0.229513 0.119083,-0.482255 0.158203,-0.730469 z"
       id="path10" /><circle
       style="fill:none;stroke:#000000;stroke-width:0.79375;stroke-linecap:square;stroke-miterlimit:7.9"
       id="path2"
       cx="31.787081"
       cy="66.145836"
       r="2.1829321" /><circle
       style="fill:none;stroke:#000000;stroke-width:0.79375;stroke-linecap:square;stroke-miterlimit:7.9"
       id="path3"
       cx="75.592445"
       cy="66.145836"
       r="7.9292774" /><path
       style="fill:none;stroke:#000000;stroke-width:0.79375;stroke-linecap:square;stroke-miterlimit:7.9"
       d="m 57.323391,57.629951 0.01058,3.108317 -3.636894,1.712724 -0.03172,6.903757 3.584032,1.522423 -0.08946,4.148455"
       id="path4" /><path
       style="fill:none;stroke:#000000;stroke-width:0.79375;stroke-linecap:square;stroke-miterlimit:7.9"
       d="m 60.58376,57.209736 0.04879,5.38927 -4.810429,1.458986 v 3.753191 l 4.72585,1.69158 0.01109,5.725504"
       id="path5" /><path
       style="fill:none;stroke:#000000;stroke-width:0.79375;stroke-linecap:square;stroke-miterlimit:7.9"
       d="m 95.849111,55.452044 0.01121,21.21853"
       id="path6" /><path
       style="fill:none;stroke:#000000;stroke-width:0.79375;stroke-linecap:square;stroke-miterlimit:7.9"
       d="m 98.25961,55.198306 v 4.451008 l 0.761212,1.184106 6.131978,2.495079 0.78235,-0.845791 -0.0822,-4.300043 m -7.59334,18.910701 v -4.451008 l 0.761212,-1.184106 6.131978,-2.495079 0.78235,0.845791 -0.0822,4.300043"
       id="path7" /><path
       style="fill:none;stroke:#000000;stroke-width:0.79375;stroke-linecap:square;stroke-miterlimit:7.9"
       d="m 105.1528,63.328499 v 5.634675"
       id="path8" /></g></svg>
