<?xml version="1.0" encoding="UTF-8" standalone="no"?>
<!-- Created with Inkscape (http://www.inkscape.org/) -->

<svg
   width="500"
   height="500"
   viewBox="0 0 132.29166 132.29167"
   version="1.1"
   id="svg1"
   xml:space="preserve"
   xmlns="http://www.w3.org/2000/svg"
   xmlns:svg="http://www.w3.org/2000/svg"><defs
     id="defs1" /><g
     id="layer1"
     style="display:inline"><path
       style="baseline-shift:baseline;display:inline;overflow:visible;vector-effect:none;fill:#3b6996;fill-opacity:1;stroke-linecap:square;stroke-miterlimit:7.9;enable-background:accumulate;stop-color:#000000"
       d="m 38.501243,57.298711 c 0.677246,-0.849457 1.725781,-0.975876 2.685351,-1.275543 2.410025,-1.708265 4.781324,-3.195241 7.619688,-7.351154 h 21.348554 c 0.535946,-0.04602 0.961127,0.256087 1.275543,0.906309 V 51.2231 c 0.529614,0.232969 0.837698,0.766586 0.924251,1.600851 h 4.614288 c 1.712356,0.691353 2.061671,2.064228 2.618219,3.333485 h 18.478581 c 0.306106,-1.004265 0.770448,-1.502174 1.393026,-1.493729 h 6.360926 c 5.15413,1.894034 5.60014,20.130936 0,23.513619 H 99.290911 C 98.884598,78.03889 98.604874,77.647277 98.451738,77.002486 H 79.1172 c -0.496484,1.455497 -1.246145,2.372991 -2.248983,2.752484 h -4.095162 c -0.254969,0.679461 -0.01634,1.169078 -1.007007,2.131499 0.289646,2.102468 -0.648318,2.680747 -2.584654,2.651786 H 49.037311 c -2.10314,-3.793119 -4.661883,-5.706876 -7.26303,-7.445716 -1.701163,-0.336808 -2.832676,-0.990088 -3.39454,-1.95984 z"
       id="path29" /><path
       style="display:inline;fill:#66a6d5;fill-opacity:1;stroke:none;stroke-width:0.79375;stroke-linecap:square;stroke-linejoin:miter;stroke-miterlimit:7.9;stroke-dasharray:none;paint-order:normal"
       d="m 38.501767,59.160454 c 0.848574,-0.476209 1.721321,-0.847669 2.702867,-0.747665 4.091792,-2.728844 6.841967,-5.270486 9.016478,-7.731802 l 21.133742,-0.01593 c 0.03798,-1.017665 -0.235697,-1.747045 -1.090925,-1.938491 L 48.94055,48.680416 c -2.136528,2.931952 -4.714382,5.318736 -7.611306,7.311374 l -2.752476,1.281756 z"
       id="path81" /><path
       style="display:inline;fill:#38fdfa;stroke:none;stroke-width:0.79375;stroke-linecap:square;stroke-linejoin:miter;stroke-miterlimit:7.9;stroke-dasharray:none;paint-order:normal"
       d="m 54.059505,48.672014 c -2.659255,6.556202 -6.910848,6.955364 -10.842112,8.593129 v 1.510512 c 5.434426,-1.366721 10.944766,-2.595768 12.990393,-10.108203 z"
       id="path31" /><path
       style="display:inline;fill:#375b87;fill-opacity:1;stroke:none;stroke-width:0.79375;stroke-linecap:square;stroke-linejoin:miter;stroke-miterlimit:7.9;stroke-dasharray:none;paint-order:normal"
       d="m 48.090888,82.996277 h 21.210511 c 1.181419,-1.668167 1.851133,-3.37727 2.242992,-5.108601 h 4.769972 c 0.353008,-0.109213 0.526951,-0.49896 0.774067,-0.774071 h 1.869326 l -2.022406,2.599407 h -4.13712 l -1.241975,2.400036 -0.293712,2.248982 H 48.936354 Z"
       id="path83" /><rect
       style="display:inline;fill:#38fdfa;stroke:none;stroke-width:0.79375;stroke-linecap:square;stroke-linejoin:miter;stroke-miterlimit:7.9;stroke-dasharray:none;paint-order:normal"
       id="rect32"
       width="1.6021386"
       height="11.226838"
       x="44.634396"
       y="61.083019" /><path
       style="display:inline;fill:#38fdfa;stroke:none;stroke-width:0.79375;stroke-linecap:square;stroke-linejoin:miter;stroke-miterlimit:7.9;stroke-dasharray:none;paint-order:normal"
       d="m 43.250961,74.535317 c 7.782806,0.763471 10.588871,5.239101 13.007175,10.003962 h -2.064363 c -1.97613,-5.89103 -6.170719,-7.806856 -10.97638,-8.627718 z"
       id="path32" /><rect
       style="display:inline;fill:#38fdfa;fill-opacity:1;stroke:none;stroke-width:0.79375;stroke-linecap:square;stroke-linejoin:miter;stroke-miterlimit:7.9;stroke-dasharray:none;paint-order:normal"
       id="rect41"
       width="8.8298454"
       height="6.8121266"
       x="56.347282"
       y="63.007301" /><path
       style="display:inline;fill:#38fdfa;fill-opacity:1;stroke:none;stroke-width:0.79375;stroke-linecap:square;stroke-linejoin:miter;stroke-miterlimit:7.9;stroke-dasharray:none;paint-order:normal"
       d="m 75.357706,56.10289 22.706531,0.05059 c -2.740222,7.22456 -1.979467,14.102176 0.228057,20.836419 H 75.380624 C 73.893651,70.642055 71.294723,64.7561 75.357706,56.10289 Z"
       id="path42" /><ellipse
       style="display:inline;fill:#fffeff;fill-opacity:1;stroke:#38fdfa;stroke-width:0.793751;stroke-linecap:square;stroke-linejoin:miter;stroke-miterlimit:7.9;stroke-dasharray:none;paint-order:normal"
       id="path43"
       cx="104.8036"
       cy="66.257339"
       rx="1.4597263"
       ry="7.6546631" /></g><g
     id="layer2"
     style="display:inline"><g
       id="g31"
       style="display:inline"><path
         style="baseline-shift:baseline;display:inline;overflow:visible;vector-effect:none;stroke-linecap:square;stroke-miterlimit:7.9;enable-background:accumulate;stop-color:#000000"
         d="m 48.597656,48.275391 -0.11914,0.171875 c -2.787031,4.080751 -5.070291,5.515029 -7.47461,7.216796 -0.902509,0.272386 -2.039923,0.417691 -2.8125,1.386719 l -0.08594,0.107422 -0.123047,18.080078 0.05469,0.09375 c 0.62236,1.074166 1.850385,1.751469 3.542969,2.109375 2.57983,1.725917 5.051932,3.57836 7.109375,7.289063 l 0.113281,0.205078 h 20.373047 c 1.008622,0.01508 1.83458,-0.112039 2.400391,-0.63086 0.533622,-0.489304 0.691768,-1.28604 0.582031,-2.30664 0.39881,-0.432785 0.66912,-0.836011 0.767578,-1.171875 0.08181,-0.279084 0.112397,-0.470196 0.158203,-0.673828 h 3.857422 l 0.06641,-0.02539 c 1.059556,-0.400956 1.818883,-1.37622 2.341797,-2.728516 H 98.19727 c 0.194069,0.547747 0.488647,0.992051 0.964843,1.154297 l 0.0625,0.02148 h 6.705077 l 0.0957,-0.05664 c 1.53712,-0.928475 2.58112,-2.794196 3.26172,-5.060547 0.6806,-2.26635 0.99113,-4.956081 0.96289,-7.599609 -0.0282,-2.643528 -0.3943,-5.23843 -1.0918,-7.322266 -0.69749,-2.083835 -1.72083,-3.700148 -3.20117,-4.24414 l -0.0664,-0.02344 h -6.425782 c -0.418399,-0.0057 -0.818055,0.177713 -1.111328,0.492188 -0.22891,0.245458 -0.376322,0.617556 -0.521485,1 H 79.839844 C 79.609193,55.20799 79.400751,54.62373 79.046875,54.0625 78.643318,53.422478 78.049244,52.83139 77.117187,52.455078 l -0.07031,-0.02734 H 72.642578 C 72.51568,51.832701 72.244307,51.371219 71.828125,51.078125 v -1.589844 l -0.04102,-0.08203 C 71.609862,49.039707 71.389994,48.743184 71.105465,48.541017 70.820935,48.33885 70.47173,48.247236 70.12109,48.277345 l 0.0332,-0.002 z m 0.388672,0.792968 h 21.185547 0.01758 c 0.185306,-0.01591 0.31638,0.0192 0.457031,0.119141 0.127597,0.09066 0.260375,0.271664 0.386719,0.511719 v 1.783203 l 0.238281,0.103515 c 0.377084,0.165874 0.60913,0.523905 0.6875,1.279297 l 0.03711,0.355469 h 4.859375 c 0.747586,0.313516 1.188857,0.741193 1.519531,1.265625 0.338326,0.536569 0.562465,1.175221 0.849609,1.830078 l 0.103516,0.238281 h 19.03125 l 0.08594,-0.28125 c 0.142069,-0.466094 0.317214,-0.789221 0.488282,-0.972656 0.171068,-0.183435 0.315352,-0.243004 0.519531,-0.240234 h 0.002 6.25586 c 1.08444,0.416735 2.0386,1.770407 2.69336,3.726562 0.66072,1.97399 1.02327,4.504792 1.05078,7.080078 0.0275,2.575287 -0.27799,5.197692 -0.92774,7.361329 -0.63949,2.129479 -1.62456,3.773436 -2.85937,4.552734 H 99.404349 C 99.168915,77.6937 98.971263,77.47151 98.837943,76.910156 l -0.07227,-0.304687 H 78.833984 l -0.0918,0.269531 c -0.46638,1.367246 -1.131255,2.14577 -1.978515,2.482422 h -4.265625 l -0.0957,0.257812 c -0.15281,0.407219 -0.159303,0.718868 -0.238282,0.988282 -0.07898,0.269413 -0.214044,0.551372 -0.673828,0.998046 l -0.144531,0.140625 0.02734,0.199219 c 0.136247,0.988983 -0.01719,1.488649 -0.332031,1.777344 -0.314844,0.288695 -0.925801,0.43575 -1.853516,0.421875 h -0.0039 -19.957032 C 47.111335,80.44615 44.548618,78.46936 41.994141,76.761719 l -0.06445,-0.04297 -0.07813,-0.01563 C 40.253985,76.38682 39.277256,75.791212 38.779296,74.986322 l 0.117187,-17.496094 c 0.569011,-0.637821 1.439735,-0.785444 2.408203,-1.08789 l 0.06055,-0.01953 0.05078,-0.03516 c 2.354318,-1.668779 4.766798,-3.247295 7.570312,-7.279297 z"
         id="path30" /><path
         style="baseline-shift:baseline;display:inline;overflow:visible;opacity:1;vector-effect:none;stroke-linecap:square;stroke-miterlimit:7.9;enable-background:accumulate;stop-color:#000000;stop-opacity:1"
         d="m 40.789062,55.951172 v 0.396484 19.917969 0.396484 h 0.794922 V 76.265625 56.347656 55.951172 Z"
         id="path17" /><path
         style="baseline-shift:baseline;display:inline;overflow:visible;opacity:1;vector-effect:none;stroke-linecap:square;stroke-miterlimit:7.9;enable-background:accumulate;stop-color:#000000;stop-opacity:1"
         d="m 53.972656,48.275391 -0.105469,0.230468 c -2.820338,6.12862 -6.731858,7.185794 -10.830078,8.41211 l -0.283203,0.08594 v 2.244141 l 0.451172,-0.0625 c 5.392386,-0.75198 10.380558,-3.062397 13.435547,-10.359375 l 0.230469,-0.550781 z m 0.470703,0.792968 h 1.152344 c -2.87636,6.355331 -7.158697,8.463465 -12.048828,9.228516 v -0.708984 c 3.944514,-1.181886 8.04289,-2.548058 10.896484,-8.519532 z"
         id="path18" /><path
         style="baseline-shift:baseline;display:inline;overflow:visible;opacity:1;vector-effect:none;stroke-linecap:square;stroke-miterlimit:7.9;enable-background:accumulate;stop-color:#000000;stop-opacity:1"
         d="m 42.769531,73.960937 v 2.246094 l 0.283203,0.08398 c 4.09822,1.226315 8.00974,2.285443 10.830078,8.414062 l 0.107422,0.230469 h 2.898438 L 56.658203,84.384766 C 53.603214,77.087787 48.615042,74.77737 43.222656,74.025391 Z m 0.794922,0.951172 c 4.888906,0.765217 9.172846,2.875342 12.048828,9.228516 h -1.152344 c -2.853564,-5.970094 -6.952327,-7.3358 -10.896484,-8.517578 z"
         id="path19" /><path
         style="baseline-shift:baseline;display:inline;overflow:visible;opacity:1;vector-effect:none;stroke-linecap:square;stroke-miterlimit:7.9;enable-background:accumulate;stop-color:#000000;stop-opacity:1"
         d="M 71.113281,50.976562 71,51.357422 c -0.530023,1.765644 -0.656377,3.258334 -0.666016,4.958984 -0.790015,0.787182 -1.436272,1.708931 -2.132812,1.927735 H 57.876953 l -0.08594,0.04297 c -3.679289,1.847726 -5.843041,4.922362 -5.984375,8.058594 -0.141335,3.136232 1.784508,6.268463 6.003906,8.132813 l 0.07617,0.0332 h 10.058593 c 0.703286,0.179381 1.483899,1.103838 2.300782,2.007812 0.144874,3.203037 0.355032,5.404782 0.904297,7.232422 l 0.0039,0.02344 h 0.002 c 0.0056,0.01845 0.0061,0.04412 0.01172,0.0625 l 0.773437,-0.169922 -0.03125,-0.228516 -0.02539,-0.185547 C 71.400659,81.541518 71.168746,79.49928 71.029334,76.333985 l -0.0059,-0.142578 -0.09766,-0.107422 c -0.82073,-0.902221 -1.624397,-2.06848 -2.808594,-2.353515 l -0.04687,-0.01172 h -9.996093 c -3.956902,-1.771091 -5.599835,-4.55912 -5.47461,-7.337891 0.125017,-2.774134 2.053297,-5.593171 5.482422,-7.341797 h 10.267578 l 0.05273,-0.01758 c 1.18004,-0.344726 1.847599,-1.533896 2.578125,-2.236328 l 0.121093,-0.117187 v -0.169922 c -4.6e-4,-1.738212 0.132581,-3.163079 0.658204,-4.914063 L 71.875,51.205078 Z"
         id="path21" /><path
         style="baseline-shift:baseline;display:inline;overflow:visible;opacity:1;vector-effect:none;stroke-linecap:square;stroke-miterlimit:7.9;enable-background:accumulate;stop-color:#000000;stop-opacity:1"
         d="m 59.591797,62.273437 c -1.091239,0 -1.984375,0.893137 -1.984375,1.984375 v 4.226563 c 0,1.091239 0.893136,1.984375 1.984375,1.984375 h 6.240234 c 1.091239,0 1.984375,-0.893136 1.984375,-1.984375 v -4.226563 c 0,-1.091238 -0.893136,-1.984375 -1.984375,-1.984375 z m 0,0.792969 h 6.240234 c 0.662265,0 1.189453,0.529142 1.189453,1.191406 v 4.226563 c 0,0.662265 -0.527188,1.189453 -1.189453,1.189453 h -6.240234 c -0.662265,0 -1.191406,-0.527188 -1.191406,-1.189453 v -4.226563 c 0,-0.662264 0.529141,-1.191406 1.191406,-1.191406 z"
         id="rect21"
         transform="translate(-1.9463018,0.02396255)" /><path
         style="baseline-shift:baseline;display:inline;overflow:visible;opacity:1;vector-effect:none;stroke-linecap:square;stroke-miterlimit:7.9;enable-background:accumulate;stop-color:#000000;stop-opacity:1"
         d="m 60.654297,62.101562 c -1.771475,10e-7 -3.21875,1.447276 -3.21875,3.21875 v 2.09961 c 0,1.771474 1.447275,3.21875 3.21875,3.21875 h 4.113281 c 1.771475,0 3.220703,-1.447276 3.220703,-3.21875 v -2.09961 c 0,-1.771474 -1.449228,-3.218749 -3.220703,-3.21875 z m 0,1.136719 h 4.113281 c 1.15734,0 2.083984,0.924691 2.083984,2.082031 v 2.09961 c 0,1.15734 -0.926644,2.082031 -2.083984,2.082031 h -4.113281 c -1.15734,0 -2.082031,-0.924691 -2.082031,-2.082031 v -2.09961 c 0,-1.15734 0.924691,-2.082031 2.082031,-2.082031 z"
         id="rect21-7"
         transform="matrix(0.70166241,0,0,0.6953508,16.762859,20.24358)" /><path
         style="baseline-shift:baseline;display:inline;overflow:visible;opacity:1;vector-effect:none;stroke-linecap:square;stroke-miterlimit:7.9;enable-background:accumulate;stop-color:#000000;stop-opacity:1"
         d="m 70.412109,56.257812 -0.1875,0.34961 -3.203125,5.96289 v 7.597657 l 3.117188,6.009765 0.18164,0.353516 0.705079,-0.365234 L 70.84375,75.8125 67.816406,69.974609 v -7.205078 l 3.107422,-5.787109 0.1875,-0.34961 z"
         id="path22" /><path
         style="baseline-shift:baseline;display:inline;overflow:visible;opacity:1;vector-effect:none;stroke-linecap:square;stroke-miterlimit:7.9;enable-background:accumulate;stop-color:#000000;stop-opacity:1"
         d="m 77.240234,52.566406 -0.271484,0.289063 c -2.916433,3.10261 -4.094898,8.274516 -4.037109,13.4375 0.05779,5.162983 1.351456,10.327209 3.601562,13.478515 l 0.230469,0.324219 0.646484,-0.462891 -0.230469,-0.322265 c -2.092623,-2.93075 -3.398732,-7.993322 -3.455078,-13.027344 -0.05635,-5.034021 1.137835,-10.028968 3.822266,-12.884766 l 0.271484,-0.289062 z"
         id="path23" /><path
         style="baseline-shift:baseline;display:inline;overflow:visible;opacity:1;vector-effect:none;stroke-linecap:square;stroke-miterlimit:7.9;enable-background:accumulate;stop-color:#000000;stop-opacity:1"
         d="m 97.853516,55.638672 -0.154297,0.365234 c -2.463285,5.868368 -2.962329,15.007136 0.404297,21.1875 l 0.189453,0.34961 0.697265,-0.378907 L 98.800781,76.8125 C 95.610099,70.955128 96.069254,61.938542 98.431641,56.310547 l 0.154296,-0.365235 z"
         id="path24" /><path
         style="baseline-shift:baseline;display:inline;overflow:visible;opacity:1;vector-effect:none;stroke-linecap:square;stroke-miterlimit:7.9;enable-background:accumulate;stop-color:#000000;stop-opacity:1"
         d="m 105.60938,54.117187 -0.3379,0.208985 c -1.55636,0.958627 -2.61428,2.735914 -3.28515,4.880859 -0.67087,2.144946 -0.9546,4.675794 -0.90235,7.205078 0.0523,2.529284 0.44033,5.05712 1.13477,7.199219 0.69444,2.142099 1.6851,3.908725 3.02734,4.886719 l 0.10547,0.07617 h 0.19922 0.39649 V 77.78125 h -0.30079 c -1.08735,-0.831119 -2.02157,-2.410063 -2.67187,-4.416016 -0.66456,-2.049923 -1.04687,-4.512089 -1.09766,-6.970703 -0.0508,-2.458614 0.22863,-4.913833 0.86524,-6.949219 0.6366,-2.035385 1.62911,-3.632664 2.94531,-4.443359 l 0.33789,-0.208984 z"
         id="path25" /><path
         style="baseline-shift:baseline;display:inline;overflow:visible;opacity:1;vector-effect:none;stroke-linecap:square;stroke-miterlimit:7.9;enable-background:accumulate;stop-color:#000000;stop-opacity:1"
         d="m 105.72852,57.251953 c -0.53587,0 -0.97681,0.357762 -1.32227,0.853516 -0.34546,0.495753 -0.63141,1.165305 -0.87109,1.978515 -0.47937,1.626422 -0.76563,3.828402 -0.76563,6.261719 0,2.433317 0.28626,4.635297 0.76563,6.261719 0.23968,0.813211 0.52563,1.482762 0.87109,1.978515 0.34546,0.495754 0.7864,0.853516 1.32227,0.853516 0.53586,0 0.97876,-0.357762 1.32421,-0.853516 0.34546,-0.495753 0.62946,-1.165304 0.86915,-1.978515 0.47936,-1.626422 0.76757,-3.828402 0.76757,-6.261719 0,-2.433317 -0.28821,-4.635297 -0.76757,-6.261719 -0.23969,-0.81321 -0.52369,-1.482762 -0.86915,-1.978515 -0.34545,-0.495754 -0.78835,-0.853516 -1.32421,-0.853516 z m 0,0.792969 c 0.172,0 0.40591,0.129205 0.67382,0.513672 0.26791,0.384467 0.53556,0.989299 0.75977,1.75 0.44841,1.521402 0.73437,3.667009 0.73437,6.037109 0,2.3701 -0.28596,4.515707 -0.73437,6.037109 -0.22421,0.760702 -0.49186,1.365533 -0.75977,1.75 -0.26791,0.384468 -0.50182,0.513672 -0.67382,0.513672 -0.17201,0 -0.40397,-0.129204 -0.67188,-0.513672 -0.26791,-0.384467 -0.53556,-0.989298 -0.75976,-1.75 -0.44842,-1.521402 -0.73438,-3.667009 -0.73438,-6.037109 0,-2.3701 0.28596,-4.515707 0.73438,-6.037109 0.2242,-0.760701 0.49185,-1.365533 0.75976,-1.75 0.26791,-0.384467 0.49987,-0.513672 0.67188,-0.513672 z"
         id="path26" /><path
         style="baseline-shift:baseline;display:inline;overflow:visible;opacity:1;vector-effect:none;stroke-linecap:square;stroke-miterlimit:7.9;enable-background:accumulate;stop-color:#000000;stop-opacity:1"
         d="m 74.988281,55.759766 -0.11914,0.251953 -0.169922,0.357422 0.716797,0.339843 0.07422,-0.154297 h 4.097657 0.396484 v -0.794921 h -0.396484 z"
         id="path27" /><path
         style="baseline-shift:baseline;display:inline;overflow:visible;opacity:1;vector-effect:none;stroke-linecap:square;stroke-miterlimit:7.9;enable-background:accumulate;stop-color:#000000;stop-opacity:1"
         d="m 74.830078,76.605469 0.267578,0.605468 0.16211,0.363282 0.398437,-0.175782 h 3.458984 0.396485 v -0.792968 h -0.396485 z"
         id="path28" /><path
         style="baseline-shift:baseline;display:inline;overflow:visible;opacity:1;vector-effect:none;stroke-linecap:square;stroke-miterlimit:7.9;enable-background:accumulate;stop-color:#000000;stop-opacity:1"
         d="m 45.128906,60.427734 c -0.506737,10e-7 -0.927734,0.420997 -0.927734,0.927735 v 10.5 c 0,0.506737 0.420997,0.92578 0.927734,0.925781 h 0.53125 c 0.506739,0 0.925782,-0.419043 0.925781,-0.925781 v -10.5 c 10e-7,-0.506739 -0.419042,-0.927735 -0.925781,-0.927735 z m 0,0.794922 h 0.53125 c 0.07776,0 0.132813,0.05505 0.132813,0.132813 v 10.5 c 0,0.07776 -0.05505,0.132812 -0.132813,0.132812 h -0.53125 c -0.07776,0 -0.132812,-0.05505 -0.132812,-0.132812 v -10.5 c 0,-0.07776 0.05505,-0.132813 0.132812,-0.132813 z"
         id="rect28" /></g></g></svg>
